<?xml version="1.0" encoding="UTF-8"?>
<svg id="Layer_1" data-name="Layer 1" xmlns="http://www.w3.org/2000/svg" viewBox="0 0 470.1 470.1">
  <defs>
    <style>
      .cls-1 {
        fill: #f8f8f8;
      }

      .cls-2 {
        fill: #00c2e8;
      }

      .cls-3 {
        fill: #161840;
      }
    </style>
  </defs>
  <circle class="cls-1" cx="235.05" cy="235.05" r="235.05"/>
  <g>
    <path class="cls-2" d="M199.69,159.45c-3.63,0-6.85.18-8.45.35-3.18.32-4.25,3.31-4.02,6.25,3.34,42.58-6.12,92.14-16.9,92.14-8.02,0-10.26-23.16-10.26-43.76,0-12.18.71-23.91.99-34.27.11-3.84-1.3-4.57-4.11-4.91-4.25-.51-7.3-.51-11.52.42-3.22.71-3.98,3.33-7.37,11.31-16.89,39.77-33.2,71.72-33.2,71.72-4.31-32.02,1.22-63.08,5.93-85.75.65-3.12-.85-4.96-3.44-4.92-4.88.09-12.37.24-15.74,2.43-3.17,2.05-4.35,4.25-5.26,8.78-5.23,25.96-8.63,58.53-3.37,83.72,1.14,5.44,2.41,6.73,4.73,8.15,2.32,1.43,12.29,2.7,16.15,2.7,4.38,0,8.4-1.17,11.75-6.84,7.07-12.01,12.74-24.01,23.45-47.12,1.1,30.11,5.39,53.74,26.76,53.74,28.32,0,46.6-70.05,46.6-103.76,0-8.92-4.46-10.38-12.74-10.38"/>
    <path class="cls-2" d="M387.96,207.92c5.13-.12,8.76-1.67,9.65-6.49.53-2.87-1.17-4.71-4.47-4.85,0,0-9.57-.5-20.59-.98,0,0,2.23-12.11,3.31-17.04.54-2.42-.75-4.82-3.84-5.56-3.06-.73-10.1-.78-12.46-.52-1.97.22-3.89,1.39-4.34,3.41-1.11,5.06-2.27,11.16-3.65,18.95-4.09-.09-8.05-.13-10.81-.08-2.58.04-3.78,1.34-4.31,3.44-.53,2.1-.96,5.09-1.13,8.18-.13,2.35,2.45,3.47,5.11,3.37,0,0,3.27-.15,8.39-.39-.95,4.43-2.85,16.33-3.57,23.72-4.62,15.37-14.21,26.73-22.47,26.73-5.06,0-8.08-2.98-8.08-12,0-12.49,2.9-28.28,7.13-44.11,5.96-14.2,9.39-29.99,9.39-37.14,0-2.69-.83-5.71-4.09-6.34-5.88-1.16-11.47-.94-15.38.27-3.49,1.08-4.21,4.72-4.64,6.67-2.02,9.33-5.33,25.88-7.64,40.38-5.15,6.17-11.06,10.5-17.45,11.57-.99-19.21-12.28-27.46-27.84-27.46-27.31,0-44.72,24.09-44.72,51.13,0,21.9,12.07,31.04,29.64,31.04,20.75,0,36.19-14.58,41.96-41.32,5.88-1.17,10.97-4.01,15.37-7.93,0,0-3.31,16.56-3.31,26.29,0,14.74,6.39,22.96,21.4,22.96,12.35,0,23.13-8.62,29.86-19.1,1.8,13.69,9.02,19.1,20.76,19.1,10.77,0,21.15-6.77,28.49-19.01,1.46-2.44,2.53-4.58,1.61-5.64-2.14-2.43-6.2-3.69-7.32-1.67-4.84,8.78-10.04,12.31-15.71,12.31-4.48,0-8.11-2.64-8.11-10.34,0-11.07,6.29-41.02,6.29-41.02,5.54-.2,11.7-.39,17.55-.52M242.22,261.89c-6.28,0-10.48-5.36-10.48-16,0-20.41,7.33-42.36,20.51-42.36,1.49,0,2.8.19,3.96.65-.21.79-.37,1.44-.43,1.81-1.98,11.58.43,18.95,6.01,23.03-2.86,17.92-10.86,32.87-19.57,32.87"/>
  </g>
  <g>
    <path class="cls-3" d="M155.47,355.48l4.56-40.8c.25-2.91,1.83-4.41,4.51-4.41h8.12c12.62,0,20.68,7.64,22,20.24,1.71,16.31-6.72,30.72-24.31,30.72h-10.49c-3.23,0-4.78-1.97-4.39-5.75ZM170.58,354.38c11.91,0,17.03-12.13,15.78-24.02-.89-8.51-5.88-13.23-14.01-13.23h-4.57l-4.06,37.26h6.86Z"/>
    <path class="cls-3" d="M199.96,357.77l3.76-34.11c.05-.32,1.1-.79,2.44-.79,1.58,0,3.17.87,3.69,2.84.38,1.34.34,3.23.2,4.96,1.65-5.28,4.42-8.27,8.28-8.27,3.08,0,5.27,2.13,5.53,4.65.45,4.33-3.03,5.75-3.11,5.67-.76-1.26-2.06-2.36-4.03-2.36-4.1,0-6.41,4.33-7.48,13.71l-1.56,13.71c-.29,2.52-1.19,3.7-3.4,3.7h-.79c-2.21,0-3.77-1.34-3.54-3.7Z"/>
    <path class="cls-3" d="M227.91,352.02l2.79-25.28c.34-2.76,1.25-3.86,3.15-3.86h1.42c1.66,0,3.58,1.02,3.24,3.86l-2.84,25.6c-.52,4.8,1.05,6.22,2.99,6.7.09.08-.26,2.83-3.96,2.83-4.97,0-7.49-3.78-6.79-9.85ZM231.63,312.32c-.38-3.62,1.72-5.43,4.4-5.43,2.44,0,4.49,1.42,4.78,4.25.37,3.54-1.72,5.43-4.4,5.43-2.44,0-4.49-1.5-4.78-4.25Z"/>
    <path class="cls-3" d="M276.19,326.58c.14,1.34-.15,2.28-1.17,4.65l-12.27,27.41c-1.07,2.6-3.48,2.92-5.53,2.92-2.37,0-4.64-.63-5.16-3.31l-4.81-24.02c-1.31-6.46-2.75-7.4-5-7.8-.17-.08.23-3.78,4.73-3.78,1.81,0,3.45.55,4.7,1.97,1.53,1.81,2.13,4.57,2.86,9.22l3.22,20.95,12.03-31.98c.05-.24,5.87-.39,6.39,3.78Z"/>
    <path class="cls-3" d="M278.95,346.82c-1.34-12.76,5.72-24.42,18.03-24.42,7.89,0,12.45,4.41,13.04,10,.7,6.7-3.04,12.37-17,12.37-1.97,0-4.35-.08-6.74-.31-.07.87-.06,1.65.04,2.6.55,5.28,3.6,8.74,8.72,8.74,4.1,0,6.96-2.05,8.48-5.59.87,0,4.06.32,4.37,3.31.18,1.73-.53,3.23-1.88,4.65-2.26,2.52-5.74,3.94-10.63,3.94-8.91,0-15.4-5.43-16.43-15.28ZM292.01,339.73c8.9-.16,11.32-3.39,10.96-6.77-.23-2.21-2.06-4.57-5.92-4.57-5.36,0-9.14,4.65-10.28,11.03,2.01.31,3.74.31,5.24.31Z"/>
  </g>
</svg>