<?xml version="1.0" encoding="UTF-8"?>
<svg id="Layer_1" data-name="Layer 1" xmlns="http://www.w3.org/2000/svg" viewBox="0 0 826.29 99.66">
  <defs>
    <style>
      .cls-1 {
        fill: #00c2e8;
      }

      .cls-2 {
        fill: #161840;
      }
    </style>
  </defs>
  <g>
    <path class="cls-1" d="M103.75.25c-3.16,0-5.96.16-7.34.3-2.76.28-3.7,2.88-3.5,5.44,2.91,37.02-5.32,80.1-14.69,80.1-6.97,0-8.92-20.13-8.92-38.04,0-10.59.61-20.78.86-29.79.09-3.34-1.13-3.97-3.57-4.27-3.7-.44-6.34-.44-10.01.36-2.8.61-3.46,2.89-6.41,9.83-14.69,34.58-28.86,62.35-28.86,62.35-3.75-27.84,1.06-54.84,5.16-74.55.57-2.71-.74-4.32-2.99-4.28-4.24.07-10.75.21-13.69,2.11-2.75,1.79-3.78,3.69-4.57,7.64C.67,40.01-2.28,68.33,2.29,90.22c.99,4.73,2.1,5.85,4.12,7.09,2.02,1.24,10.68,2.35,14.04,2.35,3.81,0,7.31-1.02,10.21-5.95,6.15-10.44,11.08-20.87,20.39-40.96.96,26.17,4.69,46.72,23.26,46.72,24.62,0,40.51-60.9,40.51-90.2,0-7.75-3.88-9.02-11.07-9.02"/>
    <path class="cls-1" d="M140.72,89.31c-5.46,0-9.12-4.66-9.12-13.91,0-17.74,6.38-36.83,17.83-36.83,1.29,0,2.43.17,3.44.57-.18.69-.32,1.25-.38,1.57-1.72,10.07.38,16.48,5.23,20.02-2.48,15.58-9.44,28.58-17.01,28.58M267.41,42.38c4.46-.1,7.62-1.45,8.39-5.64.46-2.5-1.02-4.09-3.89-4.22,0,0-8.32-.43-17.9-.85,0,0,1.94-10.53,2.88-14.82.47-2.1-.66-4.19-3.34-4.83-2.66-.64-8.78-.68-10.83-.45-1.71.19-3.38,1.21-3.77,2.97-.97,4.4-1.97,9.7-3.17,16.48-3.55-.08-7-.11-9.4-.07-2.24.04-3.29,1.17-3.75,2.99-.46,1.82-.83,4.42-.98,7.11-.11,2.04,2.13,3.01,4.44,2.93,0,0,2.84-.13,7.29-.34-.82,3.85-2.47,14.19-3.1,20.62-4.02,13.37-12.36,23.23-19.54,23.23-4.4,0-7.02-2.59-7.02-10.43,0-10.85,2.52-24.58,6.19-38.34,5.18-12.34,8.16-26.07,8.16-32.29,0-2.34-.72-4.96-3.55-5.51-5.11-1.01-9.97-.82-13.37.23-3.04.94-3.66,4.1-4.03,5.79-1.76,8.12-4.63,22.5-6.65,35.11-4.47,5.36-9.61,9.13-15.17,10.06-.86-16.7-10.68-23.87-24.2-23.87-23.74,0-38.88,20.94-38.88,44.45,0,19.04,10.49,26.98,25.77,26.98,18.04,0,31.46-12.67,36.47-35.92,5.1-1.02,9.54-3.49,13.36-6.9,0,0-2.88,14.4-2.88,22.85,0,12.82,5.55,19.96,18.6,19.96,10.73,0,20.1-7.5,25.96-16.6,1.57,11.9,7.84,16.6,18.05,16.6,9.37,0,18.38-5.88,24.76-16.52,1.27-2.12,2.2-3.98,1.4-4.9-1.85-2.11-5.39-3.2-6.36-1.45-4.21,7.63-8.73,10.7-13.66,10.7-3.89,0-7.05-2.29-7.05-8.99,0-9.63,5.47-35.66,5.47-35.66,4.82-.17,10.17-.34,15.26-.45"/>
  </g>
  <g>
    <path class="cls-2" d="M389.49,10.5l-13.19,83.11c-.55,3.31-1.9,4.89-4.92,4.89h-.86c-2.88,0-4.55-1.72-3.99-4.89l4.43-27.89,8.13-47.88-30.95,51.47c-1.45,2.45-2.81,4.03-6.55,4.03-4.46,0-4.99-1.87-5.55-4.46l-14.36-51.76-7.22,48.74-4.44,27.75c-.54,3.45-1.9,4.89-4.78,4.89h-1.01c-2.88,0-4.4-1.72-4-5.03l13.32-83.25c.53-3.59,2.73-5.61,6.03-5.61h3.16c3.45,0,4.82,1.44,5.58,4.89l14.68,52.48,31.75-52.62c2.1-3.74,3.63-4.74,6.51-4.74h3.45c3.31,0,5.3,2.44,4.77,5.9Z"/>
    <path class="cls-2" d="M396.75,72.32c-1.21-23.01,13.21-44.29,35.21-44.29,13.66,0,21.41,7.91,21.9,17.25.6,11.5-6.65,21.28-32.96,21.28-4.31,0-9.07-.14-14.42-.86-.33,2.01-.47,4.74-.36,6.76.6,11.36,6.75,18.98,18.1,18.98,8.63,0,14.87-4.31,18.25-11.21,1.01,0,5.21.58,5.4,4.31.12,2.3-1.05,4.6-3.36,7.19-4.49,4.89-11.24,7.76-20.3,7.76-16.25,0-26.57-10.35-27.45-27.17ZM419.96,59.81c19.83-.14,25.09-6.9,24.71-14.09-.24-4.6-4.26-9.92-13.03-9.92-11.93,0-20.9,10.06-24.09,23.15,4.78.72,8.82.86,12.41.86Z"/>
    <path class="cls-2" d="M460.98,93.6l10.31-63.84c.13-.29,1.26-.72,2.69-.72,2.59,0,5.1,1.29,5.07,6.18-.04,2.01-.19,4.6-.5,6.9,3.69-9.2,9.18-14.09,16.23-14.09,5.75,0,9.4,3.74,9.58,7.19.28,5.32-4.22,7.19-4.38,7.04-1.26-2.16-3.81-4.17-7.7-4.17-8.34,0-13.9,9.2-16.95,27.75l-4.58,27.75c-.4,3.31-1.76,4.89-4.49,4.89h-1.15c-2.59,0-4.54-1.58-4.14-4.89Z"/>
    <path class="cls-2" d="M506.91,70.02c-1.15-22,11.89-41.99,31.88-41.99,8.48,0,14.39,3.02,18.63,7.04,3.77,3.45,5.91,8.48,6.1,12.08.38,7.19-6.97,6.9-7.6,5.9-.61-8.92-6.19-16.68-16.83-16.68-14.38,0-23.22,17.83-22.39,33.65.73,13.95,8.44,21.14,18.65,21.14,8.77,0,14.05-6.33,16.86-13.08.41-.43,6.02-.29,6.27,4.46.14,2.73-1.4,6.18-4.82,9.49-3.82,3.88-10.1,7.48-18.3,7.48-14.95,0-27.39-9.63-28.43-29.48Z"/>
    <path class="cls-2" d="M614.76,89.43c-.2-3.74.66-9.35,2.27-17.11,2.05-10.21,3.19-15.96,2.93-20.85-.51-9.78-5.52-14.81-13.43-14.81-9.35,0-15.05,6.33-19.22,14.67l-6.58,41.84c-.66,3.88-1.88,5.32-4.75,5.32h-1.15c-2.44,0-4.67-1.29-4.02-5.32l14.06-88.28c.54-3.45,1.9-4.89,4.2-4.89h1.73c2.3,0,4.67,1.29,4,4.89l-5.88,35.95c4.62-7.91,11.55-12.8,20.75-12.8,12.08,0,19.71,8.48,20.35,20.71.32,6.18-.87,13.52-2.95,23.29-1.64,7.19-2.63,12.94-2.45,16.39.24,4.6,2.73,5.46,5.49,5.9.29,0-.18,4.74-5.79,4.74-5.18,0-9.24-3.45-9.56-9.63Z"/>
    <path class="cls-2" d="M641.55,71.32c-1.13-21.57,10.82-43.28,30.51-43.28,10.64,0,18.75,6.61,21.96,15.67.81-3.74,1.51-6.9,2.51-9.78,1.11-3.59,2.91-4.89,5.5-4.89,2.16,0,3.79,1.01,3.81,1.29l-8.72,53.06c-1.53,9.2,1.59,11.07,4.93,11.79.14,0-.37,3.88-5.26,3.88-4.46,0-8.47-2.44-9.05-8.05-.36-1.44-.31-3.16-.27-5.18-4.44,8.48-11.51,13.66-21,13.66-13.52,0-23.96-10.06-24.91-28.18ZM689.49,69.59l2.41-14.38c-1.1-10.07-7.89-18.84-18.24-18.84-14.38,0-23.04,18.55-22.2,34.51.66,12.65,7.83,20.42,17.46,20.42,10.93,0,18.59-10.21,20.57-21.71Z"/>
    <path class="cls-2" d="M767.81,99.07c-5.18,0-9.1-3.45-9.42-9.63-.2-3.74.66-9.35,2.27-17.11,1.82-9.2,3.03-16.25,2.77-21.28-.5-9.49-5.5-14.38-13.41-14.38-9.2,0-14.91,6.33-19.07,14.67l-6.72,41.84c-.52,3.88-1.73,5.32-4.75,5.32h-1.15c-2.3,0-4.52-1.29-4.02-5.32l10.19-63.41c-.02-.29,1.11-.72,2.55-.72,2.73,0,5.24,1.15,5.35,6.04.11,2.01-.07,4.17-.24,6.33,4.6-8.34,11.52-13.37,21.01-13.37,12.08,0,19.85,8.34,20.49,20.56.32,6.18-1.24,14.67-3.09,23.44-1.49,7.19-2.49,12.8-2.31,16.25.24,4.6,2.74,5.61,5.49,6.04.29,0-.18,4.74-5.93,4.74Z"/>
    <path class="cls-2" d="M790.8,76.92l6.28-39.25h-6.47c-2.44,0-3.65-1.01-3.74-2.73-.05-1.01.27-3.16,1.08-4.03.52-1.01,1.79-1.44,3.52-1.44h7.05l1.38-9.35c.83-6.18,3.33-7.76,6.78-7.76,2.59,0,4.08,1.01,4.1,1.44l-2.34,15.67h14.23c2.16,0,3.65,1.01,3.6,2.88.04.72-.19,1.87-.58,2.59-.61,2.01-2.16,2.73-3.88,2.73h-14.95l-6.06,37.96c-1.74,10.64,1.53,15.53,8.29,15.53,3.02,0,5.68-1.29,7.86-3.74.44.14,1.79,1.15,1.91,3.45.11,2.16-.67,3.74-2.31,5.32-2.19,2.16-5.58,3.31-9.75,3.31-11.5,0-18.26-8.2-15.99-22.57Z"/>
  </g>
</svg>