<?xml version="1.0" encoding="UTF-8"?>
<svg id="Layer_1" data-name="Layer 1" xmlns="http://www.w3.org/2000/svg" viewBox="0 0 1010.62 324.13">
  <defs>
    <style>
      .cls-1 {
        fill: #f8f8f8;
      }

      .cls-2 {
        fill: #00c2e8;
      }

      .cls-3 {
        fill: #161840;
      }
    </style>
  </defs>
  <path class="cls-1" d="M977,33.62C956.22,12.85,927.52,0,895.82,0H114.8c-31.7,0-60.4,12.85-81.17,33.62C12.85,54.4,0,83.1,0,114.8h0v94.53h0c0,31.7,12.85,60.4,33.62,81.17s49.47,33.62,81.17,33.62h781.02c31.7,0,60.4-12.85,81.17-33.62,20.77-20.77,33.62-49.47,33.62-81.17h0v-94.53h0c0-31.7-12.85-60.4-33.62-81.17Z"/>
  <g>
    <path class="cls-2" d="M199.97,72.9c-3.16,0-5.96.16-7.34.3-2.76.28-3.7,2.88-3.5,5.44,2.91,37.02-5.32,80.1-14.69,80.1-6.97,0-8.92-20.13-8.92-38.04,0-10.59.61-20.78.86-29.79.09-3.34-1.13-3.97-3.57-4.27-3.7-.44-6.34-.44-10.01.36-2.8.61-3.46,2.89-6.41,9.83-14.69,34.58-28.86,62.35-28.86,62.35-3.75-27.84,1.06-54.84,5.16-74.55.57-2.71-.74-4.32-2.99-4.28-4.24.07-10.75.21-13.69,2.11-2.75,1.79-3.78,3.69-4.57,7.64-4.54,22.57-7.5,50.88-2.93,72.78.99,4.73,2.1,5.85,4.12,7.09,2.02,1.24,10.68,2.35,14.04,2.35,3.81,0,7.31-1.02,10.21-5.95,6.15-10.44,11.08-20.87,20.39-40.96.96,26.17,4.69,46.72,23.26,46.72,24.62,0,40.51-60.9,40.51-90.2,0-7.75-3.88-9.02-11.07-9.02"/>
    <path class="cls-2" d="M236.94,161.96c-5.46,0-9.12-4.66-9.12-13.91,0-17.74,6.38-36.83,17.83-36.83,1.29,0,2.43.17,3.44.57-.18.69-.32,1.25-.38,1.57-1.72,10.07.38,16.48,5.23,20.02-2.48,15.58-9.44,28.58-17.01,28.58M363.63,115.04c4.46-.1,7.62-1.45,8.39-5.64.46-2.5-1.02-4.09-3.89-4.22,0,0-8.32-.43-17.9-.85,0,0,1.94-10.53,2.88-14.82.47-2.1-.66-4.19-3.34-4.83-2.66-.64-8.78-.68-10.83-.45-1.71.19-3.38,1.21-3.77,2.97-.97,4.4-1.97,9.7-3.17,16.48-3.55-.08-7-.11-9.4-.07-2.24.04-3.29,1.17-3.75,2.99-.46,1.82-.83,4.42-.98,7.11-.11,2.04,2.13,3.01,4.44,2.93,0,0,2.84-.13,7.29-.34-.82,3.85-2.47,14.19-3.1,20.62-4.02,13.37-12.36,23.23-19.54,23.23-4.4,0-7.02-2.59-7.02-10.43,0-10.85,2.52-24.58,6.19-38.34,5.18-12.34,8.16-26.07,8.16-32.29,0-2.34-.72-4.96-3.55-5.51-5.11-1.01-9.97-.82-13.37.23-3.04.94-3.66,4.1-4.03,5.79-1.76,8.12-4.63,22.5-6.65,35.11-4.47,5.36-9.61,9.13-15.17,10.06-.86-16.7-10.68-23.87-24.2-23.87-23.74,0-38.88,20.94-38.88,44.45,0,19.04,10.49,26.98,25.77,26.98,18.04,0,31.46-12.67,36.47-35.92,5.1-1.02,9.54-3.49,13.36-6.9,0,0-2.88,14.4-2.88,22.85,0,12.82,5.55,19.96,18.6,19.96,10.73,0,20.1-7.5,25.96-16.6,1.57,11.9,7.84,16.6,18.05,16.6,9.37,0,18.38-5.88,24.76-16.52,1.27-2.12,2.2-3.98,1.4-4.9-1.85-2.11-5.39-3.2-6.36-1.45-4.21,7.63-8.73,10.7-13.66,10.7-3.89,0-7.05-2.29-7.05-8.99,0-9.63,5.47-35.66,5.47-35.66,4.82-.17,10.17-.34,15.26-.45"/>
  </g>
  <g>
    <path class="cls-3" d="M481.67,83.15l-13.19,83.11c-.55,3.31-1.9,4.89-4.92,4.89h-.86c-2.88,0-4.55-1.72-3.99-4.89l4.43-27.89,8.13-47.88-30.95,51.47c-1.45,2.45-2.81,4.03-6.55,4.03-4.46,0-4.99-1.87-5.55-4.46l-14.36-51.76-7.22,48.74-4.44,27.75c-.54,3.45-1.9,4.89-4.78,4.89h-1.01c-2.88,0-4.4-1.72-4-5.03l13.32-83.25c.53-3.59,2.73-5.61,6.03-5.61h3.16c3.45,0,4.82,1.44,5.58,4.89l14.68,52.48,31.75-52.62c2.1-3.74,3.63-4.74,6.51-4.74h3.45c3.31,0,5.3,2.45,4.77,5.9Z"/>
    <path class="cls-3" d="M488.94,144.98c-1.21-23.01,13.21-44.29,35.21-44.29,13.66,0,21.41,7.91,21.9,17.25.6,11.5-6.65,21.28-32.96,21.28-4.31,0-9.07-.14-14.42-.86-.33,2.01-.47,4.74-.36,6.76.6,11.36,6.75,18.98,18.11,18.98,8.63,0,14.87-4.31,18.25-11.21,1.01,0,5.21.57,5.4,4.31.12,2.3-1.05,4.6-3.36,7.19-4.49,4.89-11.24,7.76-20.3,7.76-16.25,0-26.57-10.35-27.45-27.18ZM512.15,132.47c19.83-.14,25.09-6.9,24.71-14.09-.24-4.6-4.26-9.92-13.03-9.92-11.93,0-20.9,10.06-24.09,23.15,4.78.72,8.82.86,12.41.86Z"/>
    <path class="cls-3" d="M553.17,166.26l10.31-63.84c.13-.29,1.26-.72,2.69-.72,2.59,0,5.1,1.29,5.07,6.18-.04,2.01-.19,4.6-.5,6.9,3.69-9.2,9.18-14.09,16.23-14.09,5.75,0,9.4,3.74,9.58,7.19.28,5.32-4.22,7.19-4.38,7.04-1.26-2.16-3.81-4.17-7.69-4.17-8.34,0-13.9,9.2-16.95,27.75l-4.58,27.75c-.4,3.31-1.76,4.89-4.49,4.89h-1.15c-2.59,0-4.54-1.58-4.14-4.89Z"/>
    <path class="cls-3" d="M599.1,142.68c-1.15-22,11.89-41.98,31.88-41.98,8.48,0,14.39,3.02,18.63,7.04,3.78,3.45,5.91,8.48,6.1,12.08.38,7.19-6.97,6.9-7.6,5.89-.61-8.91-6.2-16.68-16.83-16.68-14.38,0-23.22,17.83-22.39,33.65.73,13.95,8.44,21.14,18.65,21.14,8.77,0,14.05-6.33,16.86-13.08.41-.43,6.03-.29,6.27,4.46.14,2.73-1.4,6.18-4.82,9.49-3.82,3.88-10.11,7.48-18.3,7.48-14.95,0-27.39-9.63-28.43-29.48Z"/>
    <path class="cls-3" d="M706.94,162.09c-.2-3.74.66-9.35,2.27-17.11,2.05-10.21,3.19-15.96,2.93-20.85-.51-9.78-5.52-14.81-13.43-14.81-9.35,0-15.05,6.33-19.22,14.67l-6.58,41.84c-.66,3.88-1.88,5.32-4.75,5.32h-1.15c-2.44,0-4.67-1.29-4.02-5.32l14.07-88.28c.54-3.45,1.9-4.89,4.2-4.89h1.73c2.3,0,4.67,1.29,3.99,4.89l-5.88,35.95c4.62-7.91,11.55-12.8,20.75-12.8,12.08,0,19.71,8.48,20.35,20.71.32,6.18-.87,13.52-2.95,23.29-1.63,7.19-2.63,12.94-2.45,16.39.24,4.6,2.73,5.46,5.49,5.9.29,0-.18,4.74-5.79,4.74-5.18,0-9.24-3.45-9.56-9.63Z"/>
    <path class="cls-3" d="M733.74,143.97c-1.13-21.57,10.81-43.28,30.51-43.28,10.64,0,18.75,6.61,21.96,15.67.81-3.74,1.51-6.9,2.51-9.78,1.11-3.59,2.91-4.89,5.5-4.89,2.16,0,3.79,1.01,3.81,1.29l-8.72,53.05c-1.53,9.2,1.59,11.07,4.93,11.79.14,0-.37,3.88-5.26,3.88-4.46,0-8.47-2.44-9.05-8.05-.36-1.44-.31-3.16-.27-5.18-4.44,8.48-11.51,13.66-21,13.66-13.52,0-23.96-10.06-24.91-28.18ZM781.68,142.25l2.41-14.38c-1.1-10.07-7.89-18.84-18.24-18.84-14.38,0-23.04,18.55-22.2,34.51.66,12.65,7.83,20.42,17.46,20.42,10.93,0,18.59-10.21,20.57-21.71Z"/>
    <path class="cls-3" d="M860,171.72c-5.18,0-9.1-3.45-9.42-9.63-.2-3.74.66-9.35,2.27-17.11,1.82-9.2,3.03-16.25,2.77-21.28-.5-9.49-5.5-14.38-13.41-14.38-9.2,0-14.91,6.33-19.07,14.67l-6.72,41.84c-.52,3.88-1.73,5.32-4.75,5.32h-1.15c-2.3,0-4.52-1.29-4.02-5.32l10.19-63.41c-.02-.29,1.11-.72,2.55-.72,2.73,0,5.24,1.15,5.35,6.04.11,2.01-.07,4.17-.24,6.33,4.59-8.34,11.52-13.37,21.01-13.37,12.08,0,19.85,8.34,20.49,20.56.32,6.18-1.24,14.67-3.08,23.44-1.49,7.19-2.49,12.8-2.31,16.25.24,4.6,2.74,5.61,5.49,6.04.29,0-.18,4.74-5.93,4.74Z"/>
    <path class="cls-3" d="M882.99,149.58l6.28-39.25h-6.47c-2.44,0-3.65-1.01-3.74-2.73-.05-1.01.27-3.16,1.08-4.03.52-1.01,1.79-1.44,3.52-1.44h7.05l1.38-9.35c.83-6.18,3.33-7.77,6.78-7.77,2.59,0,4.08,1.01,4.1,1.44l-2.34,15.67h14.24c2.16,0,3.65,1.01,3.6,2.88.04.72-.19,1.87-.58,2.59-.61,2.01-2.16,2.73-3.88,2.73h-14.95l-6.06,37.96c-1.74,10.64,1.53,15.53,8.29,15.53,3.02,0,5.68-1.29,7.86-3.74.44.14,1.79,1.15,1.91,3.45.11,2.16-.67,3.74-2.31,5.32-2.19,2.16-5.58,3.31-9.75,3.31-11.5,0-18.26-8.2-15.99-22.57Z"/>
  </g>
  <g>
    <path class="cls-3" d="M291.62,251.03c-.4,0-.79-.11-1.15-.33-.37-.22-.65-.5-.85-.85-.2-.35-.3-.72-.3-1.13v-30.91c0-.7.22-1.26.66-1.71s.97-.66,1.59-.66h8.58c4.07,0,7.54.71,10.42,2.12,2.88,1.41,5.09,3.44,6.63,6.08s2.31,5.81,2.31,9.51-.78,6.89-2.34,9.57c-1.56,2.68-3.8,4.73-6.74,6.16-2.93,1.43-6.45,2.14-10.56,2.14h-8.25ZM299.98,247.46c3.26,0,6.03-.56,8.31-1.68,2.27-1.12,4.01-2.75,5.22-4.9,1.21-2.14,1.81-4.7,1.81-7.67s-.6-5.51-1.81-7.62c-1.21-2.11-2.95-3.73-5.22-4.87-2.27-1.14-5-1.71-8.2-1.71h-6.71v28.43h6.6Z"/>
    <path class="cls-3" d="M337.32,251.64c-2.71,0-5.09-.58-7.12-1.73-2.03-1.16-3.62-2.76-4.76-4.81-1.14-2.05-1.71-4.4-1.71-7.04s.57-5,1.71-7.1c1.14-2.09,2.7-3.74,4.7-4.95,2-1.21,4.26-1.82,6.79-1.82s4.66.55,6.49,1.65c1.83,1.1,3.26,2.62,4.29,4.56,1.03,1.94,1.54,4.2,1.54,6.77v.38c0,.48-.11.8-.33.96s-.57.25-1.04.25h-20.46c0,.15,0,.28.03.41.02.13.03.27.03.41.22,1.76.77,3.3,1.65,4.62.88,1.32,2.03,2.35,3.44,3.08,1.41.73,3.02,1.1,4.81,1.1,1.69,0,3.11-.23,4.26-.69,1.16-.46,2.1-1.05,2.83-1.79.73-.73,1.32-1.52,1.76-2.36.04-.04.17-.03.38.03.22.05.47.16.74.3s.51.37.71.66c.2.29.3.66.3,1.1,0,.4-.18.9-.55,1.49-.37.59-.94,1.19-1.71,1.81-.88.7-2.05,1.32-3.52,1.87-1.47.55-3.23.83-5.28.83ZM345.35,235.85c-.07-1.69-.48-3.17-1.21-4.46-.73-1.28-1.7-2.27-2.91-2.97-1.21-.7-2.64-1.04-4.29-1.04s-3.14.36-4.46,1.07-2.41,1.71-3.27,3c-.86,1.28-1.42,2.75-1.68,4.4h17.82Z"/>
    <path class="cls-3" d="M355.58,251.2c-.51,0-.94-.13-1.27-.38-.33-.26-.49-.75-.49-1.49v-35.36c0-.07.14-.17.41-.28.27-.11.6-.17.96-.17.44,0,.85.1,1.24.3.39.2.7.55.94,1.04.24.5.36,1.22.36,2.17v32.29c0,.73-.16,1.23-.47,1.49-.31.26-.72.38-1.24.38h-.44Z"/>
    <path class="cls-3" d="M367.3,218.97c-.81,0-1.42-.22-1.84-.66-.42-.44-.63-1.04-.63-1.82s.22-1.43.66-1.87c.44-.44,1.06-.66,1.87-.66s1.42.22,1.84.66c.42.44.63,1.06.63,1.87s-.22,1.38-.66,1.82c-.44.44-1.06.66-1.87.66ZM367.08,251.2c-.51,0-.94-.13-1.27-.38-.33-.26-.49-.75-.49-1.49v-22.82c0-.73.17-1.24.49-1.51.33-.28.75-.41,1.27-.41h.44c.51,0,.93.13,1.24.39.31.26.47.77.47,1.54v22.82c0,.73-.16,1.23-.47,1.49-.31.26-.72.38-1.24.38h-.44Z"/>
    <path class="cls-3" d="M385.83,251.31c-.51,0-.94-.04-1.27-.11s-.58-.2-.74-.38c-.17-.18-.32-.44-.47-.77l-9.9-24.31c0-.11.08-.26.25-.44.17-.18.4-.35.71-.49.31-.15.69-.22,1.13-.22.51,0,.98.17,1.4.52.42.35.82,1,1.18,1.95l7.7,20.46,7.86-20.46c.37-.99.77-1.65,1.21-1.98s.92-.5,1.43-.5c.37,0,.7.08.99.25.29.17.52.33.69.5s.23.3.19.41l-9.79,24.2c-.11.33-.27.6-.5.8-.22.2-.5.35-.83.44-.33.09-.75.14-1.26.14Z"/>
    <path class="cls-3" d="M413.22,251.64c-2.71,0-5.09-.58-7.12-1.73-2.03-1.16-3.62-2.76-4.76-4.81-1.14-2.05-1.71-4.4-1.71-7.04s.57-5,1.71-7.1c1.14-2.09,2.7-3.74,4.7-4.95,2-1.21,4.26-1.82,6.79-1.82s4.66.55,6.49,1.65c1.83,1.1,3.26,2.62,4.29,4.56,1.03,1.94,1.54,4.2,1.54,6.77v.38c0,.48-.11.8-.33.96s-.57.25-1.04.25h-20.46c0,.15,0,.28.03.41.02.13.03.27.03.41.22,1.76.77,3.3,1.65,4.62.88,1.32,2.03,2.35,3.44,3.08,1.41.73,3.02,1.1,4.81,1.1,1.69,0,3.11-.23,4.26-.69,1.16-.46,2.1-1.05,2.83-1.79.73-.73,1.32-1.52,1.76-2.36.04-.04.17-.03.38.03.22.05.47.16.74.3s.51.37.71.66c.2.29.3.66.3,1.1,0,.4-.18.9-.55,1.49-.37.59-.94,1.19-1.71,1.81-.88.7-2.05,1.32-3.52,1.87-1.47.55-3.23.83-5.28.83ZM421.25,235.85c-.07-1.69-.48-3.17-1.21-4.46-.73-1.28-1.7-2.27-2.91-2.97-1.21-.7-2.64-1.04-4.29-1.04s-3.14.36-4.46,1.07-2.41,1.71-3.27,3c-.86,1.28-1.42,2.75-1.68,4.4h17.82Z"/>
    <path class="cls-3" d="M431.43,251.2c-.51,0-.94-.13-1.27-.38s-.49-.75-.49-1.49v-24.31s.14-.12.41-.25c.28-.13.61-.19,1.02-.19.51,0,1.01.17,1.48.52.48.35.77,1.05.88,2.12.04.44.06.88.08,1.32.02.44.03.9.03,1.38l.06,9.08v10.34c0,.73-.17,1.23-.5,1.49s-.75.38-1.27.38h-.44ZM432.58,233.21l.99-3.3c.55-1.91,1.42-3.34,2.61-4.29,1.19-.95,2.65-1.43,4.37-1.43.77,0,1.45.12,2.04.36.59.24,1.05.57,1.4.99.35.42.52.91.52,1.46,0,.4-.06.73-.19.99-.13.26-.26.48-.39.66-.13.18-.26.3-.38.36-.13.05-.21.06-.25.03-.37-.29-.82-.54-1.35-.74-.53-.2-1.16-.3-1.9-.3-2.24,0-3.87,1.01-4.9,3.03-1.03,2.02-1.54,4.67-1.54,7.97l-1.05-5.77Z"/>
    <path class="cls-3" d="M449.85,218.97c-.81,0-1.42-.22-1.84-.66-.42-.44-.63-1.04-.63-1.82s.22-1.43.66-1.87c.44-.44,1.06-.66,1.87-.66s1.42.22,1.84.66c.42.44.63,1.06.63,1.87s-.22,1.38-.66,1.82c-.44.44-1.06.66-1.87.66ZM449.63,251.2c-.51,0-.94-.13-1.27-.38-.33-.26-.49-.75-.49-1.49v-22.82c0-.73.17-1.24.49-1.51.33-.28.75-.41,1.27-.41h.44c.51,0,.93.13,1.24.39.31.26.47.77.47,1.54v22.82c0,.73-.16,1.23-.47,1.49-.31.26-.72.38-1.24.38h-.44Z"/>
    <path class="cls-3" d="M460.91,251.2c-.51,0-.94-.13-1.27-.38s-.49-.75-.49-1.49v-24.31s.14-.12.41-.25c.28-.13.61-.19,1.02-.19.59,0,1.14.22,1.65.66.51.44.79,1.36.83,2.75v1.92l-.11-.5c.92-1.54,2.15-2.79,3.71-3.77,1.56-.97,3.38-1.46,5.47-1.46,2.35,0,4.28.49,5.8,1.46,1.52.97,2.66,2.32,3.41,4.04.75,1.72,1.13,3.72,1.13,6v13.64c0,.73-.17,1.23-.49,1.49-.33.26-.75.38-1.27.38h-.39c-.51,0-.93-.13-1.26-.38s-.5-.75-.5-1.49v-13.25c0-2.57-.61-4.59-1.84-6.08-1.23-1.49-2.98-2.23-5.25-2.23-1.94,0-3.64.5-5.09,1.49-1.45.99-2.54,2.29-3.27,3.9v16.17c0,.73-.17,1.23-.5,1.49s-.75.38-1.27.38h-.44Z"/>
    <path class="cls-3" d="M500.78,261.92c-2.2,0-4.08-.29-5.64-.88-1.56-.59-2.83-1.28-3.82-2.09-.7-.59-1.24-1.19-1.62-1.81-.39-.62-.58-1.17-.58-1.65,0-.44.1-.82.3-1.13.2-.31.41-.56.63-.74.26-.15.49-.26.69-.33.2-.07.32-.07.36,0,.51.95,1.19,1.82,2.04,2.61.84.79,1.89,1.42,3.13,1.9,1.25.48,2.73.71,4.45.71,2.93,0,5.14-.76,6.63-2.28s2.23-3.79,2.23-6.79v-4.01c-.66,1.06-1.47,1.99-2.42,2.78-.95.79-2.04,1.39-3.27,1.81-1.23.42-2.61.63-4.15.63-2.35,0-4.46-.54-6.33-1.62s-3.34-2.61-4.4-4.59c-1.06-1.98-1.6-4.31-1.6-6.99s.55-4.85,1.65-6.85c1.1-2,2.59-3.57,4.48-4.7,1.89-1.14,4.02-1.71,6.41-1.71s4.35.48,6.02,1.43c1.67.95,2.89,2.11,3.66,3.47,0-.29,0-.6.03-.91.02-.31.03-.61.03-.91.11-1.06.4-1.78.88-2.14.48-.37.99-.55,1.54-.55.37,0,.69.06.96.19.28.13.41.21.41.25v22.93c0,3.12-.44,5.71-1.32,7.78-.88,2.07-2.25,3.62-4.12,4.65-1.87,1.03-4.29,1.54-7.26,1.54ZM500.4,247.4c1.65,0,3.17-.36,4.56-1.07s2.5-1.7,3.33-2.94c.83-1.25,1.26-2.66,1.29-4.24v-5.5c-.73-1.87-1.86-3.36-3.38-4.48-1.52-1.12-3.42-1.68-5.69-1.68-1.83,0-3.44.43-4.81,1.29-1.38.86-2.46,2.04-3.25,3.52-.79,1.49-1.18,3.2-1.18,5.14s.39,3.72,1.15,5.23c.77,1.5,1.83,2.67,3.19,3.49,1.36.83,2.95,1.24,4.79,1.24Z"/>
    <path class="cls-3" d="M539.01,251.64c-2.16,0-4.01-.27-5.55-.8s-2.73-1.16-3.58-1.9c-.59-.51-1.01-.99-1.27-1.43-.26-.44-.38-.86-.38-1.27,0-.48.13-.85.38-1.13.26-.28.54-.49.85-.63.31-.15.49-.2.52-.17.84,1.21,2.01,2.22,3.49,3.03,1.48.81,3.33,1.21,5.53,1.21s3.83-.4,5-1.21c1.17-.81,1.76-1.87,1.76-3.19,0-1.06-.31-1.87-.93-2.42-.62-.55-1.5-1-2.61-1.35-1.12-.35-2.45-.67-3.99-.96-1.03-.22-2.07-.48-3.13-.77-1.06-.29-2.06-.7-3-1.21-.94-.51-1.69-1.2-2.25-2.06-.57-.86-.85-1.95-.85-3.27,0-1.58.41-2.95,1.24-4.12.83-1.17,2-2.1,3.52-2.78,1.52-.68,3.31-1.02,5.36-1.02,2.27,0,4.15.31,5.64.94,1.49.62,2.58,1.36,3.27,2.2.26.29.46.62.61.96.15.35.22.67.22.96,0,.44-.14.82-.41,1.13-.28.31-.56.53-.85.66-.29.13-.46.17-.5.14-.51-.77-1.17-1.44-1.95-2.01-.79-.57-1.68-1.02-2.67-1.35s-2.09-.5-3.3-.5c-2.05,0-3.65.4-4.79,1.21-1.14.81-1.71,1.83-1.71,3.08,0,.99.29,1.76.88,2.31.59.55,1.42.98,2.5,1.29,1.08.31,2.37.63,3.88.96,1.06.22,2.15.49,3.27.8,1.12.31,2.16.73,3.14,1.27.97.53,1.75,1.24,2.34,2.12.59.88.88,1.98.88,3.3,0,2.38-.94,4.31-2.83,5.78-1.89,1.47-4.46,2.2-7.73,2.2Z"/>
    <path class="cls-3" d="M564.25,251.64c-2.27,0-4.18-.49-5.72-1.46-1.54-.97-2.69-2.32-3.44-4.04-.75-1.72-1.13-3.72-1.13-6v-13.64c0-.73.17-1.24.5-1.51.33-.28.73-.41,1.21-.41h.5c.51,0,.93.13,1.24.39s.47.77.47,1.54v13.25c0,2.6.62,4.65,1.87,6.13,1.25,1.49,3.03,2.23,5.33,2.23,1.94,0,3.62-.5,5.03-1.51,1.41-1.01,2.5-2.32,3.27-3.93l1.16,2.03-1.16,1.87c-.88,1.47-2.08,2.68-3.6,3.63-1.52.95-3.36,1.43-5.53,1.43ZM575.91,251.2c-.55,0-1.05-.17-1.51-.5-.46-.33-.76-1.01-.91-2.04,0-.33-.02-.67-.05-1.02-.04-.35-.06-.71-.06-1.07v-20.07c0-.73.16-1.24.47-1.51.31-.28.72-.41,1.24-.41h.44c.51,0,.93.13,1.26.39s.5.77.5,1.54v24.31s-.14.11-.41.22c-.28.11-.6.17-.96.17Z"/>
    <path class="cls-3" d="M595.93,251.64c-2.6,0-4.92-.6-6.96-1.79-2.04-1.19-3.63-2.82-4.79-4.89-1.15-2.07-1.73-4.43-1.73-7.07s.58-4.99,1.73-7.04c1.16-2.05,2.75-3.68,4.79-4.87,2.04-1.19,4.35-1.79,6.96-1.79,2.09,0,3.86.31,5.31.94s2.63,1.34,3.55,2.14c.77.73,1.35,1.48,1.73,2.23.38.75.58,1.38.58,1.9,0,.4-.12.73-.36.99-.24.26-.51.46-.83.6-.31.15-.59.23-.82.25-.24.02-.38,0-.41-.03-.4-1.03-.97-1.96-1.71-2.81-.73-.84-1.67-1.53-2.8-2.06-1.14-.53-2.53-.8-4.18-.8-1.87,0-3.54.46-5,1.38-1.47.92-2.62,2.14-3.46,3.68-.84,1.54-1.27,3.3-1.27,5.28s.41,3.71,1.24,5.31c.83,1.59,1.97,2.84,3.44,3.74,1.47.9,3.15,1.35,5.06,1.35,1.65,0,3.04-.26,4.18-.77,1.14-.51,2.07-1.2,2.8-2.06s1.3-1.79,1.71-2.78c.04-.07.17-.09.41-.06.24.04.51.12.82.25.31.13.59.33.83.6.24.28.36.63.36,1.07s-.19,1.05-.58,1.82c-.38.77-.98,1.52-1.79,2.25-.92.84-2.1,1.56-3.55,2.15-1.45.59-3.2.88-5.25.88Z"/>
    <path class="cls-3" d="M623.76,251.64c-2.6,0-4.92-.6-6.96-1.79-2.04-1.19-3.63-2.82-4.79-4.89-1.15-2.07-1.73-4.43-1.73-7.07s.58-4.99,1.73-7.04c1.16-2.05,2.75-3.68,4.79-4.87,2.04-1.19,4.35-1.79,6.96-1.79,2.09,0,3.86.31,5.31.94s2.63,1.34,3.55,2.14c.77.73,1.35,1.48,1.73,2.23.38.75.58,1.38.58,1.9,0,.4-.12.73-.36.99-.24.26-.51.46-.83.6-.31.15-.59.23-.82.25-.24.02-.38,0-.41-.03-.4-1.03-.97-1.96-1.71-2.81-.73-.84-1.67-1.53-2.8-2.06-1.14-.53-2.53-.8-4.18-.8-1.87,0-3.54.46-5,1.38-1.47.92-2.62,2.14-3.46,3.68-.84,1.54-1.27,3.3-1.27,5.28s.41,3.71,1.24,5.31c.83,1.59,1.97,2.84,3.44,3.74,1.47.9,3.15,1.35,5.06,1.35,1.65,0,3.04-.26,4.18-.77,1.14-.51,2.07-1.2,2.8-2.06s1.3-1.79,1.71-2.78c.04-.07.17-.09.41-.06.24.04.51.12.82.25.31.13.59.33.83.6.24.28.36.63.36,1.07s-.19,1.05-.58,1.82c-.38.77-.98,1.52-1.79,2.25-.92.84-2.1,1.56-3.55,2.15-1.45.59-3.2.88-5.25.88Z"/>
    <path class="cls-3" d="M651.7,251.64c-2.71,0-5.09-.58-7.12-1.73-2.04-1.16-3.62-2.76-4.76-4.81-1.14-2.05-1.71-4.4-1.71-7.04s.57-5,1.71-7.1c1.14-2.09,2.7-3.74,4.7-4.95s4.26-1.82,6.79-1.82,4.66.55,6.49,1.65c1.83,1.1,3.26,2.62,4.29,4.56,1.03,1.94,1.54,4.2,1.54,6.77v.38c0,.48-.11.8-.33.96-.22.17-.57.25-1.04.25h-20.46c0,.15,0,.28.03.41.02.13.03.27.03.41.22,1.76.77,3.3,1.65,4.62.88,1.32,2.03,2.35,3.44,3.08,1.41.73,3.02,1.1,4.81,1.1,1.69,0,3.11-.23,4.26-.69,1.16-.46,2.1-1.05,2.83-1.79s1.32-1.52,1.76-2.36c.04-.04.17-.03.38.03s.47.16.74.3c.28.15.51.37.72.66.2.29.3.66.3,1.1,0,.4-.18.9-.55,1.49-.37.59-.93,1.19-1.71,1.81-.88.7-2.05,1.32-3.52,1.87-1.47.55-3.23.83-5.28.83ZM659.73,235.85c-.07-1.69-.48-3.17-1.21-4.46-.73-1.28-1.71-2.27-2.92-2.97s-2.64-1.04-4.29-1.04-3.13.36-4.46,1.07-2.41,1.71-3.27,3c-.86,1.28-1.42,2.75-1.68,4.4h17.82Z"/>
    <path class="cls-3" d="M677.72,251.64c-2.16,0-4.01-.27-5.55-.8s-2.73-1.16-3.58-1.9c-.59-.51-1.01-.99-1.27-1.43-.26-.44-.38-.86-.38-1.27,0-.48.13-.85.38-1.13.26-.28.54-.49.85-.63.31-.15.49-.2.52-.17.84,1.21,2.01,2.22,3.49,3.03,1.48.81,3.33,1.21,5.53,1.21s3.83-.4,5-1.21c1.17-.81,1.76-1.87,1.76-3.19,0-1.06-.31-1.87-.93-2.42-.62-.55-1.5-1-2.61-1.35-1.12-.35-2.45-.67-3.99-.96-1.03-.22-2.07-.48-3.13-.77-1.06-.29-2.06-.7-3-1.21-.94-.51-1.69-1.2-2.25-2.06-.57-.86-.85-1.95-.85-3.27,0-1.58.41-2.95,1.24-4.12.83-1.17,2-2.1,3.52-2.78,1.52-.68,3.31-1.02,5.36-1.02,2.27,0,4.15.31,5.64.94,1.49.62,2.58,1.36,3.27,2.2.26.29.46.62.61.96.15.35.22.67.22.96,0,.44-.14.82-.41,1.13-.28.31-.56.53-.85.66-.29.13-.46.17-.5.14-.51-.77-1.17-1.44-1.95-2.01-.79-.57-1.68-1.02-2.67-1.35s-2.09-.5-3.3-.5c-2.05,0-3.65.4-4.79,1.21-1.14.81-1.71,1.83-1.71,3.08,0,.99.29,1.76.88,2.31.59.55,1.42.98,2.5,1.29,1.08.31,2.37.63,3.88.96,1.06.22,2.15.49,3.27.8,1.12.31,2.16.73,3.14,1.27.97.53,1.75,1.24,2.34,2.12.59.88.88,1.98.88,3.3,0,2.38-.94,4.31-2.83,5.78-1.89,1.47-4.46,2.2-7.73,2.2Z"/>
    <path class="cls-3" d="M702.57,251.64c-2.16,0-4.01-.27-5.55-.8s-2.73-1.16-3.58-1.9c-.59-.51-1.01-.99-1.27-1.43-.26-.44-.38-.86-.38-1.27,0-.48.13-.85.38-1.13.26-.28.54-.49.85-.63.31-.15.49-.2.52-.17.84,1.21,2.01,2.22,3.49,3.03,1.48.81,3.33,1.21,5.53,1.21s3.83-.4,5-1.21c1.17-.81,1.76-1.87,1.76-3.19,0-1.06-.31-1.87-.93-2.42-.62-.55-1.5-1-2.61-1.35-1.12-.35-2.45-.67-3.99-.96-1.03-.22-2.07-.48-3.13-.77-1.06-.29-2.06-.7-3-1.21-.94-.51-1.69-1.2-2.25-2.06-.57-.86-.85-1.95-.85-3.27,0-1.58.41-2.95,1.24-4.12.83-1.17,2-2.1,3.52-2.78,1.52-.68,3.31-1.02,5.36-1.02,2.27,0,4.15.31,5.64.94,1.49.62,2.58,1.36,3.27,2.2.26.29.46.62.61.96.15.35.22.67.22.96,0,.44-.14.82-.41,1.13-.28.31-.56.53-.85.66-.29.13-.46.17-.5.14-.51-.77-1.17-1.44-1.95-2.01-.79-.57-1.68-1.02-2.67-1.35s-2.09-.5-3.3-.5c-2.05,0-3.65.4-4.79,1.21-1.14.81-1.71,1.83-1.71,3.08,0,.99.29,1.76.88,2.31.59.55,1.42.98,2.5,1.29,1.08.31,2.37.63,3.88.96,1.06.22,2.15.49,3.27.8,1.12.31,2.16.73,3.14,1.27.97.53,1.75,1.24,2.34,2.12.59.88.88,1.98.88,3.3,0,2.38-.94,4.31-2.83,5.78-1.89,1.47-4.46,2.2-7.73,2.2Z"/>
    <path class="cls-3" d="M719.73,251.36c-.77,0-1.37-.21-1.79-.63-.42-.42-.63-1.02-.63-1.79v-.5c0-.77.2-1.37.61-1.79.4-.42.99-.63,1.76-.63h.55c.81,0,1.42.21,1.84.63.42.42.63,1.02.63,1.79v.5c0,.77-.21,1.37-.63,1.79s-1.04.63-1.84.63h-.5Z"/>
  </g>
</svg>