<?xml version="1.0" encoding="UTF-8"?>
<svg id="Layer_1" data-name="Layer 1" xmlns="http://www.w3.org/2000/svg" viewBox="0 0 884.62 229.6">
  <defs>
    <style>
      .cls-1 {
        fill: #f8f8f8;
      }

      .cls-2 {
        fill: #00c2e8;
      }

      .cls-3 {
        fill: #161840;
      }
    </style>
  </defs>
  <path class="cls-1" d="M114.8,229.6h144.28s510.74,0,510.74,0c31.7,0,60.4-12.85,81.17-33.62,20.77-20.77,33.62-49.47,33.62-81.17h0c0-31.7-12.85-60.4-33.62-81.17C830.22,12.85,801.52,0,769.82,0h-510.74s-144.28,0-144.28,0c-31.7,0-60.4,12.85-81.17,33.62C12.85,54.4,0,83.1,0,114.8h0c0,31.7,12.85,60.4,33.62,81.17,20.77,20.77,49.47,33.62,81.17,33.62Z"/>
  <g>
    <path class="cls-2" d="M199.97,62.9c-3.16,0-5.96.16-7.34.3-2.76.28-3.7,2.88-3.5,5.44,2.91,37.02-5.32,80.1-14.69,80.1-6.97,0-8.92-20.13-8.92-38.04,0-10.59.61-20.78.86-29.79.09-3.34-1.13-3.97-3.57-4.27-3.7-.44-6.34-.44-10.01.36-2.8.61-3.46,2.89-6.41,9.83-14.69,34.58-28.86,62.35-28.86,62.35-3.75-27.84,1.06-54.84,5.16-74.55.57-2.71-.74-4.32-2.99-4.28-4.24.07-10.75.21-13.69,2.11-2.75,1.79-3.78,3.69-4.57,7.64-4.54,22.57-7.5,50.88-2.93,72.78.99,4.73,2.1,5.85,4.12,7.09,2.02,1.24,10.68,2.35,14.04,2.35,3.81,0,7.31-1.02,10.21-5.95,6.15-10.44,11.08-20.87,20.39-40.96.96,26.17,4.69,46.72,23.26,46.72,24.62,0,40.51-60.9,40.51-90.2,0-7.75-3.88-9.02-11.07-9.02"/>
    <path class="cls-2" d="M236.94,151.96c-5.46,0-9.12-4.66-9.12-13.91,0-17.74,6.38-36.83,17.83-36.83,1.29,0,2.43.17,3.44.57-.18.69-.32,1.25-.38,1.57-1.72,10.07.38,16.48,5.23,20.02-2.48,15.58-9.44,28.58-17.01,28.58M363.63,105.04c4.46-.1,7.62-1.45,8.39-5.64.46-2.5-1.02-4.09-3.89-4.22,0,0-8.32-.43-17.9-.85,0,0,1.94-10.53,2.88-14.82.47-2.1-.66-4.19-3.34-4.83-2.66-.64-8.78-.68-10.83-.45-1.71.19-3.38,1.21-3.77,2.97-.97,4.4-1.97,9.7-3.17,16.48-3.55-.08-7-.11-9.4-.07-2.24.04-3.29,1.17-3.75,2.99-.46,1.82-.83,4.42-.98,7.11-.11,2.04,2.13,3.01,4.44,2.93,0,0,2.84-.13,7.29-.34-.82,3.85-2.47,14.19-3.1,20.62-4.02,13.37-12.36,23.23-19.54,23.23-4.4,0-7.02-2.59-7.02-10.43,0-10.85,2.52-24.58,6.19-38.34,5.18-12.34,8.16-26.07,8.16-32.29,0-2.34-.72-4.96-3.55-5.51-5.11-1.01-9.97-.82-13.37.23-3.04.94-3.66,4.1-4.03,5.79-1.76,8.12-4.63,22.5-6.65,35.11-4.47,5.36-9.61,9.13-15.17,10.06-.86-16.7-10.68-23.87-24.2-23.87-23.74,0-38.88,20.94-38.88,44.45,0,19.04,10.49,26.98,25.77,26.98,18.04,0,31.46-12.67,36.47-35.92,5.1-1.02,9.54-3.49,13.36-6.9,0,0-2.88,14.4-2.88,22.85,0,12.82,5.55,19.96,18.6,19.96,10.73,0,20.1-7.5,25.96-16.6,1.57,11.9,7.84,16.6,18.05,16.6,9.37,0,18.38-5.88,24.76-16.52,1.27-2.12,2.2-3.98,1.4-4.9-1.85-2.11-5.39-3.2-6.36-1.45-4.21,7.63-8.73,10.7-13.66,10.7-3.89,0-7.05-2.29-7.05-8.99,0-9.63,5.47-35.66,5.47-35.66,4.82-.17,10.17-.34,15.26-.45"/>
  </g>
  <g>
    <path class="cls-3" d="M394.79,124.48c-1.61-30.77,16.07-58.23,42.53-58.23,11.07,0,18.33,4.03,23.03,8.63,4.4,4.31,6.73,10.35,6.93,14.23.42,8.05-7.96,7.33-8.27,6.76-1.5-12.08-8.56-20.71-21.65-20.71-19.84,0-33.23,24.44-31.92,49.46.93,17.69,10.98,28.47,25.65,28.47,13.08,0,19.94-9.06,22.93-17.83.4-.58,6.86-.86,7.17,5.03.14,2.73-1.62,7.48-5.97,12.22-5.31,5.75-13.44,9.63-23.79,9.63-19.99,0-35.34-13.08-36.63-37.67Z"/>
    <path class="cls-3" d="M473.64,133.97c-1.13-21.57,10.82-43.28,30.51-43.28,10.64,0,18.75,6.61,21.96,15.67.81-3.74,1.51-6.9,2.51-9.78,1.11-3.59,2.91-4.89,5.5-4.89,2.16,0,3.79,1.01,3.81,1.29l-8.72,53.06c-1.53,9.2,1.59,11.07,4.93,11.79.14,0-.37,3.88-5.26,3.88-4.46,0-8.47-2.44-9.05-8.05-.36-1.44-.31-3.16-.27-5.18-4.44,8.48-11.51,13.66-21,13.66-13.52,0-23.96-10.06-24.91-28.18ZM521.58,132.25l2.41-14.38c-1.1-10.07-7.89-18.84-18.24-18.84-14.38,0-23.04,18.55-22.2,34.51.66,12.65,7.83,20.42,17.46,20.42,10.93,0,18.59-10.21,20.57-21.71Z"/>
    <path class="cls-3" d="M542.05,182.72l14.39-90.3c.12-.43,1.11-.72,2.55-.72,3.31,0,5.14,2.01,5.35,6.04.1,1.87-.08,3.88-.4,6.04,4.33-7.91,11.25-13.08,20.88-13.08,12.8,0,24.06,9.2,25.04,27.89,1.14,21.71-10.94,43.57-30.21,43.57-11.36,0-19.08-7.33-21.97-15.96l-5.71,36.52c-.67,3.74-2.02,5.32-4.75,5.32h-1.01c-2.59,0-4.82-1.44-4.16-5.32ZM599.86,119.74c-.72-13.66-8.43-20.85-17.77-20.85s-15.6,6.9-19.29,16.1l-2.54,14.67c-1.83,11.65,5,24.16,17.66,24.16,14.23,0,22.77-18.12,21.94-34.08Z"/>
    <path class="cls-3" d="M621.64,145.76l7.91-49.32c.68-3.45,1.91-4.74,4.21-4.74h1.73c2.16,0,4.66,1.15,3.99,4.74l-7.9,49.61c-1.4,9.06,2.17,11.22,5.36,11.79.14,0-.08,3.88-5.26,3.88-7.19,0-11.78-5.32-10.04-15.96ZM632.14,71.86c-.22-4.17,2.35-7.19,6.52-7.19,3.74,0,6.14,2.01,6.33,5.46.22,4.17-2.2,7.48-6.51,7.48-3.59,0-6.15-2.16-6.34-5.75Z"/>
    <path class="cls-3" d="M655.67,139.58l6.28-39.25h-6.47c-2.44,0-3.65-1.01-3.74-2.73-.05-1.01.27-3.16,1.08-4.03.52-1.01,1.79-1.44,3.52-1.44h7.05l1.38-9.35c.83-6.18,3.33-7.76,6.78-7.76,2.59,0,4.08,1.01,4.1,1.44l-2.34,15.67h14.23c2.16,0,3.65,1.01,3.6,2.88.04.72-.19,1.87-.58,2.59-.61,2.01-2.16,2.73-3.88,2.73h-14.95l-6.06,37.96c-1.74,10.64,1.53,15.53,8.29,15.53,3.02,0,5.68-1.29,7.86-3.74.44.14,1.79,1.15,1.91,3.45.11,2.16-.67,3.74-2.31,5.32-2.19,2.16-5.58,3.31-9.75,3.31-11.5,0-18.26-8.2-15.99-22.57Z"/>
    <path class="cls-3" d="M694.49,133.97c-1.13-21.57,10.82-43.28,30.51-43.28,10.64,0,18.75,6.61,21.96,15.67.81-3.74,1.51-6.9,2.51-9.78,1.11-3.59,2.91-4.89,5.5-4.89,2.16,0,3.79,1.01,3.81,1.29l-8.72,53.06c-1.53,9.2,1.59,11.07,4.93,11.79.14,0-.37,3.88-5.26,3.88-4.46,0-8.47-2.44-9.05-8.05-.36-1.44-.31-3.16-.27-5.18-4.44,8.48-11.51,13.66-21,13.66-13.52,0-23.96-10.06-24.91-28.18ZM742.42,132.25l2.41-14.38c-1.1-10.07-7.89-18.84-18.24-18.84-14.38,0-23.04,18.55-22.2,34.51.66,12.65,7.83,20.42,17.46,20.42,10.93,0,18.59-10.21,20.57-21.71Z"/>
    <path class="cls-3" d="M769.15,145.62l12.59-78.08c.54-3.45,1.9-4.89,4.34-4.89h1.58c2.3,0,4.53,1.29,4,4.89l-12.56,78.51c-1.55,8.92,2.17,11.22,5.36,11.79.29,0,.06,3.88-5.26,3.88-7.33,0-11.78-5.32-10.05-16.1Z"/>
  </g>
</svg>