<?xml version="1.0" encoding="UTF-8"?>
<svg id="Layer_1" data-name="Layer 1" xmlns="http://www.w3.org/2000/svg" viewBox="0 0 470.1 470.1">
  <defs>
    <style>
      .cls-1 {
        fill: #f8f8f8;
      }

      .cls-2 {
        fill: #00c2e8;
      }

      .cls-3 {
        fill: #161840;
      }
    </style>
  </defs>
  <circle class="cls-1" cx="235.05" cy="235.05" r="235.05"/>
  <g>
    <path class="cls-2" d="M199.69,159.45c-3.63,0-6.85.18-8.45.35-3.18.32-4.25,3.31-4.02,6.25,3.34,42.58-6.12,92.14-16.9,92.14-8.02,0-10.26-23.16-10.26-43.76,0-12.18.71-23.91.99-34.27.11-3.84-1.3-4.57-4.11-4.91-4.25-.51-7.3-.51-11.52.42-3.22.71-3.98,3.33-7.37,11.31-16.89,39.77-33.2,71.72-33.2,71.72-4.31-32.02,1.22-63.08,5.93-85.75.65-3.12-.85-4.96-3.44-4.92-4.88.09-12.37.24-15.74,2.43-3.17,2.05-4.35,4.25-5.26,8.78-5.23,25.96-8.63,58.53-3.37,83.72,1.14,5.44,2.41,6.73,4.73,8.15,2.32,1.43,12.29,2.7,16.15,2.7,4.38,0,8.4-1.17,11.75-6.84,7.07-12.01,12.74-24.01,23.45-47.12,1.1,30.11,5.39,53.74,26.76,53.74,28.32,0,46.6-70.05,46.6-103.76,0-8.92-4.46-10.38-12.74-10.38"/>
    <path class="cls-2" d="M387.96,207.92c5.13-.12,8.76-1.67,9.65-6.49.53-2.87-1.17-4.71-4.47-4.85,0,0-9.57-.5-20.59-.98,0,0,2.23-12.11,3.31-17.04.54-2.42-.75-4.82-3.84-5.56-3.06-.73-10.1-.78-12.46-.52-1.97.22-3.89,1.39-4.34,3.41-1.11,5.06-2.27,11.16-3.65,18.95-4.09-.09-8.05-.13-10.81-.08-2.58.04-3.78,1.34-4.31,3.44-.53,2.1-.96,5.09-1.13,8.18-.13,2.35,2.45,3.47,5.11,3.37,0,0,3.27-.15,8.39-.39-.95,4.43-2.85,16.33-3.57,23.72-4.62,15.37-14.21,26.73-22.47,26.73-5.06,0-8.08-2.98-8.08-12,0-12.49,2.9-28.28,7.13-44.11,5.96-14.2,9.39-29.99,9.39-37.14,0-2.69-.83-5.71-4.09-6.34-5.88-1.16-11.47-.94-15.38.27-3.49,1.08-4.21,4.72-4.64,6.67-2.02,9.33-5.33,25.88-7.64,40.38-5.15,6.17-11.06,10.5-17.45,11.57-.99-19.21-12.28-27.46-27.84-27.46-27.31,0-44.72,24.09-44.72,51.13,0,21.9,12.07,31.04,29.64,31.04,20.75,0,36.19-14.58,41.96-41.32,5.88-1.17,10.97-4.01,15.37-7.93,0,0-3.31,16.56-3.31,26.29,0,14.74,6.39,22.96,21.4,22.96,12.35,0,23.13-8.62,29.86-19.1,1.8,13.69,9.02,19.1,20.76,19.1,10.77,0,21.15-6.77,28.49-19.01,1.46-2.44,2.53-4.58,1.61-5.64-2.14-2.43-6.2-3.69-7.32-1.67-4.84,8.78-10.04,12.31-15.71,12.31-4.48,0-8.11-2.64-8.11-10.34,0-11.07,6.29-41.02,6.29-41.02,5.54-.2,11.7-.39,17.55-.52M242.22,261.89c-6.28,0-10.48-5.36-10.48-16,0-20.41,7.33-42.36,20.51-42.36,1.49,0,2.8.19,3.96.65-.21.79-.37,1.44-.43,1.81-1.98,11.58.43,18.95,6.01,23.03-2.86,17.92-10.86,32.87-19.57,32.87"/>
  </g>
  <g>
    <path class="cls-3" d="M159.94,313l-3.69,34.48c-.22,2.08-1,3.08-2.89,3.08h-.57c-1.76,0-2.82-1.07-2.66-3.15l1.22-11.2,2.27-18-9.96,19.82c-.72,1.51-1.38,2.46-3.78,2.46-2.58,0-2.95-1.07-3.29-2.52l-5.73-20.45-1.57,18.69-1.15,11.26c-.22,2.08-1,3.08-2.89,3.08h-.57c-1.76,0-2.89-1.13-2.66-3.15l3.69-34.54c.27-2.2,1.46-3.52,3.47-3.52h2.02c2.02,0,2.98.82,3.52,2.89l5.84,20.89,10.41-20.89c1.09-2.2,1.96-2.89,3.73-2.89h2.14c1.95,0,3.31,1.51,3.09,3.65Z"/>
    <path class="cls-3" d="M163.71,338.8c-1.07-10.19,4.57-19.5,14.4-19.5,6.3,0,9.95,3.52,10.41,7.99.56,5.35-2.43,9.88-13.58,9.88-1.58,0-3.47-.06-5.38-.25-.05.69-.05,1.32.03,2.08.44,4.22,2.87,6.98,6.97,6.98,3.28,0,5.56-1.64,6.78-4.47.69,0,3.24.25,3.49,2.64.15,1.38-.42,2.58-1.5,3.71-1.81,2.01-4.58,3.15-8.49,3.15-7.12,0-12.3-4.34-13.12-12.21ZM174.14,333.14c7.11-.13,9.04-2.71,8.76-5.41-.19-1.76-1.64-3.65-4.73-3.65-4.28,0-7.3,3.71-8.21,8.81,1.6.25,2.99.25,4.18.25Z"/>
    <path class="cls-3" d="M192.16,347.55l3-27.24c.04-.25.88-.63,1.95-.63,1.26,0,2.53.69,2.95,2.26.3,1.07.27,2.58.16,3.96,1.32-4.22,3.53-6.61,6.62-6.61,2.46,0,4.21,1.7,4.42,3.71.36,3.46-2.42,4.59-2.49,4.53-.61-1.01-1.65-1.89-3.22-1.89-3.28,0-5.12,3.46-5.97,10.95l-1.25,10.95c-.23,2.01-.95,2.96-2.71,2.96h-.63c-1.76,0-3.01-1.07-2.83-2.96Z"/>
    <path class="cls-3" d="M212.88,337.92c-1.02-9.75,4.22-18.62,13.36-18.62,3.4,0,6.1,1.07,8.1,2.71,1.92,1.45,3.08,3.52,3.28,5.41.47,4.47-4.28,4.22-4.66,3.59-.33-3.71-2.45-6.54-6.23-6.54-5.61,0-8.27,7.68-7.63,13.72.55,5.22,3.33,7.68,6.92,7.68,3.28,0,4.99-2.33,6.05-5.41.16-.32,3.8-.44,4.13,2.71.18,1.7-.58,3.46-2.12,4.97-1.66,1.57-4.42,2.89-7.7,2.89-6.68,0-12.52-4.03-13.47-13.09Z"/>
    <path class="cls-3" d="M259.21,345.97c-.18-1.76.13-4.15.61-7.36.66-4.53.98-6.86.78-8.81-.36-3.4-2.12-5.22-5.02-5.22-3.15,0-5.07,2.08-6.37,4.78l-1.91,17.81c-.25,2.39-.97,3.33-2.86,3.33h-.69c-1.45,0-2.92-.82-2.68-3.33l4.06-37c.22-2.14.94-3.08,2.45-3.08h1.13c1.32,0,2.87.88,2.59,3.08l-1.54,14.16c1.67-3.33,4.51-5.03,8.04-5.03,5.1,0,8.57,3.65,9.12,8.87.29,2.77-.18,6.1-.83,10.13-.48,3.21-.81,5.54-.64,7.11.2,1.89,1.13,2.33,2.35,2.58.13.06-.14,2.83-3.48,2.83-2.77,0-4.79-1.82-5.11-4.84Z"/>
    <path class="cls-3" d="M272.19,338.74c-1-9.56,3.7-19.44,12.14-19.44,4.1,0,7.56,2.39,9.16,6.23.33-1.7.67-3.21,1.25-4.34.66-.94,1.61-1.51,2.8-1.51,1.51,0,2.47.69,2.43.94l-2.54,22.65c-.47,3.9.77,4.97,2.19,5.29.07.06-.33,2.26-3.1,2.26-2.02,0-3.76-1.01-4.49-3.15-.33-.75-.47-1.45-.5-2.39-1.58,3.59-4.31,5.73-8.16,5.73-5.92,0-10.36-4.47-11.18-12.27ZM291.83,337.42l.77-6.48c-.61-3.46-3.2-6.48-6.73-6.48-5.48,0-8.16,8.05-7.53,14.16.5,4.78,3.17,7.36,6.5,7.36,3.97,0,6.47-3.78,6.98-8.56Z"/>
    <path class="cls-3" d="M327.64,350.82c-2.84,0-4.85-1.82-5.17-4.84-.19-1.83.13-4.21.61-7.36.66-4.53.98-6.86.78-8.81-.36-3.46-2.19-5.22-5.08-5.22-3.09,0-5.02,2.01-6.3,4.78l-1.91,17.81c-.25,2.39-.97,3.33-2.86,3.33h-.63c-1.45,0-2.98-.82-2.68-3.33l2.91-26.93c-.02-.19.76-.57,1.77-.57,1.32,0,2.64.57,3.28,2.39.21.82.32,1.83.29,2.77,1.75-3.71,4.65-5.54,8.3-5.54,5.17,0,8.71,3.71,9.25,8.93.28,2.71-.19,6.04-.84,10.07-.48,3.27-.81,5.47-.65,7.05.2,1.95,1.13,2.39,2.36,2.64.13.06-.08,2.83-3.42,2.83Z"/>
    <path class="cls-3" d="M337.64,341.07l1.78-16.04h-1.89c-1.45,0-2.27-.63-2.38-1.7-.07-.69.05-1.89.45-2.33.31-.69,1.02-1.07,2.16-1.07h2.21l.31-3.08c.32-3.59,1.92-4.53,4-4.53,1.64,0,2.59.63,2.56.94l-.62,6.67h5.04c1.26,0,2.15.63,2.21,1.83.04.38-.09.94-.18,1.32-.23,1.38-1.18,1.95-2.25,1.95h-5.48l-1.69,15.16c-.4,4.03.97,5.66,3.3,5.66,1.32,0,2.27-.57,3.19-1.45.27.13,1.01.63,1.16,2.01.13,1.26-.33,2.27-1.13,3.08-.97.94-2.61,1.51-4.63,1.51-5.35,0-8.77-3.71-8.1-9.94Z"/>
  </g>
</svg>