<?xml version="1.0" encoding="UTF-8"?>
<svg id="Layer_1" data-name="Layer 1" xmlns="http://www.w3.org/2000/svg" viewBox="0 0 470.1 470.1">
  <defs>
    <style>
      .cls-1 {
        fill: #f8f8f8;
      }

      .cls-2 {
        fill: #00c2e8;
      }

      .cls-3 {
        fill: #161840;
      }
    </style>
  </defs>
  <circle class="cls-1" cx="235.05" cy="235.05" r="235.05"/>
  <g>
    <path class="cls-2" d="M199.69,159.45c-3.63,0-6.85.18-8.45.35-3.18.32-4.25,3.31-4.02,6.25,3.34,42.58-6.12,92.14-16.9,92.14-8.02,0-10.26-23.16-10.26-43.76,0-12.18.71-23.91.99-34.27.11-3.84-1.3-4.57-4.11-4.91-4.25-.51-7.3-.51-11.52.42-3.22.71-3.98,3.33-7.37,11.31-16.89,39.77-33.2,71.72-33.2,71.72-4.31-32.02,1.22-63.08,5.93-85.75.65-3.12-.85-4.96-3.44-4.92-4.88.09-12.37.24-15.74,2.43-3.17,2.05-4.35,4.25-5.26,8.78-5.23,25.96-8.63,58.53-3.37,83.72,1.14,5.44,2.41,6.73,4.73,8.15,2.32,1.43,12.29,2.7,16.15,2.7,4.38,0,8.4-1.17,11.75-6.84,7.07-12.01,12.74-24.01,23.45-47.12,1.1,30.11,5.39,53.74,26.76,53.74,28.32,0,46.6-70.05,46.6-103.76,0-8.92-4.46-10.38-12.74-10.38"/>
    <path class="cls-2" d="M387.96,207.92c5.13-.12,8.76-1.67,9.65-6.49.53-2.87-1.17-4.71-4.47-4.85,0,0-9.57-.5-20.59-.98,0,0,2.23-12.11,3.31-17.04.54-2.42-.75-4.82-3.84-5.56-3.06-.73-10.1-.78-12.46-.52-1.97.22-3.89,1.39-4.34,3.41-1.11,5.06-2.27,11.16-3.65,18.95-4.09-.09-8.05-.13-10.81-.08-2.58.04-3.78,1.34-4.31,3.44-.53,2.1-.96,5.09-1.13,8.18-.13,2.35,2.45,3.47,5.11,3.37,0,0,3.27-.15,8.39-.39-.95,4.43-2.85,16.33-3.57,23.72-4.62,15.37-14.21,26.73-22.47,26.73-5.06,0-8.08-2.98-8.08-12,0-12.49,2.9-28.28,7.13-44.11,5.96-14.2,9.39-29.99,9.39-37.14,0-2.69-.83-5.71-4.09-6.34-5.88-1.16-11.47-.94-15.38.27-3.49,1.08-4.21,4.72-4.64,6.67-2.02,9.33-5.33,25.88-7.64,40.38-5.15,6.17-11.06,10.5-17.45,11.57-.99-19.21-12.28-27.46-27.84-27.46-27.31,0-44.72,24.09-44.72,51.13,0,21.9,12.07,31.04,29.64,31.04,20.75,0,36.19-14.58,41.96-41.32,5.88-1.17,10.97-4.01,15.37-7.93,0,0-3.31,16.56-3.31,26.29,0,14.74,6.39,22.96,21.4,22.96,12.35,0,23.13-8.62,29.86-19.1,1.8,13.69,9.02,19.1,20.76,19.1,10.77,0,21.15-6.77,28.49-19.01,1.46-2.44,2.53-4.58,1.61-5.64-2.14-2.43-6.2-3.69-7.32-1.67-4.84,8.78-10.04,12.31-15.71,12.31-4.48,0-8.11-2.64-8.11-10.34,0-11.07,6.29-41.02,6.29-41.02,5.54-.2,11.7-.39,17.55-.52M242.22,261.89c-6.28,0-10.48-5.36-10.48-16,0-20.41,7.33-42.36,20.51-42.36,1.49,0,2.8.19,3.96.65-.21.79-.37,1.44-.43,1.81-1.98,11.58.43,18.95,6.01,23.03-2.86,17.92-10.86,32.87-19.57,32.87"/>
  </g>
  <g>
    <path class="cls-3" d="M123.59,351.81l2.68-25.08h-2.69c-1.52,0-2.35-.69-2.47-1.86-.08-.76.06-2.07.48-2.62.33-.76,1.06-1.1,2.3-1.1h2.97l.42-3.86c.6-6.13,3.36-10.75,9.5-10.75,2.14,0,3.92.55,5.19,1.45.97.69,1.64,1.79,1.75,2.89.23,2.21-1.83,3.58-1.98,3.45-.82-1.24-2.42-2-3.94-2-2.97,0-3.92,2.76-4.3,6.41l-.3,2.41h4.76c1.31,0,2.28.69,2.42,2,.04.41-.09,1.1-.25,1.58-.27,1.38-1.31,2-2.48,2h-4.62l-2.68,25.08c-.25,2.21-1.36,2.83-3.22,2.83h-.76c-1.45,0-2.98-.83-2.78-2.83Z"/>
    <path class="cls-3" d="M142.02,341.34c-1.15-10.96,4.3-20.88,14.65-20.88,8.14,0,13.75,5.44,14.62,13.78,1.15,10.96-4.22,20.95-14.5,20.95-8.21,0-13.89-5.51-14.77-13.85ZM164.57,333.96c-.52-4.96-3.39-7.99-7.53-7.99-6.28,0-8.96,8.61-8.23,15.64.52,4.96,3.4,8.06,7.54,8.06,6.21,0,8.95-8.75,8.22-15.71Z"/>
    <path class="cls-3" d="M175.99,351.4l3.29-29.84c.04-.28.96-.69,2.14-.69,1.38,0,2.77.76,3.23,2.48.33,1.17.3,2.83.18,4.34,1.45-4.62,3.87-7.23,7.25-7.23,2.69,0,4.61,1.86,4.84,4.07.4,3.79-2.65,5.03-2.72,4.96-.67-1.1-1.8-2.07-3.53-2.07-3.59,0-5.61,3.79-6.54,11.99l-1.37,11.99c-.25,2.21-1.04,3.24-2.97,3.24h-.69c-1.93,0-3.3-1.17-3.1-3.24Z"/>
    <path class="cls-3" d="M258.61,318.12l-10.9,33.56c-.79,2.34-2.01,3.17-4.43,3.17-3.1,0-4.28-1.38-4.61-3.79l-3.88-25.84-9.51,26.46c-.9,2.62-2.29,3.17-4.5,3.17-2.9,0-4.26-1.17-4.47-3.79l-4.37-39.69c.03-.34,1.48-1.72,3.68-1.72,2.48,0,3.58,1.93,3.72,4.55l2.29,32.39,9.46-27.63c.68-2.07,2.04-2.96,4.31-2.96s3.86,1.31,4.12,3.79l3.78,26.87,10.27-36.93c.05-.14,5.35-.34,5.89,3.51.19,1.17-.07,2.62-.87,4.89Z"/>
    <path class="cls-3" d="M259.18,341.34c-1.15-10.96,4.3-20.88,14.65-20.88,8.14,0,13.75,5.44,14.62,13.78,1.15,10.96-4.22,20.95-14.5,20.95-8.21,0-13.9-5.51-14.77-13.85ZM281.73,333.96c-.52-4.96-3.39-7.99-7.53-7.99-6.28,0-8.96,8.61-8.23,15.64.52,4.96,3.4,8.06,7.54,8.06,6.21,0,8.95-8.75,8.22-15.71Z"/>
    <path class="cls-3" d="M293.15,351.4l3.29-29.84c.04-.28.96-.69,2.14-.69,1.38,0,2.77.76,3.23,2.48.33,1.17.3,2.83.18,4.34,1.45-4.62,3.86-7.23,7.25-7.23,2.69,0,4.61,1.86,4.84,4.07.4,3.79-2.65,5.03-2.72,4.96-.67-1.1-1.8-2.07-3.53-2.07-3.59,0-5.61,3.79-6.54,11.99l-1.36,11.99c-.25,2.21-1.04,3.24-2.97,3.24h-.69c-1.93,0-3.3-1.17-3.1-3.24Z"/>
    <path class="cls-3" d="M341.99,327.56l-10.19,10.06,5.56,8.27c2.39,3.72,3.3,4.48,5.38,4.62.21,0,.61,4.48-3.88,4.48-2.48,0-3.95-1.45-6.34-5.24l-7.44-11.71-1.35,12.82c-.26,2.76-1.05,3.79-3.05,3.79h-.76c-1.66,0-3.27-.9-2.95-3.79l4.25-40.38c.17-2.34,1.03-3.38,2.68-3.38h1.17c1.52,0,3.21.96,2.91,3.38l-2.77,25.56,14.18-15.44c.11-.28,3.39.14,3.97,2.96.24.96.05,2.41-1.37,4Z"/>
  </g>
</svg>