<?xml version="1.0" encoding="UTF-8"?>
<svg id="Layer_1" data-name="Layer 1" xmlns="http://www.w3.org/2000/svg" viewBox="0 0 928.01 324.13">
  <defs>
    <style>
      .cls-1 {
        fill: #f8f8f8;
      }

      .cls-2 {
        fill: #00c2e8;
      }

      .cls-3 {
        fill: #161840;
      }
    </style>
  </defs>
  <path class="cls-1" d="M894.38,33.62C873.61,12.85,844.91,0,813.21,0H114.8c-31.7,0-60.4,12.85-81.17,33.62C12.85,54.4,0,83.1,0,114.8h0v94.53h0c0,31.7,12.85,60.4,33.62,81.17,20.77,20.77,49.47,33.62,81.17,33.62h698.41c31.7,0,60.4-12.85,81.17-33.62,20.77-20.77,33.62-49.47,33.62-81.17h0v-94.53h0c0-31.7-12.85-60.4-33.62-81.17Z"/>
  <g>
    <path class="cls-2" d="M199.97,72.9c-3.16,0-5.96.16-7.34.3-2.76.28-3.7,2.88-3.5,5.44,2.91,37.02-5.32,80.1-14.69,80.1-6.97,0-8.92-20.13-8.92-38.04,0-10.59.61-20.78.86-29.79.09-3.34-1.13-3.97-3.57-4.27-3.7-.44-6.34-.44-10.01.36-2.8.61-3.46,2.89-6.41,9.83-14.69,34.58-28.86,62.35-28.86,62.35-3.75-27.84,1.06-54.84,5.16-74.55.57-2.71-.74-4.32-2.99-4.28-4.24.07-10.75.21-13.69,2.11-2.75,1.79-3.78,3.69-4.57,7.64-4.54,22.57-7.5,50.88-2.93,72.78.99,4.73,2.1,5.85,4.12,7.09,2.02,1.24,10.68,2.35,14.04,2.35,3.81,0,7.31-1.02,10.21-5.95,6.15-10.44,11.08-20.87,20.39-40.96.96,26.17,4.69,46.72,23.26,46.72,24.62,0,40.51-60.9,40.51-90.2,0-7.75-3.88-9.02-11.07-9.02"/>
    <path class="cls-2" d="M236.94,161.96c-5.46,0-9.12-4.66-9.12-13.91,0-17.74,6.38-36.83,17.83-36.83,1.29,0,2.43.17,3.44.57-.18.69-.32,1.25-.38,1.57-1.72,10.07.38,16.48,5.23,20.02-2.48,15.58-9.44,28.58-17.01,28.58M363.63,115.04c4.46-.1,7.62-1.45,8.39-5.64.46-2.5-1.02-4.09-3.89-4.22,0,0-8.32-.43-17.9-.85,0,0,1.94-10.53,2.88-14.82.47-2.1-.66-4.19-3.34-4.83-2.66-.64-8.78-.68-10.83-.45-1.71.19-3.38,1.21-3.77,2.97-.97,4.4-1.97,9.7-3.17,16.48-3.55-.08-7-.11-9.4-.07-2.24.04-3.29,1.17-3.75,2.99-.46,1.82-.83,4.42-.98,7.11-.11,2.04,2.13,3.01,4.44,2.93,0,0,2.84-.13,7.29-.34-.82,3.85-2.47,14.19-3.1,20.62-4.02,13.37-12.36,23.23-19.54,23.23-4.4,0-7.02-2.59-7.02-10.43,0-10.85,2.52-24.58,6.19-38.34,5.18-12.34,8.16-26.07,8.16-32.29,0-2.34-.72-4.96-3.55-5.51-5.11-1.01-9.97-.82-13.37.23-3.04.94-3.66,4.1-4.03,5.79-1.76,8.12-4.63,22.5-6.65,35.11-4.47,5.36-9.61,9.13-15.17,10.06-.86-16.7-10.68-23.87-24.2-23.87-23.74,0-38.88,20.94-38.88,44.45,0,19.04,10.49,26.98,25.77,26.98,18.04,0,31.46-12.67,36.47-35.92,5.1-1.02,9.54-3.49,13.36-6.9,0,0-2.88,14.4-2.88,22.85,0,12.82,5.55,19.96,18.6,19.96,10.73,0,20.1-7.5,25.96-16.6,1.57,11.9,7.84,16.6,18.05,16.6,9.37,0,18.38-5.88,24.76-16.52,1.27-2.12,2.2-3.98,1.4-4.9-1.85-2.11-5.39-3.2-6.36-1.45-4.21,7.63-8.73,10.7-13.66,10.7-3.89,0-7.05-2.29-7.05-8.99,0-9.63,5.47-35.66,5.47-35.66,4.82-.17,10.17-.34,15.26-.45"/>
  </g>
  <g>
    <path class="cls-3" d="M395.56,166.83l8.97-56.51h-7.62c-2.44,0-3.79-1.01-3.88-2.73-.06-1.15.41-3.16,1.08-4.03.67-1.01,1.79-1.44,3.52-1.44h8.2l1.3-8.05c1.93-12.51,7.31-22.43,19.53-22.43,4.46,0,7.98,1.29,10.24,3.31,1.64,1.15,2.46,3.02,2.54,4.6.18,3.45-2.88,5.32-3.19,5.03-1.73-2.88-5.12-4.46-8.72-4.46-7.62,0-9.96,7.48-11.39,15.82l-.97,6.18h11.79c2.16,0,3.5,1.01,3.6,2.88.04.72-.19,1.87-.58,2.73-.62,1.87-2.17,2.59-3.75,2.59h-11.93l-8.97,56.51c-.55,3.31-2.07,4.31-4.81,4.31h-1.01c-2.3,0-4.52-1.15-3.96-4.31Z"/>
    <path class="cls-3" d="M432.85,143.11c-1.16-22.14,11.44-42.27,32.15-42.27,16.68,0,27.64,11.65,28.53,28.61,1.18,22.43-11.13,42.7-31.98,42.7-16.82,0-27.8-11.93-28.7-29.04ZM483.75,129.45c-.65-12.37-7.83-20.56-18.62-20.56-14.95,0-23.37,17.83-22.5,34.36.65,12.37,7.85,20.85,18.78,20.85,14.67,0,23.22-17.83,22.34-34.65Z"/>
    <path class="cls-3" d="M502.65,166.26l10.31-63.84c.13-.29,1.26-.72,2.69-.72,2.59,0,5.1,1.29,5.07,6.18-.04,2.01-.19,4.6-.5,6.9,3.69-9.2,9.18-14.09,16.23-14.09,5.75,0,9.4,3.74,9.58,7.19.28,5.32-4.22,7.19-4.38,7.04-1.26-2.16-3.81-4.17-7.69-4.17-8.34,0-13.9,9.2-16.95,27.75l-4.58,27.75c-.4,3.31-1.76,4.89-4.49,4.89h-1.15c-2.59,0-4.54-1.58-4.14-4.89Z"/>
    <path class="cls-3" d="M664.32,82.43c.09,1.73-.38,3.74-1.65,6.9l-28.71,77.64c-1.26,3.31-3.22,4.46-7.1,4.46-4.6,0-6.28-1.87-6.61-5.46l-7.78-60.68-26.96,61.68c-1.39,3.59-3.5,4.46-6.81,4.46-4.46,0-6.42-1.73-6.61-5.46l-5.53-86.27c.11-.58,2.17-2.44,5.34-2.44,3.59,0,5.17,2.59,5.23,6.47l3.14,76.35,26.75-62.98c1.26-3.31,3.35-4.6,6.8-4.6,3.74,0,5.86,2.01,6.2,5.75l7.67,61.4,28.48-82.1c.26-.58,7.73-.72,8.16,4.89Z"/>
    <path class="cls-3" d="M662.04,143.11c-1.16-22.14,11.44-42.27,32.15-42.27,16.68,0,27.64,11.65,28.53,28.61,1.18,22.43-11.13,42.7-31.98,42.7-16.82,0-27.8-11.93-28.7-29.04ZM712.94,129.45c-.65-12.37-7.84-20.56-18.62-20.56-14.95,0-23.37,17.83-22.5,34.36.65,12.37,7.85,20.85,18.78,20.85,14.67,0,23.22-17.83,22.34-34.65Z"/>
    <path class="cls-3" d="M731.83,166.26l10.31-63.84c.13-.29,1.26-.72,2.69-.72,2.59,0,5.1,1.29,5.07,6.18-.04,2.01-.19,4.6-.5,6.9,3.69-9.2,9.18-14.09,16.23-14.09,5.75,0,9.4,3.74,9.58,7.19.28,5.32-4.22,7.19-4.38,7.04-1.26-2.16-3.81-4.17-7.7-4.17-8.34,0-13.9,9.2-16.95,27.75l-4.58,27.75c-.4,3.31-1.76,4.89-4.49,4.89h-1.15c-2.59,0-4.54-1.58-4.14-4.89Z"/>
    <path class="cls-3" d="M830.48,111.76l-27.51,23.87,14.59,20.56c5.14,7.62,7.07,8.63,11.24,8.77.29,0,.79,6.76-6.55,6.76-4.46,0-7.03-2.44-12.18-10.21l-17.3-25.59-4.48,29.76c-.65,4.03-1.87,5.46-4.75,5.46h-1.15c-2.44,0-4.81-1.29-4.17-5.46l14.07-88.14c.4-3.31,1.76-4.89,4.2-4.89h1.58c2.3,0,4.68,1.44,4,4.89l-8.74,55.5,34.56-31.92c.13-.29,5.05.29,5.42,4.6.23,1.58-.24,3.74-2.85,6.04Z"/>
  </g>
  <g>
    <path class="cls-3" d="M149.33,251.03c-.66,0-1.2-.22-1.62-.66-.42-.44-.63-1.01-.63-1.71v-30.86c0-.7.21-1.26.63-1.7.42-.44.96-.66,1.62-.66h11.5c3.85,0,6.77.78,8.77,2.34,2,1.56,3,3.82,3,6.79,0,1.98-.56,3.63-1.68,4.95-1.12,1.32-2.76,2.29-4.92,2.92,2.79.51,4.84,1.55,6.16,3.11s1.98,3.44,1.98,5.64c0,3.34-1.07,5.81-3.22,7.43-2.14,1.61-5.45,2.42-9.93,2.42h-11.66ZM151.15,231.29h9.46c2.42,0,4.31-.58,5.67-1.73,1.36-1.16,2.03-2.67,2.03-4.54,0-2.02-.65-3.54-1.95-4.56-1.3-1.03-3.27-1.54-5.91-1.54h-9.29v12.38ZM151.15,247.57h9.62c3.19,0,5.51-.51,6.96-1.54,1.45-1.03,2.17-2.73,2.17-5.12,0-2.16-.75-3.78-2.25-4.84-1.5-1.06-3.74-1.59-6.71-1.59h-9.79v13.09Z"/>
    <path class="cls-3" d="M181.67,251.2c-.51,0-.94-.13-1.27-.39-.33-.26-.49-.75-.49-1.48v-24.31s.14-.12.41-.25c.28-.13.61-.19,1.02-.19.51,0,1.01.17,1.49.52.48.35.77,1.05.88,2.12.04.44.06.88.08,1.32s.03.9.03,1.38l.06,9.08v10.34c0,.73-.17,1.23-.5,1.48-.33.26-.75.39-1.27.39h-.44ZM182.83,233.21l.99-3.3c.55-1.91,1.42-3.34,2.61-4.29,1.19-.95,2.65-1.43,4.37-1.43.77,0,1.45.12,2.04.36.59.24,1.05.57,1.4.99s.52.91.52,1.46c0,.4-.06.73-.19.99-.13.26-.26.48-.38.66-.13.18-.26.3-.39.36s-.21.06-.25.03c-.37-.29-.82-.54-1.35-.74-.53-.2-1.17-.3-1.9-.3-2.24,0-3.87,1.01-4.89,3.03-1.03,2.02-1.54,4.67-1.54,7.97l-1.04-5.78Z"/>
    <path class="cls-3" d="M200.1,218.97c-.81,0-1.42-.22-1.84-.66-.42-.44-.63-1.04-.63-1.82s.22-1.43.66-1.87,1.06-.66,1.87-.66,1.42.22,1.84.66.63,1.06.63,1.87-.22,1.38-.66,1.82-1.06.66-1.87.66ZM199.88,251.2c-.51,0-.94-.13-1.26-.39-.33-.26-.5-.75-.5-1.48v-22.82c0-.73.17-1.24.5-1.51.33-.27.75-.41,1.26-.41h.44c.51,0,.93.13,1.24.38.31.26.47.77.47,1.54v22.82c0,.73-.16,1.23-.47,1.48-.31.26-.72.39-1.24.39h-.44Z"/>
    <path class="cls-3" d="M211.15,251.2c-.51,0-.94-.13-1.27-.39-.33-.26-.49-.75-.49-1.48v-24.31s.14-.12.41-.25c.28-.13.61-.19,1.02-.19.59,0,1.14.22,1.65.66.51.44.79,1.36.83,2.75v1.92l-.11-.5c.92-1.54,2.15-2.79,3.71-3.77,1.56-.97,3.38-1.46,5.47-1.46,2.35,0,4.28.49,5.8,1.46,1.52.97,2.66,2.32,3.41,4.04.75,1.72,1.13,3.72,1.13,5.99v13.64c0,.73-.17,1.23-.5,1.48-.33.26-.75.39-1.27.39h-.38c-.51,0-.93-.13-1.26-.39-.33-.26-.5-.75-.5-1.48v-13.25c0-2.57-.61-4.59-1.84-6.08-1.23-1.49-2.98-2.23-5.25-2.23-1.94,0-3.64.5-5.09,1.49-1.45.99-2.54,2.29-3.27,3.9v16.17c0,.73-.16,1.23-.49,1.48-.33.26-.75.39-1.27.39h-.44Z"/>
    <path class="cls-3" d="M251.03,261.92c-2.2,0-4.08-.29-5.64-.88-1.56-.59-2.83-1.28-3.82-2.09-.7-.59-1.24-1.19-1.62-1.81-.39-.62-.58-1.17-.58-1.65,0-.44.1-.82.3-1.13.2-.31.41-.56.63-.74.26-.15.49-.26.69-.33.2-.07.32-.07.36,0,.51.95,1.19,1.82,2.04,2.61.84.79,1.89,1.42,3.13,1.9,1.25.48,2.73.71,4.46.71,2.93,0,5.14-.76,6.63-2.28,1.48-1.52,2.23-3.79,2.23-6.79v-4.01c-.66,1.06-1.47,1.99-2.42,2.78s-2.04,1.39-3.27,1.81c-1.23.42-2.61.63-4.15.63-2.35,0-4.46-.54-6.33-1.62-1.87-1.08-3.34-2.61-4.4-4.59-1.06-1.98-1.59-4.31-1.59-6.99s.55-4.85,1.65-6.85c1.1-2,2.59-3.57,4.48-4.7,1.89-1.14,4.02-1.71,6.41-1.71s4.35.48,6.02,1.43c1.67.95,2.89,2.11,3.66,3.46,0-.29,0-.6.03-.91s.03-.61.03-.91c.11-1.06.4-1.78.88-2.14.48-.37.99-.55,1.54-.55.37,0,.69.06.96.19.27.13.41.21.41.25v22.94c0,3.12-.44,5.71-1.32,7.78-.88,2.07-2.26,3.62-4.12,4.65-1.87,1.03-4.29,1.54-7.26,1.54ZM250.64,247.4c1.65,0,3.17-.36,4.57-1.07,1.39-.71,2.5-1.7,3.33-2.94s1.26-2.66,1.29-4.24v-5.5c-.73-1.87-1.86-3.36-3.38-4.48-1.52-1.12-3.42-1.68-5.69-1.68-1.83,0-3.44.43-4.81,1.29-1.38.86-2.46,2.04-3.25,3.52-.79,1.49-1.18,3.2-1.18,5.14s.38,3.72,1.16,5.23,1.83,2.67,3.19,3.49c1.36.82,2.95,1.24,4.78,1.24Z"/>
    <path class="cls-3" d="M273.08,218.97c-.81,0-1.42-.22-1.84-.66-.42-.44-.63-1.04-.63-1.82s.22-1.43.66-1.87c.44-.44,1.06-.66,1.87-.66s1.42.22,1.84.66c.42.44.63,1.06.63,1.87s-.22,1.38-.66,1.82c-.44.44-1.06.66-1.87.66ZM272.86,251.2c-.51,0-.93-.13-1.26-.39-.33-.26-.5-.75-.5-1.48v-22.82c0-.73.17-1.24.5-1.51.33-.27.75-.41,1.26-.41h.44c.51,0,.93.13,1.24.38.31.26.47.77.47,1.54v22.82c0,.73-.16,1.23-.47,1.48-.31.26-.72.39-1.24.39h-.44Z"/>
    <path class="cls-3" d="M284.14,251.2c-.51,0-.94-.13-1.27-.39-.33-.26-.49-.75-.49-1.48v-24.31s.14-.12.41-.25c.28-.13.61-.19,1.02-.19.59,0,1.14.22,1.65.66.51.44.79,1.36.83,2.75v1.92l-.11-.5c.92-1.54,2.15-2.79,3.71-3.77,1.56-.97,3.38-1.46,5.47-1.46,2.35,0,4.28.49,5.8,1.46,1.52.97,2.66,2.32,3.41,4.04.75,1.72,1.13,3.72,1.13,5.99v13.64c0,.73-.17,1.23-.5,1.48-.33.26-.75.39-1.27.39h-.38c-.51,0-.93-.13-1.26-.39-.33-.26-.5-.75-.5-1.48v-13.25c0-2.57-.61-4.59-1.84-6.08-1.23-1.49-2.98-2.23-5.25-2.23-1.94,0-3.64.5-5.09,1.49-1.45.99-2.54,2.29-3.27,3.9v16.17c0,.73-.16,1.23-.49,1.48-.33.26-.75.39-1.27.39h-.44Z"/>
    <path class="cls-3" d="M324.01,261.92c-2.2,0-4.08-.29-5.64-.88-1.56-.59-2.83-1.28-3.82-2.09-.7-.59-1.24-1.19-1.62-1.81-.39-.62-.58-1.17-.58-1.65,0-.44.1-.82.3-1.13.2-.31.41-.56.63-.74.26-.15.49-.26.69-.33.2-.07.32-.07.36,0,.51.95,1.19,1.82,2.04,2.61.84.79,1.89,1.42,3.13,1.9,1.25.48,2.73.71,4.46.71,2.93,0,5.14-.76,6.63-2.28,1.48-1.52,2.23-3.79,2.23-6.79v-4.01c-.66,1.06-1.47,1.99-2.42,2.78s-2.04,1.39-3.27,1.81c-1.23.42-2.61.63-4.15.63-2.35,0-4.46-.54-6.33-1.62-1.87-1.08-3.34-2.61-4.4-4.59-1.06-1.98-1.59-4.31-1.59-6.99s.55-4.85,1.65-6.85c1.1-2,2.59-3.57,4.48-4.7,1.89-1.14,4.02-1.71,6.41-1.71s4.35.48,6.02,1.43c1.67.95,2.89,2.11,3.66,3.46,0-.29,0-.6.03-.91s.03-.61.03-.91c.11-1.06.4-1.78.88-2.14.48-.37.99-.55,1.54-.55.37,0,.69.06.96.19.27.13.41.21.41.25v22.94c0,3.12-.44,5.71-1.32,7.78-.88,2.07-2.26,3.62-4.12,4.65-1.87,1.03-4.29,1.54-7.26,1.54ZM323.63,247.4c1.65,0,3.17-.36,4.57-1.07,1.39-.71,2.5-1.7,3.33-2.94s1.26-2.66,1.29-4.24v-5.5c-.73-1.87-1.86-3.36-3.38-4.48-1.52-1.12-3.42-1.68-5.69-1.68-1.83,0-3.44.43-4.81,1.29-1.38.86-2.46,2.04-3.25,3.52-.79,1.49-1.18,3.2-1.18,5.14s.38,3.72,1.16,5.23,1.83,2.67,3.19,3.49c1.36.82,2.95,1.24,4.78,1.24Z"/>
    <path class="cls-3" d="M355.2,251.2c-.51,0-.94-.13-1.27-.39-.33-.26-.49-.75-.49-1.48v-35.37c0-.07.14-.16.41-.28.28-.11.61-.16,1.02-.16s.8.1,1.18.3.71.55.96,1.04c.26.49.39,1.22.39,2.17v13.26l-.11-.66c.62-1.1,1.37-2.05,2.23-2.86.86-.81,1.88-1.44,3.05-1.9,1.17-.46,2.46-.69,3.85-.69,2.35,0,4.28.49,5.8,1.48,1.52.99,2.66,2.35,3.41,4.07.75,1.72,1.13,3.72,1.13,6v13.58c0,.73-.17,1.23-.5,1.48-.33.26-.75.39-1.26.39h-.38c-.51,0-.93-.13-1.26-.39-.33-.26-.5-.75-.5-1.48v-13.2c0-2.6-.62-4.65-1.87-6.13-1.25-1.49-3.01-2.23-5.28-2.23-1.61,0-3.05.35-4.32,1.04-1.27.7-2.25,1.68-2.94,2.94-.7,1.26-1.04,2.76-1.04,4.48v13.09c0,.73-.17,1.23-.5,1.48-.33.26-.75.39-1.27.39h-.44Z"/>
    <path class="cls-3" d="M394.08,251.64c-2.35,0-4.46-.57-6.33-1.71-1.87-1.14-3.35-2.73-4.43-4.79-1.08-2.05-1.62-4.46-1.62-7.21s.54-5.15,1.62-7.21c1.08-2.05,2.57-3.66,4.46-4.81,1.89-1.16,4.04-1.73,6.46-1.73,1.58,0,3.01.24,4.29.71,1.28.48,2.37,1.1,3.27,1.87s1.59,1.59,2.06,2.48c0-.33,0-.66.03-.99s.05-.64.08-.94c.11-1.1.4-1.83.88-2.2.48-.37.99-.55,1.54-.55.37,0,.69.06.96.19.27.13.41.21.41.25v24.37c0,.73-.17,1.23-.5,1.49-.33.26-.75.39-1.26.39h-.44c-.51,0-.93-.13-1.24-.39-.31-.26-.47-.75-.47-1.49v-3.13c-.66,1.06-1.47,2.01-2.42,2.83-.95.83-2.04,1.46-3.27,1.9-1.23.44-2.59.66-4.1.66ZM394.69,248.34c1.69,0,3.23-.38,4.62-1.13,1.39-.75,2.5-1.78,3.33-3.08.82-1.3,1.24-2.78,1.24-4.43v-5.88c-.73-1.91-1.85-3.43-3.35-4.56-1.5-1.14-3.41-1.71-5.72-1.71-1.83,0-3.44.44-4.81,1.32s-2.46,2.09-3.25,3.63c-.79,1.54-1.18,3.34-1.18,5.39s.39,3.86,1.18,5.42c.79,1.56,1.87,2.79,3.25,3.68,1.38.9,2.94,1.35,4.7,1.35Z"/>
    <path class="cls-3" d="M416.8,261.7c-.51,0-.94-.13-1.27-.38-.33-.26-.49-.75-.49-1.49v-34.82s.14-.12.41-.25c.28-.13.61-.19,1.02-.19.37,0,.72.08,1.07.25.35.16.64.45.88.85.24.4.38.99.41,1.76.04.37.06.83.08,1.38.02.55.03,1.03.03,1.43l-.05-.5c.7-1.14,1.52-2.12,2.47-2.94s2.05-1.47,3.3-1.92c1.25-.46,2.62-.69,4.12-.69,2.35,0,4.45.57,6.32,1.71s3.35,2.73,4.43,4.79c1.08,2.05,1.62,4.46,1.62,7.21s-.54,5.11-1.62,7.18c-1.08,2.07-2.56,3.68-4.43,4.84-1.87,1.15-4.03,1.73-6.49,1.73-1.61,0-3.06-.26-4.34-.77-1.28-.51-2.36-1.18-3.25-2.01-.88-.83-1.56-1.7-2.04-2.61v13.58c0,.73-.16,1.23-.49,1.49-.33.26-.75.38-1.27.38h-.44ZM428.07,248.34c1.83,0,3.45-.44,4.84-1.32,1.39-.88,2.47-2.11,3.24-3.68.77-1.58,1.16-3.39,1.16-5.44s-.39-3.79-1.18-5.34c-.79-1.54-1.88-2.76-3.27-3.66-1.39-.9-2.95-1.35-4.67-1.35-2.27,0-4.19.58-5.75,1.73-1.56,1.15-2.72,2.69-3.49,4.59v5.83c0,1.61.41,3.07,1.24,4.37.83,1.3,1.92,2.34,3.3,3.11,1.38.77,2.91,1.15,4.59,1.15Z"/>
    <path class="cls-3" d="M448.2,261.7c-.51,0-.93-.13-1.26-.38-.33-.26-.5-.75-.5-1.49v-34.82s.14-.12.41-.25c.28-.13.61-.19,1.02-.19.37,0,.72.08,1.07.25.35.16.64.45.88.85.24.4.38.99.41,1.76.04.37.06.83.08,1.38.02.55.03,1.03.03,1.43l-.06-.5c.7-1.14,1.52-2.12,2.48-2.94.95-.83,2.05-1.47,3.3-1.92,1.25-.46,2.62-.69,4.12-.69,2.35,0,4.46.57,6.33,1.71,1.87,1.14,3.34,2.73,4.43,4.79,1.08,2.05,1.62,4.46,1.62,7.21s-.54,5.11-1.62,7.18c-1.08,2.07-2.56,3.68-4.43,4.84-1.87,1.15-4.04,1.73-6.49,1.73-1.62,0-3.06-.26-4.35-.77s-2.37-1.18-3.25-2.01c-.88-.83-1.56-1.7-2.03-2.61v13.58c0,.73-.17,1.23-.5,1.49-.33.26-.75.38-1.26.38h-.44ZM459.48,248.34c1.83,0,3.45-.44,4.84-1.32,1.39-.88,2.47-2.11,3.25-3.68.77-1.58,1.15-3.39,1.15-5.44s-.39-3.79-1.18-5.34c-.79-1.54-1.88-2.76-3.27-3.66-1.39-.9-2.95-1.35-4.68-1.35-2.27,0-4.19.58-5.75,1.73-1.56,1.15-2.72,2.69-3.49,4.59v5.83c0,1.61.41,3.07,1.24,4.37.83,1.3,1.93,2.34,3.3,3.11,1.38.77,2.9,1.15,4.59,1.15Z"/>
    <path class="cls-3" d="M479.88,218.97c-.81,0-1.42-.22-1.84-.66-.42-.44-.63-1.04-.63-1.82s.22-1.43.66-1.87c.44-.44,1.06-.66,1.87-.66s1.42.22,1.84.66c.42.44.63,1.06.63,1.87s-.22,1.38-.66,1.82c-.44.44-1.06.66-1.87.66ZM479.66,251.2c-.51,0-.94-.13-1.27-.39-.33-.26-.5-.75-.5-1.48v-22.82c0-.73.17-1.24.5-1.51.33-.27.75-.41,1.27-.41h.44c.51,0,.93.13,1.24.38.31.26.47.77.47,1.54v22.82c0,.73-.16,1.23-.47,1.48-.31.26-.72.39-1.24.39h-.44Z"/>
    <path class="cls-3" d="M490.94,251.2c-.51,0-.93-.13-1.26-.39-.33-.26-.5-.75-.5-1.48v-24.31s.14-.12.41-.25c.28-.13.61-.19,1.02-.19.59,0,1.14.22,1.65.66.51.44.79,1.36.83,2.75v1.92l-.11-.5c.92-1.54,2.15-2.79,3.71-3.77,1.56-.97,3.38-1.46,5.47-1.46,2.35,0,4.28.49,5.8,1.46,1.52.97,2.66,2.32,3.41,4.04.75,1.72,1.13,3.72,1.13,5.99v13.64c0,.73-.16,1.23-.49,1.48-.33.26-.75.39-1.27.39h-.38c-.51,0-.93-.13-1.26-.39-.33-.26-.5-.75-.5-1.48v-13.25c0-2.57-.61-4.59-1.84-6.08-1.23-1.49-2.98-2.23-5.25-2.23-1.94,0-3.64.5-5.09,1.49-1.45.99-2.54,2.29-3.27,3.9v16.17c0,.73-.17,1.23-.5,1.48-.33.26-.75.39-1.26.39h-.44Z"/>
    <path class="cls-3" d="M531.03,251.64c-2.71,0-5.09-.58-7.12-1.73-2.04-1.16-3.62-2.76-4.76-4.81-1.14-2.05-1.71-4.4-1.71-7.04s.57-5,1.71-7.09c1.14-2.09,2.7-3.74,4.7-4.95,2-1.21,4.26-1.81,6.79-1.81s4.66.55,6.49,1.65c1.83,1.1,3.26,2.62,4.29,4.56,1.03,1.94,1.54,4.2,1.54,6.77v.38c0,.48-.11.8-.33.96-.22.17-.57.25-1.04.25h-20.46c0,.15,0,.29.03.41.02.13.03.27.03.41.22,1.76.77,3.3,1.65,4.62.88,1.32,2.03,2.35,3.44,3.08,1.41.73,3.01,1.1,4.81,1.1,1.69,0,3.11-.23,4.26-.69,1.16-.46,2.1-1.05,2.83-1.79s1.32-1.52,1.76-2.37c.04-.04.17-.03.38.03.22.06.47.16.74.3.27.15.51.37.71.66.2.29.3.66.3,1.1,0,.4-.18.9-.55,1.49-.37.59-.93,1.19-1.71,1.81-.88.7-2.05,1.32-3.52,1.87-1.47.55-3.23.83-5.28.83ZM539.06,235.85c-.07-1.69-.48-3.17-1.21-4.46-.73-1.28-1.71-2.27-2.92-2.97-1.21-.7-2.64-1.04-4.29-1.04s-3.13.36-4.46,1.07c-1.32.72-2.41,1.71-3.27,3-.86,1.28-1.42,2.75-1.68,4.4h17.82Z"/>
    <path class="cls-3" d="M557.04,251.64c-2.16,0-4.01-.27-5.55-.8-1.54-.53-2.73-1.16-3.58-1.9-.59-.51-1.01-.99-1.26-1.43-.26-.44-.39-.86-.39-1.27,0-.48.13-.85.39-1.13.26-.28.54-.49.85-.63s.49-.2.52-.17c.84,1.21,2.01,2.22,3.49,3.02,1.48.81,3.33,1.21,5.53,1.21s3.83-.4,5-1.21c1.17-.81,1.76-1.87,1.76-3.19,0-1.06-.31-1.87-.93-2.42-.62-.55-1.49-1-2.61-1.35-1.12-.35-2.45-.67-3.99-.96-1.03-.22-2.07-.48-3.14-.77-1.06-.29-2.06-.7-3-1.21-.94-.51-1.69-1.2-2.25-2.06-.57-.86-.85-1.95-.85-3.27,0-1.58.41-2.95,1.24-4.12s2-2.1,3.52-2.78c1.52-.68,3.31-1.02,5.36-1.02,2.27,0,4.15.31,5.64.94,1.49.62,2.58,1.36,3.27,2.2.26.29.46.62.61.96.15.35.22.67.22.96,0,.44-.14.82-.41,1.13-.28.31-.56.53-.85.66-.29.13-.46.17-.5.14-.51-.77-1.16-1.44-1.95-2.01-.79-.57-1.68-1.02-2.67-1.35s-2.09-.5-3.3-.5c-2.05,0-3.65.4-4.79,1.21-1.14.81-1.71,1.83-1.71,3.08,0,.99.29,1.76.88,2.31.59.55,1.42.98,2.5,1.29,1.08.31,2.37.63,3.88.96,1.06.22,2.15.49,3.27.8,1.12.31,2.16.73,3.14,1.27.97.53,1.75,1.24,2.34,2.12.59.88.88,1.98.88,3.3,0,2.38-.94,4.31-2.83,5.77-1.89,1.47-4.46,2.2-7.73,2.2Z"/>
    <path class="cls-3" d="M581.9,251.64c-2.16,0-4.01-.27-5.55-.8-1.54-.53-2.73-1.16-3.58-1.9-.59-.51-1.01-.99-1.26-1.43-.26-.44-.39-.86-.39-1.27,0-.48.13-.85.39-1.13.26-.28.54-.49.85-.63s.49-.2.52-.17c.84,1.21,2.01,2.22,3.49,3.02,1.48.81,3.33,1.21,5.53,1.21s3.83-.4,5-1.21c1.17-.81,1.76-1.87,1.76-3.19,0-1.06-.31-1.87-.93-2.42-.62-.55-1.49-1-2.61-1.35-1.12-.35-2.45-.67-3.99-.96-1.03-.22-2.07-.48-3.14-.77-1.06-.29-2.06-.7-3-1.21-.94-.51-1.69-1.2-2.25-2.06-.57-.86-.85-1.95-.85-3.27,0-1.58.41-2.95,1.24-4.12s2-2.1,3.52-2.78c1.52-.68,3.31-1.02,5.36-1.02,2.27,0,4.15.31,5.64.94,1.49.62,2.58,1.36,3.27,2.2.26.29.46.62.61.96.15.35.22.67.22.96,0,.44-.14.82-.41,1.13-.28.31-.56.53-.85.66-.29.13-.46.17-.5.14-.51-.77-1.16-1.44-1.95-2.01-.79-.57-1.68-1.02-2.67-1.35s-2.09-.5-3.3-.5c-2.05,0-3.65.4-4.79,1.21-1.14.81-1.71,1.83-1.71,3.08,0,.99.29,1.76.88,2.31.59.55,1.42.98,2.5,1.29,1.08.31,2.37.63,3.88.96,1.06.22,2.15.49,3.27.8,1.12.31,2.16.73,3.14,1.27.97.53,1.75,1.24,2.34,2.12.59.88.88,1.98.88,3.3,0,2.38-.94,4.31-2.83,5.77-1.89,1.47-4.46,2.2-7.73,2.2Z"/>
    <path class="cls-3" d="M616.66,251.64c-1.65,0-3.03-.3-4.12-.91s-1.91-1.53-2.42-2.78c-.51-1.25-.77-2.8-.77-4.67v-15.12h-2.64c-.62,0-1.07-.13-1.35-.39-.27-.26-.41-.62-.41-1.1v-.33c0-.51.14-.9.41-1.15.28-.26.72-.38,1.35-.38h2.64v-4.57c0-.73.16-1.24.47-1.51s.72-.41,1.24-.41h.44c.51,0,.93.13,1.24.38.31.26.47.77.47,1.54v4.57h6.82c.66,0,1.12.13,1.38.38s.39.62.39,1.1v.33c0,.51-.14.9-.41,1.15-.27.26-.74.39-1.4.39h-6.82v14.68c0,1.91.31,3.31.94,4.21.62.9,1.63,1.35,3.02,1.35.92,0,1.71-.19,2.39-.58.68-.39,1.22-.89,1.62-1.51.07-.04.2,0,.38.11s.37.3.55.58c.18.28.28.63.28,1.07,0,.33-.08.67-.25,1.02-.17.35-.43.69-.8,1.02-.44.44-1.04.81-1.82,1.1-.77.29-1.71.44-2.8.44Z"/>
    <path class="cls-3" d="M637.4,251.64c-2.64,0-4.98-.6-7.01-1.79-2.04-1.19-3.63-2.82-4.79-4.9-1.15-2.07-1.73-4.43-1.73-7.07s.58-4.99,1.73-7.04c1.16-2.05,2.76-3.67,4.81-4.87,2.05-1.19,4.4-1.79,7.04-1.79s4.97.6,6.99,1.79c2.02,1.19,3.6,2.83,4.76,4.92,1.15,2.09,1.73,4.46,1.73,7.09s-.58,4.99-1.73,7.04c-1.16,2.05-2.75,3.67-4.79,4.84-2.04,1.17-4.37,1.76-7.01,1.76ZM637.45,248.34c1.87,0,3.54-.45,5-1.35,1.47-.9,2.62-2.12,3.47-3.68.84-1.56,1.26-3.33,1.26-5.31s-.42-3.76-1.26-5.33c-.84-1.58-2-2.83-3.47-3.77s-3.15-1.4-5.06-1.4-3.55.46-5.03,1.38c-1.49.92-2.65,2.15-3.49,3.71-.84,1.56-1.26,3.33-1.26,5.31s.42,3.77,1.26,5.36c.84,1.6,2.01,2.84,3.49,3.74,1.48.9,3.18,1.35,5.09,1.35Z"/>
    <path class="cls-3" d="M672.93,251.31c-.59,0-1.05-.05-1.4-.14-.35-.09-.61-.24-.77-.44-.16-.2-.3-.47-.41-.8l-6.54-24.2c-.04-.07,0-.17.14-.3s.31-.26.55-.38c.24-.13.5-.24.77-.33.28-.09.56-.14.85-.14s.58.07.85.22c.28.15.53.38.77.71.24.33.43.82.58,1.48l4.79,20.29,5.67-17.32c.15-.51.41-.89.8-1.13.38-.24,1.02-.36,1.9-.36.81,0,1.4.12,1.79.36.38.24.65.61.8,1.13l5.61,17.27,4.73-20.24c.15-.66.34-1.16.58-1.51.24-.35.5-.59.8-.72.29-.13.59-.19.88-.19s.57.05.83.17c.26.11.49.23.69.36.2.13.36.25.47.36.11.11.17.2.17.28l-6.49,24.2c-.07.33-.21.6-.41.8-.2.2-.47.35-.8.44-.33.09-.79.14-1.38.14-.88,0-1.48-.11-1.79-.33-.31-.22-.56-.59-.74-1.1l-5.78-17.44-5.99,17.44c-.18.51-.43.88-.74,1.1-.31.22-.89.33-1.73.33Z"/>
    <path class="cls-3" d="M714.51,251.64c-2.64,0-4.98-.6-7.01-1.79-2.04-1.19-3.63-2.82-4.79-4.9-1.15-2.07-1.73-4.43-1.73-7.07s.58-4.99,1.73-7.04c1.16-2.05,2.76-3.67,4.81-4.87,2.05-1.19,4.4-1.79,7.04-1.79s4.97.6,6.99,1.79c2.02,1.19,3.6,2.83,4.76,4.92,1.15,2.09,1.73,4.46,1.73,7.09s-.58,4.99-1.73,7.04c-1.16,2.05-2.75,3.67-4.79,4.84-2.04,1.17-4.37,1.76-7.01,1.76ZM714.56,248.34c1.87,0,3.54-.45,5-1.35,1.47-.9,2.62-2.12,3.47-3.68.84-1.56,1.26-3.33,1.26-5.31s-.42-3.76-1.26-5.33c-.84-1.58-2-2.83-3.47-3.77s-3.15-1.4-5.06-1.4-3.55.46-5.03,1.38c-1.49.92-2.65,2.15-3.49,3.71-.84,1.56-1.26,3.33-1.26,5.31s.42,3.77,1.26,5.36c.84,1.6,2.01,2.84,3.49,3.74,1.48.9,3.18,1.35,5.09,1.35Z"/>
    <path class="cls-3" d="M734.97,251.2c-.51,0-.93-.13-1.26-.39-.33-.26-.5-.75-.5-1.48v-24.31s.14-.12.41-.25c.28-.13.61-.19,1.02-.19.51,0,1.01.17,1.49.52.48.35.77,1.05.88,2.12.04.44.06.88.08,1.32s.03.9.03,1.38l.05,9.08v10.34c0,.73-.17,1.23-.5,1.48-.33.26-.75.39-1.26.39h-.44ZM736.12,233.21l.99-3.3c.55-1.91,1.42-3.34,2.61-4.29,1.19-.95,2.65-1.43,4.37-1.43.77,0,1.45.12,2.04.36.59.24,1.05.57,1.4.99s.52.91.52,1.46c0,.4-.06.73-.19.99-.13.26-.26.48-.38.66-.13.18-.26.3-.38.36-.13.05-.21.06-.25.03-.37-.29-.82-.54-1.35-.74s-1.16-.3-1.9-.3c-2.24,0-3.87,1.01-4.89,3.03-1.03,2.02-1.54,4.67-1.54,7.97l-1.04-5.78Z"/>
    <path class="cls-3" d="M753.12,251.2c-.51,0-.93-.13-1.26-.39-.33-.26-.5-.75-.5-1.48v-35.37c0-.07.14-.16.41-.28.28-.11.61-.16,1.02-.16s.8.1,1.18.3.71.55.96,1.04c.26.49.38,1.22.38,2.17v19.69l10.62-10.73c.44-.48.87-.82,1.29-1.04.42-.22.8-.35,1.13-.38.51,0,.92.12,1.24.36.31.24.54.49.69.74.15.26.2.46.17.61l-11,10.83,12.48,12.38c.07.11.02.31-.16.6-.18.29-.43.56-.74.8-.31.24-.72.36-1.24.36-.33-.04-.7-.16-1.1-.36-.4-.2-.84-.56-1.32-1.07l-12.04-11.99v11.5c0,.73-.17,1.23-.5,1.48-.33.26-.75.39-1.26.39h-.44Z"/>
    <path class="cls-3" d="M778.14,251.36c-.77,0-1.37-.21-1.79-.63-.42-.42-.63-1.02-.63-1.79v-.5c0-.77.2-1.37.61-1.79.4-.42.99-.63,1.76-.63h.55c.81,0,1.42.21,1.84.63.42.42.63,1.02.63,1.79v.5c0,.77-.21,1.37-.63,1.79s-1.04.63-1.84.63h-.5Z"/>
  </g>
</svg>