<?xml version="1.0" encoding="UTF-8"?>
<svg id="Layer_1" data-name="Layer 1" xmlns="http://www.w3.org/2000/svg" viewBox="0 0 470.1 470.1">
  <defs>
    <style>
      .cls-1 {
        fill: #f8f8f8;
      }

      .cls-2 {
        fill: #00c2e8;
      }

      .cls-3 {
        fill: #161840;
      }
    </style>
  </defs>
  <circle class="cls-1" cx="235.05" cy="235.05" r="235.05"/>
  <g>
    <path class="cls-2" d="M199.69,159.45c-3.63,0-6.85.18-8.45.35-3.18.32-4.25,3.31-4.02,6.25,3.34,42.58-6.12,92.14-16.9,92.14-8.02,0-10.26-23.16-10.26-43.76,0-12.18.71-23.91.99-34.27.11-3.84-1.3-4.57-4.11-4.91-4.25-.51-7.3-.51-11.52.42-3.22.71-3.98,3.33-7.37,11.31-16.89,39.77-33.2,71.72-33.2,71.72-4.31-32.02,1.22-63.08,5.93-85.75.65-3.12-.85-4.96-3.44-4.92-4.88.09-12.37.24-15.74,2.43-3.17,2.05-4.35,4.25-5.26,8.78-5.23,25.96-8.63,58.53-3.37,83.72,1.14,5.44,2.41,6.73,4.73,8.15,2.32,1.43,12.29,2.7,16.15,2.7,4.38,0,8.4-1.17,11.75-6.84,7.07-12.01,12.74-24.01,23.45-47.12,1.1,30.11,5.39,53.74,26.76,53.74,28.32,0,46.6-70.05,46.6-103.76,0-8.92-4.46-10.38-12.74-10.38"/>
    <path class="cls-2" d="M387.96,207.92c5.13-.12,8.76-1.67,9.65-6.49.53-2.87-1.17-4.71-4.47-4.85,0,0-9.57-.5-20.59-.98,0,0,2.23-12.11,3.31-17.04.54-2.42-.75-4.82-3.84-5.56-3.06-.73-10.1-.78-12.46-.52-1.97.22-3.89,1.39-4.34,3.41-1.11,5.06-2.27,11.16-3.65,18.95-4.09-.09-8.05-.13-10.81-.08-2.58.04-3.78,1.34-4.31,3.44-.53,2.1-.96,5.09-1.13,8.18-.13,2.35,2.45,3.47,5.11,3.37,0,0,3.27-.15,8.39-.39-.95,4.43-2.85,16.33-3.57,23.72-4.62,15.37-14.21,26.73-22.47,26.73-5.06,0-8.08-2.98-8.08-12,0-12.49,2.9-28.28,7.13-44.11,5.96-14.2,9.39-29.99,9.39-37.14,0-2.69-.83-5.71-4.09-6.34-5.88-1.16-11.47-.94-15.38.27-3.49,1.08-4.21,4.72-4.64,6.67-2.02,9.33-5.33,25.88-7.64,40.38-5.15,6.17-11.06,10.5-17.45,11.57-.99-19.21-12.28-27.46-27.84-27.46-27.31,0-44.72,24.09-44.72,51.13,0,21.9,12.07,31.04,29.64,31.04,20.75,0,36.19-14.58,41.96-41.32,5.88-1.17,10.97-4.01,15.37-7.93,0,0-3.31,16.56-3.31,26.29,0,14.74,6.39,22.96,21.4,22.96,12.35,0,23.13-8.62,29.86-19.1,1.8,13.69,9.02,19.1,20.76,19.1,10.77,0,21.15-6.77,28.49-19.01,1.46-2.44,2.53-4.58,1.61-5.64-2.14-2.43-6.2-3.69-7.32-1.67-4.84,8.78-10.04,12.31-15.71,12.31-4.48,0-8.11-2.64-8.11-10.34,0-11.07,6.29-41.02,6.29-41.02,5.54-.2,11.7-.39,17.55-.52M242.22,261.89c-6.28,0-10.48-5.36-10.48-16,0-20.41,7.33-42.36,20.51-42.36,1.49,0,2.8.19,3.96.65-.21.79-.37,1.44-.43,1.81-1.98,11.58.43,18.95,6.01,23.03-2.86,17.92-10.86,32.87-19.57,32.87"/>
  </g>
  <g>
    <path class="cls-3" d="M136.25,337.05c-1.55-14.75,6.04-27.98,18.94-27.98,4.97,0,8.53,1.72,10.95,3.79,2.42,2,3.75,4.82,3.99,7.1.61,5.79-5.54,5.03-5.73,4.55-.8-5.65-3.59-9.23-8.9-9.23-8.21,0-13.02,11.37-11.89,22.19.77,7.3,4.93,11.44,10.65,11.44,5.17,0,7.85-3.45,8.95-8.06.16-.48,4.88-.83,5.33,3.45.2,1.86-.65,4.34-2.63,6.48-2.42,2.62-6.3,4.41-10.99,4.41-9.45,0-17.36-5.65-18.67-18.12Z"/>
    <path class="cls-3" d="M173.86,341.74c-1.1-10.48,4.05-21.29,13.29-21.29,4.49,0,8.28,2.62,10.03,6.82.36-1.86.74-3.51,1.36-4.75.72-1.04,1.76-1.65,3.07-1.65,1.66,0,2.7.76,2.66,1.03l-2.78,24.81c-.52,4.27.85,5.44,2.4,5.79.08.07-.36,2.48-3.4,2.48-2.21,0-4.12-1.1-4.92-3.45-.36-.83-.51-1.58-.55-2.62-1.73,3.93-4.73,6.27-8.93,6.27-6.49,0-11.35-4.89-12.24-13.44ZM195.37,340.29l.84-7.1c-.67-3.79-3.5-7.1-7.37-7.1-6,0-8.94,8.82-8.24,15.51.55,5.24,3.47,8.06,7.12,8.06,4.35,0,7.09-4.13,7.64-9.37Z"/>
    <path class="cls-3" d="M207.85,363.86l4.52-42.45c.05-.21.84-.55,1.87-.55,1.52,0,2.97.69,3.58,2.55.3.9.34,1.93.32,3.03,1.83-3.65,4.89-6,9.1-6,5.52,0,11.03,3.86,11.97,12.82,1.13,10.82-3.84,21.91-13.02,21.91-4.9,0-8.31-2.96-9.96-6.82l-1.55,15.51c-.28,2.62-1.14,3.65-3.14,3.65h-.76c-1.59,0-3.27-.9-2.94-3.65ZM232.47,334.16c-.6-5.72-3.83-8.2-7.28-8.2s-5.8,2.55-7.21,6.27l-.82,7.3c-.5,5.1,2.28,9.92,7.25,9.92,5.93,0,8.74-8.75,8.06-15.3Z"/>
    <path class="cls-3" d="M245.07,346.35l2.44-22.12c.3-2.41,1.1-3.38,2.75-3.38h1.24c1.45,0,3.13.9,2.84,3.38l-2.48,22.4c-.46,4.2.92,5.45,2.62,5.86.08.07-.22,2.48-3.47,2.48-4.35,0-6.56-3.31-5.94-8.61ZM248.33,311.62c-.33-3.17,1.5-4.76,3.85-4.76,2.14,0,3.92,1.24,4.19,3.72.32,3.1-1.5,4.76-3.85,4.76-2.14,0-3.93-1.31-4.19-3.72Z"/>
    <path class="cls-3" d="M262.44,344.29l1.95-17.57h-2.07c-1.59,0-2.49-.69-2.61-1.86-.08-.76.06-2.07.49-2.55.33-.76,1.12-1.17,2.36-1.17h2.42l.34-3.38c.35-3.93,2.1-4.96,4.38-4.96,1.79,0,2.83.69,2.8,1.03l-.68,7.3h5.52c1.38,0,2.35.69,2.42,2,.04.41-.1,1.03-.19,1.45-.26,1.52-1.29,2.14-2.47,2.14h-6l-1.85,16.61c-.43,4.41,1.06,6.2,3.62,6.2,1.45,0,2.49-.62,3.49-1.58.29.14,1.11.69,1.27,2.21.14,1.38-.36,2.48-1.23,3.38-1.06,1.03-2.86,1.65-5.07,1.65-5.86,0-9.6-4.07-8.87-10.89Z"/>
    <path class="cls-3" d="M281.98,341.74c-1.1-10.48,4.05-21.29,13.29-21.29,4.49,0,8.28,2.62,10.03,6.82.36-1.86.74-3.51,1.36-4.75.72-1.04,1.76-1.65,3.07-1.65,1.66,0,2.7.76,2.66,1.03l-2.78,24.81c-.52,4.27.85,5.44,2.4,5.79.08.07-.36,2.48-3.4,2.48-2.21,0-4.12-1.1-4.92-3.45-.36-.83-.51-1.58-.55-2.62-1.73,3.93-4.73,6.27-8.93,6.27-6.49,0-11.35-4.89-12.24-13.44ZM303.49,340.29l.84-7.1c-.67-3.79-3.5-7.1-7.37-7.1-6,0-8.94,8.82-8.24,15.51.55,5.24,3.47,8.06,7.12,8.06,4.35,0,7.09-4.13,7.64-9.37Z"/>
    <path class="cls-3" d="M318.14,346.35l3.96-35.9c.24-2.34,1.03-3.38,2.75-3.38h1.24c1.45,0,3.14.97,2.84,3.38l-4,36.18c-.46,4.13.98,5.45,2.55,5.86.15.07-.02,2.48-3.4,2.48-4.42,0-6.49-3.31-5.94-8.61Z"/>
  </g>
</svg>