<?xml version="1.0" encoding="UTF-8"?>
<svg id="Layer_1" data-name="Layer 1" xmlns="http://www.w3.org/2000/svg" viewBox="0 0 470.1 470.1">
  <defs>
    <style>
      .cls-1 {
        fill: #f8f8f8;
      }

      .cls-2 {
        fill: #00c2e8;
      }

      .cls-3 {
        fill: #161840;
      }
    </style>
  </defs>
  <circle class="cls-1" cx="235.05" cy="235.05" r="235.05"/>
  <g>
    <path class="cls-2" d="M199.69,159.45c-3.63,0-6.85.18-8.45.35-3.18.32-4.25,3.31-4.02,6.25,3.34,42.58-6.12,92.14-16.9,92.14-8.02,0-10.26-23.16-10.26-43.76,0-12.18.71-23.91.99-34.27.11-3.84-1.3-4.57-4.11-4.91-4.25-.51-7.3-.51-11.52.42-3.22.71-3.98,3.33-7.37,11.31-16.89,39.77-33.2,71.72-33.2,71.72-4.31-32.02,1.22-63.08,5.93-85.75.65-3.12-.85-4.96-3.44-4.92-4.88.09-12.37.24-15.74,2.43-3.17,2.05-4.35,4.25-5.26,8.78-5.23,25.96-8.63,58.53-3.37,83.72,1.14,5.44,2.41,6.73,4.73,8.15,2.32,1.43,12.29,2.7,16.15,2.7,4.38,0,8.4-1.17,11.75-6.84,7.07-12.01,12.74-24.01,23.45-47.12,1.1,30.11,5.39,53.74,26.76,53.74,28.32,0,46.6-70.05,46.6-103.76,0-8.92-4.46-10.38-12.74-10.38"/>
    <path class="cls-2" d="M387.96,207.92c5.13-.12,8.76-1.67,9.65-6.49.53-2.87-1.17-4.71-4.47-4.85,0,0-9.57-.5-20.59-.98,0,0,2.23-12.11,3.31-17.04.54-2.42-.75-4.82-3.84-5.56-3.06-.73-10.1-.78-12.46-.52-1.97.22-3.89,1.39-4.34,3.41-1.11,5.06-2.27,11.16-3.65,18.95-4.09-.09-8.05-.13-10.81-.08-2.58.04-3.78,1.34-4.31,3.44-.53,2.1-.96,5.09-1.13,8.18-.13,2.35,2.45,3.47,5.11,3.37,0,0,3.27-.15,8.39-.39-.95,4.43-2.85,16.33-3.57,23.72-4.62,15.37-14.21,26.73-22.47,26.73-5.06,0-8.08-2.98-8.08-12,0-12.49,2.9-28.28,7.13-44.11,5.96-14.2,9.39-29.99,9.39-37.14,0-2.69-.83-5.71-4.09-6.34-5.88-1.16-11.47-.94-15.38.27-3.49,1.08-4.21,4.72-4.64,6.67-2.02,9.33-5.33,25.88-7.64,40.38-5.15,6.17-11.06,10.5-17.45,11.57-.99-19.21-12.28-27.46-27.84-27.46-27.31,0-44.72,24.09-44.72,51.13,0,21.9,12.07,31.04,29.64,31.04,20.75,0,36.19-14.58,41.96-41.32,5.88-1.17,10.97-4.01,15.37-7.93,0,0-3.31,16.56-3.31,26.29,0,14.74,6.39,22.96,21.4,22.96,12.35,0,23.13-8.62,29.86-19.1,1.8,13.69,9.02,19.1,20.76,19.1,10.77,0,21.15-6.77,28.49-19.01,1.46-2.44,2.53-4.58,1.61-5.64-2.14-2.43-6.2-3.69-7.32-1.67-4.84,8.78-10.04,12.31-15.71,12.31-4.48,0-8.11-2.64-8.11-10.34,0-11.07,6.29-41.02,6.29-41.02,5.54-.2,11.7-.39,17.55-.52M242.22,261.89c-6.28,0-10.48-5.36-10.48-16,0-20.41,7.33-42.36,20.51-42.36,1.49,0,2.8.19,3.96.65-.21.79-.37,1.44-.43,1.81-1.98,11.58.43,18.95,6.01,23.03-2.86,17.92-10.86,32.87-19.57,32.87"/>
  </g>
  <g>
    <path class="cls-3" d="M147.79,317.74l-10.54,32.45c-.76,2.27-1.95,3.07-4.28,3.07-3,0-4.14-1.33-4.45-3.67l-3.75-24.99-9.19,25.59c-.87,2.53-2.21,3.07-4.35,3.07-2.8,0-4.12-1.13-4.32-3.67l-4.22-38.38c.03-.33,1.43-1.67,3.56-1.67,2.4,0,3.47,1.87,3.6,4.4l2.21,31.32,9.14-26.72c.66-2,1.97-2.87,4.17-2.87s3.74,1.27,3.99,3.66l3.66,25.99,9.94-35.72c.05-.13,5.17-.33,5.69,3.4.19,1.13-.07,2.53-.84,4.73Z"/>
    <path class="cls-3" d="M170.28,348.26c-.2-1.87.14-4.4.65-7.8.7-4.8,1.04-7.26.82-9.33-.38-3.6-2.25-5.53-5.32-5.53-3.34,0-5.37,2.2-6.74,5.06l-2.03,18.86c-.27,2.53-1.03,3.53-3.03,3.53h-.73c-1.53,0-3.09-.87-2.84-3.53l4.3-39.18c.23-2.26.99-3.27,2.59-3.27h1.2c1.4,0,3.03.93,2.74,3.27l-1.63,14.99c1.76-3.53,4.78-5.33,8.52-5.33,5.41,0,9.08,3.86,9.66,9.39.31,2.93-.19,6.46-.88,10.73-.51,3.4-.85,5.86-.68,7.53.21,2,1.19,2.47,2.49,2.73.14.07-.15,3-3.69,3-2.94,0-5.07-1.93-5.41-5.13Z"/>
    <path class="cls-3" d="M183.85,340.2c-1.11-10.59,4.16-20.19,14.17-20.19,7.87,0,13.3,5.26,14.14,13.33,1.11,10.59-4.08,20.26-14.02,20.26-7.94,0-13.44-5.33-14.28-13.39ZM205.65,333.07c-.5-4.8-3.28-7.73-7.28-7.73-6.07,0-8.67,8.33-7.96,15.13.5,4.8,3.29,7.8,7.29,7.8,6.01,0,8.65-8.46,7.95-15.19Z"/>
    <path class="cls-3" d="M217.72,345.06l3.83-34.72c.23-2.26.99-3.27,2.66-3.27h1.2c1.4,0,3.03.93,2.74,3.27l-3.87,34.98c-.45,4,.95,5.26,2.46,5.66.14.07-.02,2.4-3.29,2.4-4.27,0-6.27-3.2-5.74-8.33Z"/>
    <path class="cls-3" d="M231.94,340.66c-1.13-10.79,4.84-20.66,15.25-20.66,6.67,0,10.53,3.73,11.03,8.46.59,5.66-2.57,10.46-14.38,10.46-1.67,0-3.68-.07-5.7-.27-.06.73-.05,1.4.03,2.2.47,4.46,3.04,7.4,7.38,7.4,3.47,0,5.89-1.73,7.18-4.73.73,0,3.43.27,3.7,2.8.15,1.47-.45,2.73-1.59,3.93-1.91,2.13-4.86,3.33-8.99,3.33-7.54,0-13.03-4.6-13.9-12.93ZM242.99,334.67c7.53-.13,9.58-2.87,9.27-5.73-.2-1.87-1.74-3.87-5.01-3.87-4.54,0-7.73,3.93-8.7,9.33,1.7.27,3.16.27,4.43.27Z"/>
    <path class="cls-3" d="M262.82,350.06c-1.33-1.2-2.07-2.6-2.22-4-.27-2.6,1.85-3.4,2.13-3.26,1.95,2.73,5.25,5.53,9.59,5.53,3.4,0,5.43-1.67,5.16-4.26-.26-2.47-2.61-3.27-5.69-4.6-3.5-1.53-8.01-3.87-8.6-9.46-.54-5.13,3.09-10,10.23-10,3.94,0,7.42,1.4,9.57,3.46,1.12,1.13,1.86,2.47,1.99,3.73.27,2.6-2.3,3.53-2.39,3.33-1.67-2.53-4.96-5.26-8.63-5.26-3.27,0-5.08,1.8-4.82,4.26.27,2.53,2.85,3.6,5.93,5,4.48,2,8.23,4.07,8.8,8.86.67,5.8-3.54,10.2-10.94,10.2-4.14,0-7.83-1.47-10.11-3.53Z"/>
    <path class="cls-3" d="M288.85,340.6c-1.06-10.13,3.91-20.59,12.85-20.59,4.34,0,8.01,2.53,9.7,6.6.35-1.8.71-3.4,1.32-4.6.7-1,1.7-1.6,2.97-1.6,1.6,0,2.61.73,2.57,1l-2.69,23.99c-.5,4.13.82,5.26,2.32,5.6.07.07-.35,2.4-3.29,2.4-2.14,0-3.98-1.07-4.75-3.33-.35-.8-.49-1.53-.53-2.53-1.67,3.8-4.57,6.06-8.64,6.06-6.27,0-10.97-4.73-11.84-12.99ZM309.65,339.2l.81-6.86c-.65-3.66-3.39-6.86-7.12-6.86-5.81,0-8.65,8.53-7.97,14.99.53,5.06,3.35,7.8,6.89,7.8,4.2,0,6.85-4,7.39-9.06Z"/>
    <path class="cls-3" d="M323.81,345.06l3.83-34.72c.23-2.26.99-3.27,2.66-3.27h1.2c1.4,0,3.03.93,2.74,3.27l-3.87,34.98c-.45,4,.95,5.26,2.46,5.66.14.07-.02,2.4-3.29,2.4-4.27,0-6.27-3.2-5.74-8.33Z"/>
    <path class="cls-3" d="M338.03,340.66c-1.13-10.79,4.84-20.66,15.25-20.66,6.67,0,10.53,3.73,11.03,8.46.59,5.66-2.57,10.46-14.38,10.46-1.67,0-3.68-.07-5.7-.27-.06.73-.05,1.4.03,2.2.47,4.46,3.04,7.4,7.38,7.4,3.47,0,5.89-1.73,7.18-4.73.73,0,3.43.27,3.7,2.8.15,1.47-.45,2.73-1.59,3.93-1.91,2.13-4.86,3.33-8.99,3.33-7.54,0-13.03-4.6-13.9-12.93ZM349.08,334.67c7.53-.13,9.57-2.87,9.27-5.73-.2-1.87-1.74-3.87-5.01-3.87-4.54,0-7.73,3.93-8.7,9.33,1.7.27,3.16.27,4.43.27Z"/>
  </g>
</svg>