<?xml version="1.0" encoding="UTF-8"?>
<svg id="Layer_1" data-name="Layer 1" xmlns="http://www.w3.org/2000/svg" viewBox="0 0 573.17 99.36">
  <defs>
    <style>
      .cls-1 {
        fill: #00c2e8;
      }

      .cls-2 {
        fill: #161840;
      }
    </style>
  </defs>
  <g>
    <path class="cls-1" d="M103.69,0c-3.16,0-5.95.16-7.34.3-2.76.28-3.69,2.88-3.49,5.43,2.91,37-5.32,80.05-14.68,80.05-6.97,0-8.91-20.12-8.91-38.02,0-10.58.61-20.77.86-29.77.09-3.34-1.13-3.97-3.57-4.26-3.7-.44-6.34-.44-10.01.36-2.8.61-3.46,2.89-6.41,9.83-14.68,34.56-28.84,62.31-28.84,62.31-3.74-27.82,1.06-54.81,5.16-74.51.57-2.71-.74-4.31-2.99-4.27-4.24.07-10.75.21-13.68,2.11-2.75,1.78-3.78,3.69-4.57,7.63C.67,39.75-2.28,68.04,2.29,89.92c.99,4.73,2.1,5.85,4.11,7.08,2.02,1.24,10.68,2.35,14.03,2.35,3.81,0,7.3-1.02,10.21-5.95,6.15-10.44,11.07-20.86,20.38-40.94.96,26.16,4.69,46.69,23.25,46.69,24.61,0,40.49-60.86,40.49-90.15,0-7.75-3.88-9.02-11.07-9.02"/>
    <path class="cls-1" d="M140.64,89.01c-5.46,0-9.11-4.66-9.11-13.9,0-17.73,6.37-36.81,17.82-36.81,1.29,0,2.43.17,3.44.57-.18.69-.32,1.25-.38,1.57-1.72,10.06.38,16.47,5.23,20.01-2.48,15.57-9.44,28.56-17,28.56M267.26,42.12c4.46-.1,7.61-1.45,8.39-5.64.46-2.5-1.02-4.09-3.88-4.22,0,0-8.31-.43-17.89-.85,0,0,1.94-10.52,2.88-14.81.47-2.1-.66-4.18-3.33-4.83-2.66-.64-8.77-.68-10.82-.45-1.71.19-3.38,1.21-3.77,2.96-.97,4.4-1.97,9.69-3.17,16.47-3.55-.08-7-.11-9.4-.07-2.24.04-3.29,1.17-3.75,2.99-.46,1.82-.83,4.41-.98,7.1-.11,2.04,2.13,3.01,4.44,2.93,0,0,2.84-.13,7.29-.34-.82,3.85-2.47,14.19-3.09,20.61-4.01,13.36-12.35,23.22-19.53,23.22-4.4,0-7.02-2.58-7.02-10.42,0-10.85,2.52-24.57,6.19-38.32,5.18-12.34,8.16-26.05,8.16-32.27,0-2.34-.72-4.96-3.55-5.51-5.11-1.01-9.96-.82-13.37.23-3.04.94-3.66,4.1-4.03,5.79-1.76,8.11-4.63,22.49-6.64,35.09-4.47,5.36-9.6,9.12-15.16,10.05-.86-16.69-10.67-23.86-24.18-23.86-23.73,0-38.85,20.93-38.85,44.43,0,19.03,10.49,26.97,25.75,26.97,18.03,0,31.44-12.67,36.45-35.9,5.1-1.02,9.53-3.48,13.35-6.89,0,0-2.88,14.39-2.88,22.84,0,12.81,5.55,19.95,18.59,19.95,10.73,0,20.09-7.49,25.94-16.59,1.57,11.89,7.84,16.59,18.04,16.59,9.36,0,18.37-5.88,24.75-16.51,1.27-2.12,2.2-3.98,1.4-4.9-1.85-2.11-5.39-3.2-6.35-1.45-4.21,7.63-8.73,10.7-13.65,10.7-3.89,0-7.04-2.29-7.04-8.98,0-9.62,5.47-35.64,5.47-35.64,4.81-.17,10.16-.34,15.25-.45"/>
  </g>
  <g>
    <path class="cls-2" d="M296.45,90.29l12.92-79.75c.51-3.88,2.72-5.75,6.17-5.75h14.51c23.85,0,38.24,14.08,39.45,37.22,1.6,30.46-15.33,55.75-47.66,55.75h-19.97c-4.31,0-6.16-2.44-5.42-7.47ZM322.68,89c25.15,0,37.63-22.27,36.36-46.56-.96-18.25-11.57-28.88-29.82-28.88h-10.2l-12,75.44h15.66Z"/>
    <path class="cls-2" d="M378.23,93.31l10.31-63.8c.13-.29,1.25-.72,2.69-.72,2.59,0,5.1,1.29,5.07,6.18-.04,2.01-.19,4.6-.5,6.9,3.69-9.2,9.18-14.08,16.22-14.08,5.75,0,9.39,3.74,9.57,7.18.28,5.32-4.22,7.19-4.37,7.04-1.26-2.16-3.81-4.17-7.69-4.17-8.33,0-13.89,9.2-16.94,27.73l-4.58,27.73c-.4,3.3-1.76,4.89-4.49,4.89h-1.15c-2.59,0-4.54-1.58-4.14-4.89Z"/>
    <path class="cls-2" d="M426.97,82.82l7.91-49.29c.68-3.45,1.91-4.74,4.21-4.74h1.72c2.16,0,4.66,1.15,3.98,4.74l-7.89,49.58c-1.39,9.05,2.17,11.21,5.36,11.78.14,0-.08,3.88-5.26,3.88-7.18,0-11.77-5.32-10.03-15.95ZM437.47,8.96c-.22-4.17,2.35-7.19,6.52-7.19,3.74,0,6.14,2.01,6.32,5.46.22,4.17-2.2,7.47-6.51,7.47-3.59,0-6.15-2.16-6.34-5.75Z"/>
    <path class="cls-2" d="M512.77,33.67c.11,2.01-.53,3.59-2.09,6.75l-27.78,54.03c-1.69,3.3-4.68,3.88-7.41,3.88-3.16,0-5.94-1.01-6.56-4.6l-7.17-46.27c-1.89-11.35-4.44-13.36-8.77-13.79-.29-.14.3-5.17,6.48-5.17,2.73,0,5.22.86,7.06,3.02,2.45,2.87,3.55,7.47,4.54,15.38l5.53,42.39,28.73-60.5c.27-.43,7.31-.29,7.44,4.89Z"/>
    <path class="cls-2" d="M516.07,72.04c-1.2-22.99,13.2-44.26,35.19-44.26,13.65,0,21.39,7.9,21.88,17.24.6,11.5-6.64,21.27-32.94,21.27-4.31,0-9.06-.14-14.42-.86-.33,2.01-.47,4.74-.36,6.75.6,11.35,6.74,18.97,18.09,18.97,8.62,0,14.86-4.31,18.24-11.21,1.01,0,5.2.57,5.4,4.31.12,2.3-1.05,4.6-3.36,7.19-4.49,4.89-11.23,7.76-20.28,7.76-16.24,0-26.55-10.35-27.43-27.16ZM539.27,59.54c19.82-.14,25.07-6.9,24.7-14.08-.24-4.6-4.26-9.92-13.02-9.92-11.93,0-20.88,10.06-24.08,23.14,4.78.72,8.81.86,12.4.86Z"/>
  </g>
</svg>