<?xml version="1.0" encoding="UTF-8"?>
<svg id="Layer_1" data-name="Layer 1" xmlns="http://www.w3.org/2000/svg" viewBox="0 0 470.1 470.1">
  <defs>
    <style>
      .cls-1 {
        fill: #f8f8f8;
      }

      .cls-2 {
        fill: #00c2e8;
      }

      .cls-3 {
        fill: #161840;
      }
    </style>
  </defs>
  <circle class="cls-1" cx="235.05" cy="235.05" r="235.05"/>
  <g>
    <path class="cls-2" d="M199.69,159.45c-3.63,0-6.85.18-8.45.35-3.18.32-4.25,3.31-4.02,6.25,3.34,42.58-6.12,92.14-16.9,92.14-8.02,0-10.26-23.16-10.26-43.76,0-12.18.71-23.91.99-34.27.11-3.84-1.3-4.57-4.11-4.91-4.25-.51-7.3-.51-11.52.42-3.22.71-3.98,3.33-7.37,11.31-16.89,39.77-33.2,71.72-33.2,71.72-4.31-32.02,1.22-63.08,5.93-85.75.65-3.12-.85-4.96-3.44-4.92-4.88.09-12.37.24-15.74,2.43-3.17,2.05-4.35,4.25-5.26,8.78-5.23,25.96-8.63,58.53-3.37,83.72,1.14,5.44,2.41,6.73,4.73,8.15,2.32,1.43,12.29,2.7,16.15,2.7,4.38,0,8.4-1.17,11.75-6.84,7.07-12.01,12.74-24.01,23.45-47.12,1.1,30.11,5.39,53.74,26.76,53.74,28.32,0,46.6-70.05,46.6-103.76,0-8.92-4.47-10.38-12.74-10.38"/>
    <path class="cls-2" d="M387.96,207.92c5.13-.12,8.76-1.67,9.65-6.49.53-2.87-1.17-4.71-4.47-4.85,0,0-9.57-.5-20.59-.98,0,0,2.23-12.11,3.31-17.04.54-2.42-.75-4.82-3.84-5.56-3.06-.73-10.1-.78-12.46-.52-1.97.22-3.89,1.39-4.34,3.41-1.11,5.06-2.27,11.16-3.65,18.95-4.09-.09-8.05-.13-10.81-.08-2.58.04-3.78,1.34-4.31,3.44-.53,2.1-.96,5.09-1.13,8.18-.13,2.35,2.45,3.47,5.11,3.37,0,0,3.27-.15,8.39-.39-.95,4.43-2.85,16.33-3.57,23.72-4.62,15.37-14.21,26.73-22.47,26.73-5.06,0-8.08-2.98-8.08-12,0-12.49,2.9-28.28,7.13-44.11,5.96-14.2,9.39-29.99,9.39-37.14,0-2.69-.83-5.71-4.09-6.34-5.88-1.16-11.47-.94-15.38.27-3.49,1.08-4.21,4.72-4.64,6.67-2.02,9.33-5.33,25.88-7.64,40.38-5.15,6.17-11.06,10.5-17.45,11.57-.99-19.21-12.28-27.46-27.84-27.46-27.31,0-44.72,24.09-44.72,51.13,0,21.9,12.07,31.04,29.64,31.04,20.75,0,36.19-14.58,41.96-41.32,5.88-1.17,10.97-4.01,15.37-7.93,0,0-3.31,16.56-3.31,26.29,0,14.74,6.39,22.96,21.4,22.96,12.35,0,23.13-8.62,29.86-19.1,1.8,13.69,9.02,19.1,20.76,19.1,10.77,0,21.15-6.77,28.49-19.01,1.46-2.44,2.53-4.58,1.61-5.64-2.14-2.43-6.2-3.69-7.32-1.67-4.84,8.78-10.04,12.31-15.71,12.31-4.48,0-8.11-2.64-8.11-10.34,0-11.07,6.29-41.02,6.29-41.02,5.54-.2,11.7-.39,17.55-.52M242.22,261.9c-6.28,0-10.48-5.36-10.48-16,0-20.41,7.33-42.36,20.51-42.36,1.49,0,2.8.19,3.96.65-.21.79-.37,1.44-.43,1.81-1.98,11.58.43,18.95,6.01,23.03-2.86,17.92-10.86,32.87-19.57,32.87"/>
  </g>
  <g>
    <path class="cls-3" d="M207.08,359.41l-2.71-11.82h-17.3l-6.34,15.81c-1.21.16-6.31.49-6.75-3.67-.15-1.38.28-2.77.99-4.56l17.18-41.64c1.1-2.77,2.64-3.59,6.72-3.59,3.75,0,5.61,1.38,6.23,4.16l10.59,46.53c.17.82-1.67,2.77-4.36,2.77-2.12,0-3.72-1.22-4.25-4ZM203.28,340.99l-4.91-23.47-9.13,23.47h14.04Z"/>
    <path class="cls-3" d="M251.72,353.95c-.61,5.05.91,6.36,2.84,6.85.09.08-.43,2.93-4.02,2.93-3.1,0-5.75-1.96-6.31-5.7-.12-.41-.18-.9-.24-1.47-2.05,4.56-5.34,7.42-10.32,7.42-7.67,0-13.53-6.03-14.58-16.05-1.28-12.23,4.8-25.02,15.49-25.02,4.98,0,9.44,2.85,11.64,7.5l2.14-19.32c.36-2.77,1.38-3.99,3.34-3.99h1.39c1.8,0,3.71,1.14,3.36,3.99l-4.73,42.87ZM245.41,338.06c-.8-4.56-4.07-8.48-8.8-8.48-7.02,0-10.34,10.35-9.53,18.09.66,6.28,4.13,9.78,8.53,9.78,4.98,0,8.16-4.73,8.81-10.92l.99-8.48Z"/>
    <path class="cls-3" d="M261.62,359.66c-1.62-1.47-2.54-3.18-2.72-4.89-.33-3.18,2.26-4.16,2.6-3.99,2.39,3.34,6.42,6.76,11.73,6.76,4.16,0,6.64-2.04,6.31-5.22-.32-3.02-3.19-3.99-6.96-5.62-4.28-1.87-9.8-4.73-10.52-11.57-.66-6.28,3.78-12.22,12.51-12.22,4.81,0,9.08,1.71,11.71,4.24,1.37,1.38,2.27,3.01,2.44,4.56.33,3.18-2.81,4.32-2.92,4.07-2.04-3.1-6.06-6.44-10.55-6.44-4,0-6.22,2.2-5.9,5.22.32,3.1,3.48,4.4,7.25,6.11,5.48,2.44,10.07,4.97,10.77,10.84.82,7.09-4.32,12.47-13.38,12.47-5.06,0-9.57-1.79-12.37-4.32Z"/>
  </g>
</svg>