<?xml version="1.0" encoding="UTF-8"?>
<svg id="Layer_1" data-name="Layer 1" xmlns="http://www.w3.org/2000/svg" viewBox="0 0 930.05 324.13">
  <defs>
    <style>
      .cls-1 {
        fill: #f8f8f8;
      }

      .cls-2 {
        fill: #00c2e8;
      }

      .cls-3 {
        fill: #161840;
      }
    </style>
  </defs>
  <path class="cls-1" d="M896.43,33.62C875.65,12.85,846.95,0,815.25,0H114.8c-31.7,0-60.4,12.85-81.17,33.62C12.85,54.4,0,83.1,0,114.8h0v94.53h0c0,31.7,12.85,60.4,33.62,81.17s49.47,33.62,81.17,33.62h700.46c31.7,0,60.4-12.85,81.17-33.62,20.77-20.77,33.62-49.47,33.62-81.17h0v-94.53h0c0-31.7-12.85-60.4-33.62-81.17Z"/>
  <g>
    <path class="cls-2" d="M199.97,72.9c-3.16,0-5.96.16-7.34.3-2.76.28-3.7,2.88-3.5,5.44,2.91,37.02-5.32,80.1-14.69,80.1-6.97,0-8.92-20.13-8.92-38.04,0-10.59.61-20.78.86-29.79.09-3.34-1.13-3.97-3.57-4.27-3.7-.44-6.34-.44-10.01.36-2.8.61-3.46,2.89-6.41,9.83-14.69,34.58-28.86,62.35-28.86,62.35-3.75-27.84,1.06-54.84,5.16-74.55.57-2.71-.74-4.32-2.99-4.28-4.24.07-10.75.21-13.69,2.11-2.75,1.79-3.78,3.69-4.57,7.64-4.54,22.57-7.5,50.88-2.93,72.78.99,4.73,2.1,5.85,4.12,7.09,2.02,1.24,10.68,2.35,14.04,2.35,3.81,0,7.31-1.02,10.21-5.95,6.15-10.44,11.08-20.87,20.39-40.96.96,26.17,4.69,46.72,23.26,46.72,24.62,0,40.51-60.9,40.51-90.2,0-7.75-3.88-9.02-11.07-9.02"/>
    <path class="cls-2" d="M236.94,161.96c-5.46,0-9.12-4.66-9.12-13.91,0-17.74,6.38-36.83,17.83-36.83,1.29,0,2.43.17,3.44.57-.18.69-.32,1.25-.38,1.57-1.72,10.07.38,16.48,5.23,20.02-2.48,15.58-9.44,28.58-17.01,28.58M363.63,115.04c4.46-.1,7.62-1.45,8.39-5.64.46-2.5-1.02-4.09-3.89-4.22,0,0-8.32-.43-17.9-.85,0,0,1.94-10.53,2.88-14.82.47-2.1-.66-4.19-3.34-4.83-2.66-.64-8.78-.68-10.83-.45-1.71.19-3.38,1.21-3.77,2.97-.97,4.4-1.97,9.7-3.17,16.48-3.55-.08-7-.11-9.4-.07-2.24.04-3.29,1.17-3.75,2.99-.46,1.82-.83,4.42-.98,7.11-.11,2.04,2.13,3.01,4.44,2.93,0,0,2.84-.13,7.29-.34-.82,3.85-2.47,14.19-3.1,20.62-4.02,13.37-12.36,23.23-19.54,23.23-4.4,0-7.02-2.59-7.02-10.43,0-10.85,2.52-24.58,6.19-38.34,5.18-12.34,8.16-26.07,8.16-32.29,0-2.34-.72-4.96-3.55-5.51-5.11-1.01-9.97-.82-13.37.23-3.04.94-3.66,4.1-4.03,5.79-1.76,8.12-4.63,22.5-6.65,35.11-4.47,5.36-9.61,9.13-15.17,10.06-.86-16.7-10.68-23.87-24.2-23.87-23.74,0-38.88,20.94-38.88,44.45,0,19.04,10.49,26.98,25.77,26.98,18.04,0,31.46-12.67,36.47-35.92,5.1-1.02,9.54-3.49,13.36-6.9,0,0-2.88,14.4-2.88,22.85,0,12.82,5.55,19.96,18.6,19.96,10.73,0,20.1-7.5,25.96-16.6,1.57,11.9,7.84,16.6,18.05,16.6,9.37,0,18.38-5.88,24.76-16.52,1.27-2.12,2.2-3.98,1.4-4.9-1.85-2.11-5.39-3.2-6.36-1.45-4.21,7.63-8.73,10.7-13.66,10.7-3.89,0-7.05-2.29-7.05-8.99,0-9.63,5.47-35.66,5.47-35.66,4.82-.17,10.17-.34,15.26-.45"/>
  </g>
  <g>
    <path class="cls-3" d="M392.84,163.24l12.51-79.51c.65-4.03,2.99-6.04,6.73-6.04h22c15.67,0,25.23,6.76,25.91,19.84.56,10.78-4.61,21.86-19.26,24.88,9.6,2.01,16.52,7.91,17.08,18.55.9,17.11-8.07,29.77-33.67,29.77h-25.74c-4.17,0-6.46-2.45-5.57-7.48ZM424.44,162.52c16.97,0,23.72-8.34,23.01-21.85-.49-9.35-7.78-13.95-18.99-13.95h-19.55l-5.74,35.8h21.28ZM428.79,119.38c15.96,0,21.45-10.5,20.94-20.13-.61-8.92-6.74-13.37-17.81-13.37h-16.54l-5.29,33.5h18.69Z"/>
    <path class="cls-3" d="M469.24,144.98c-1.21-23.01,13.21-44.29,35.21-44.29,13.66,0,21.41,7.91,21.9,17.25.6,11.5-6.65,21.28-32.96,21.28-4.31,0-9.07-.14-14.42-.86-.33,2.01-.47,4.74-.36,6.76.6,11.36,6.75,18.98,18.11,18.98,8.63,0,14.87-4.31,18.25-11.21,1.01,0,5.21.57,5.4,4.31.12,2.3-1.05,4.6-3.36,7.19-4.49,4.89-11.24,7.76-20.3,7.76-16.25,0-26.57-10.35-27.45-27.18ZM492.45,132.47c19.83-.14,25.09-6.9,24.71-14.09-.24-4.6-4.26-9.92-13.03-9.92-11.93,0-20.9,10.06-24.09,23.15,4.78.72,8.82.86,12.41.86Z"/>
    <path class="cls-3" d="M587.1,171.72c-5.18,0-9.09-3.45-9.42-9.63-.2-3.74.66-9.35,2.27-17.11,1.82-9.2,3.03-16.25,2.77-21.28-.5-9.49-5.5-14.38-13.41-14.38-9.2,0-14.91,6.33-19.07,14.67l-6.72,41.84c-.51,3.88-1.73,5.32-4.75,5.32h-1.15c-2.3,0-4.53-1.29-4.02-5.32l10.19-63.41c-.01-.29,1.11-.72,2.55-.72,2.73,0,5.24,1.15,5.35,6.04.11,2.01-.07,4.17-.24,6.33,4.6-8.34,11.52-13.37,21.01-13.37,12.08,0,19.85,8.34,20.49,20.56.32,6.18-1.25,14.67-3.09,23.44-1.49,7.19-2.49,12.8-2.31,16.25.24,4.6,2.74,5.61,5.49,6.04.29,0-.18,4.74-5.93,4.74Z"/>
    <path class="cls-3" d="M604.54,144.98c-1.21-23.01,13.21-44.29,35.21-44.29,13.66,0,21.41,7.91,21.9,17.25.6,11.5-6.65,21.28-32.96,21.28-4.31,0-9.07-.14-14.42-.86-.33,2.01-.47,4.74-.36,6.76.59,11.36,6.75,18.98,18.1,18.98,8.63,0,14.87-4.31,18.25-11.21,1.01,0,5.21.57,5.4,4.31.12,2.3-1.05,4.6-3.36,7.19-4.49,4.89-11.24,7.76-20.3,7.76-16.25,0-26.57-10.35-27.45-27.18ZM627.75,132.47c19.84-.14,25.09-6.9,24.71-14.09-.24-4.6-4.26-9.92-13.03-9.92-11.93,0-20.9,10.06-24.09,23.15,4.78.72,8.82.86,12.41.86Z"/>
    <path class="cls-3" d="M672.83,166.83l8.97-56.51h-7.62c-2.45,0-3.79-1.01-3.88-2.73-.06-1.15.41-3.16,1.08-4.03.67-1.01,1.79-1.44,3.52-1.44h8.2l1.3-8.05c1.93-12.51,7.31-22.43,19.53-22.43,4.46,0,7.98,1.29,10.24,3.31,1.64,1.15,2.46,3.02,2.54,4.6.18,3.45-2.88,5.32-3.19,5.03-1.73-2.88-5.12-4.46-8.72-4.46-7.62,0-9.96,7.48-11.39,15.82l-.97,6.18h11.79c2.16,0,3.5,1.01,3.6,2.88.04.72-.19,1.87-.57,2.73-.62,1.87-2.17,2.59-3.75,2.59h-11.93l-8.97,56.51c-.54,3.31-2.07,4.31-4.81,4.31h-1.01c-2.3,0-4.52-1.15-3.96-4.31ZM712.36,155.76l7.91-49.32c.68-3.45,1.91-4.74,4.21-4.74h1.73c2.16,0,4.66,1.15,3.99,4.74l-7.9,49.61c-1.39,9.06,2.17,11.22,5.36,11.79.14,0-.08,3.88-5.26,3.88-7.19,0-11.78-5.32-10.04-15.96ZM722.87,81.86c-.22-4.17,2.36-7.19,6.53-7.19,3.74,0,6.14,2.01,6.32,5.46.22,4.17-2.2,7.48-6.51,7.48-3.59,0-6.15-2.16-6.34-5.75Z"/>
    <path class="cls-3" d="M746.4,149.58l6.28-39.25h-6.47c-2.45,0-3.65-1.01-3.74-2.73-.05-1.01.27-3.16,1.08-4.03.52-1.01,1.79-1.44,3.52-1.44h7.05l1.38-9.35c.83-6.18,3.33-7.77,6.78-7.77,2.59,0,4.08,1.01,4.1,1.44l-2.34,15.67h14.23c2.16,0,3.65,1.01,3.6,2.88.04.72-.19,1.87-.58,2.59-.61,2.01-2.16,2.73-3.88,2.73h-14.95l-6.06,37.96c-1.74,10.64,1.53,15.53,8.29,15.53,3.02,0,5.68-1.29,7.86-3.74.44.14,1.79,1.15,1.91,3.45.11,2.16-.67,3.74-2.31,5.32-2.19,2.16-5.58,3.31-9.75,3.31-11.5,0-18.26-8.2-15.99-22.57Z"/>
    <path class="cls-3" d="M786.56,164.1c-2.43-2.45-3.87-5.18-3.99-7.48-.22-4.17,3.46-5.32,3.9-5.18,3.35,6.33,10.73,12.65,20.94,12.65,9.06,0,14.7-4.74,14.34-11.65-.34-6.47-6.35-8.63-13.85-11.79-7.95-3.45-17.4-8.2-17.98-19.41-.58-11.07,7.69-20.56,21.93-20.56,8.77,0,16.14,3.45,20.26,7.91,2.13,2.16,3.41,4.74,3.52,6.9.21,4.03-3.88,5.46-4.19,5.18-3.06-6.33-10.4-11.94-19.17-11.94s-13.53,5.18-13.2,11.5c.35,6.76,6.54,9.49,14.19,12.8,9.42,4.17,17.55,8.34,18.08,18.55.77,11.93-8.41,20.56-23.22,20.56-9.2,0-17-3.45-21.56-8.05Z"/>
  </g>
  <g>
    <path class="cls-3" d="M218.92,251.36c-.95,0-1.65-.12-2.09-.36-.44-.24-.73-.67-.88-1.29l-8.42-33.38c0-.07.05-.17.14-.28.09-.11.25-.23.47-.36.22-.13.47-.23.74-.3.27-.07.6-.11.96-.11s.71.07,1.04.22c.33.15.62.4.88.77.26.37.46.86.61,1.48l6.65,29.04,7.75-24.37c.22-.66.55-1.16.99-1.51.44-.35,1.1-.52,1.98-.52s1.53.17,1.95.52c.42.35.72.85.91,1.51l7.7,24.25,6.82-28.93c.11-.62.28-1.12.52-1.48.24-.37.51-.62.83-.77.31-.15.65-.22,1.02-.22.33,0,.63.04.91.11.28.07.51.17.72.3.2.13.35.25.44.36.09.11.12.2.08.28l-8.31,33.38c-.15.59-.44,1.01-.88,1.26-.44.26-1.14.39-2.09.39-.88,0-1.52-.14-1.93-.41-.4-.27-.7-.71-.88-1.29l-7.81-24.86-8.19,24.86c-.15.59-.4,1.02-.77,1.29-.37.28-.99.41-1.87.41Z"/>
    <path class="cls-3" d="M267.04,251.64c-2.64,0-4.98-.6-7.01-1.79s-3.63-2.82-4.79-4.9c-1.15-2.07-1.73-4.43-1.73-7.07s.58-4.99,1.73-7.04c1.16-2.05,2.76-3.67,4.81-4.87,2.05-1.19,4.4-1.79,7.04-1.79s4.97.6,6.98,1.79c2.02,1.19,3.6,2.83,4.76,4.92,1.15,2.09,1.73,4.46,1.73,7.09s-.58,4.99-1.73,7.04c-1.16,2.05-2.75,3.67-4.79,4.84s-4.37,1.76-7.01,1.76ZM267.09,248.34c1.87,0,3.54-.45,5-1.35,1.47-.9,2.62-2.13,3.47-3.68.84-1.56,1.26-3.33,1.26-5.31s-.42-3.76-1.26-5.33c-.84-1.58-2-2.83-3.47-3.77-1.47-.93-3.15-1.4-5.06-1.4s-3.55.46-5.03,1.38c-1.48.92-2.65,2.15-3.49,3.71-.84,1.56-1.26,3.33-1.26,5.31s.42,3.77,1.26,5.36c.84,1.6,2.01,2.84,3.49,3.74,1.48.9,3.18,1.35,5.09,1.35Z"/>
    <path class="cls-3" d="M287.5,251.2c-.51,0-.94-.13-1.27-.39-.33-.26-.49-.75-.49-1.48v-24.31s.14-.12.41-.25c.28-.13.61-.19,1.02-.19.51,0,1.01.17,1.48.52.48.35.77,1.05.88,2.12.04.44.06.88.08,1.32.02.44.03.9.03,1.38l.06,9.08v10.34c0,.73-.17,1.23-.5,1.48-.33.26-.75.39-1.27.39h-.44ZM288.65,233.21l.99-3.3c.55-1.91,1.42-3.34,2.61-4.29,1.19-.95,2.65-1.43,4.37-1.43.77,0,1.45.12,2.04.36.59.24,1.05.57,1.4.99.35.42.52.91.52,1.46,0,.4-.06.73-.19.99-.13.26-.26.48-.39.66-.13.18-.26.3-.38.36-.13.05-.21.06-.25.03-.37-.29-.82-.54-1.35-.74-.53-.2-1.16-.3-1.9-.3-2.24,0-3.87,1.01-4.9,3.02-1.03,2.02-1.54,4.67-1.54,7.98l-1.05-5.78Z"/>
    <path class="cls-3" d="M305.65,251.2c-.51,0-.94-.13-1.27-.39-.33-.26-.49-.75-.49-1.48v-35.37c0-.07.14-.17.41-.28.28-.11.61-.16,1.02-.16s.8.1,1.18.3c.38.2.71.55.96,1.04.26.5.39,1.22.39,2.17v19.69l10.61-10.73c.44-.48.87-.83,1.29-1.04.42-.22.8-.35,1.13-.38.51,0,.93.12,1.24.36.31.24.54.49.69.74.15.26.2.46.17.61l-11,10.83,12.48,12.38c.07.11.02.31-.16.6-.18.29-.43.56-.74.8-.31.24-.72.36-1.24.36-.33-.04-.7-.16-1.1-.36-.4-.2-.84-.56-1.32-1.07l-12.04-11.99v11.5c0,.73-.17,1.23-.5,1.48-.33.26-.75.39-1.27.39h-.44Z"/>
    <path class="cls-3" d="M339.91,261.7c-.51,0-.94-.13-1.27-.38-.33-.26-.49-.75-.49-1.49v-34.82s.14-.12.41-.25c.28-.13.61-.19,1.02-.19.37,0,.72.08,1.07.25.35.17.64.45.88.85.24.4.38.99.41,1.76.04.37.06.83.08,1.38.02.55.03,1.03.03,1.43l-.06-.5c.7-1.14,1.52-2.12,2.48-2.94.95-.83,2.05-1.47,3.3-1.92,1.25-.46,2.62-.69,4.12-.69,2.35,0,4.46.57,6.33,1.71,1.87,1.14,3.35,2.73,4.43,4.78,1.08,2.05,1.62,4.46,1.62,7.21s-.54,5.11-1.62,7.18c-1.08,2.07-2.56,3.68-4.43,4.84-1.87,1.16-4.03,1.73-6.49,1.73-1.61,0-3.06-.26-4.34-.77-1.28-.51-2.37-1.18-3.25-2.01s-1.56-1.7-2.03-2.61v13.58c0,.73-.17,1.23-.5,1.49-.33.26-.75.38-1.27.38h-.44ZM351.19,248.34c1.83,0,3.45-.44,4.84-1.32,1.39-.88,2.48-2.11,3.25-3.68.77-1.58,1.15-3.39,1.15-5.45s-.39-3.79-1.18-5.33c-.79-1.54-1.88-2.76-3.27-3.66-1.39-.9-2.95-1.35-4.68-1.35-2.27,0-4.19.58-5.75,1.73-1.56,1.16-2.72,2.69-3.49,4.59v5.83c0,1.61.41,3.07,1.24,4.37.83,1.3,1.93,2.34,3.3,3.11,1.38.77,2.91,1.16,4.59,1.16Z"/>
    <path class="cls-3" d="M381.71,251.64c-2.71,0-5.09-.58-7.12-1.73-2.03-1.16-3.62-2.76-4.76-4.81-1.14-2.05-1.71-4.4-1.71-7.04s.57-5,1.71-7.09c1.14-2.09,2.7-3.74,4.7-4.95,2-1.21,4.26-1.81,6.79-1.81s4.66.55,6.49,1.65c1.83,1.1,3.26,2.62,4.29,4.57,1.03,1.94,1.54,4.2,1.54,6.76v.38c0,.48-.11.8-.33.96s-.57.25-1.04.25h-20.46c0,.15,0,.29.03.41.02.13.03.27.03.41.22,1.76.77,3.3,1.65,4.62s2.03,2.35,3.44,3.08c1.41.73,3.02,1.1,4.81,1.1,1.69,0,3.11-.23,4.26-.69,1.16-.46,2.1-1.05,2.83-1.79.73-.73,1.32-1.52,1.76-2.37.04-.04.17-.03.38.03.22.06.47.16.74.3.27.15.51.37.71.66.2.29.3.66.3,1.1,0,.4-.18.9-.55,1.49-.37.59-.94,1.19-1.71,1.82-.88.7-2.05,1.32-3.52,1.87-1.47.55-3.23.83-5.28.83ZM389.74,235.85c-.07-1.69-.48-3.17-1.21-4.45-.73-1.28-1.7-2.27-2.91-2.97-1.21-.7-2.64-1.04-4.29-1.04s-3.14.36-4.46,1.07c-1.32.72-2.41,1.71-3.27,3-.86,1.28-1.42,2.75-1.68,4.4h17.82Z"/>
    <path class="cls-3" d="M399.92,251.2c-.51,0-.94-.13-1.27-.39-.33-.26-.49-.75-.49-1.48v-24.31s.14-.12.41-.25c.28-.13.61-.19,1.02-.19.51,0,1.01.17,1.48.52.48.35.77,1.05.88,2.12.04.44.06.88.08,1.32.02.44.03.9.03,1.38l.06,9.08v10.34c0,.73-.17,1.23-.5,1.48-.33.26-.75.39-1.27.39h-.44ZM401.07,233.21l.99-3.3c.55-1.91,1.42-3.34,2.61-4.29,1.19-.95,2.65-1.43,4.37-1.43.77,0,1.45.12,2.04.36.59.24,1.05.57,1.4.99.35.42.52.91.52,1.46,0,.4-.06.73-.19.99-.13.26-.26.48-.39.66-.13.18-.26.3-.38.36-.13.05-.21.06-.25.03-.37-.29-.82-.54-1.35-.74-.53-.2-1.16-.3-1.9-.3-2.24,0-3.87,1.01-4.9,3.02-1.03,2.02-1.54,4.67-1.54,7.98l-1.05-5.78Z"/>
    <path class="cls-3" d="M418.07,251.2c-.51,0-.94-.13-1.27-.39-.33-.26-.49-.75-.49-1.48v-35.37c0-.07.14-.17.41-.28.28-.11.61-.16,1.02-.16s.8.1,1.18.3c.38.2.71.55.96,1.04.26.5.39,1.22.39,2.17v19.69l10.61-10.73c.44-.48.87-.83,1.29-1.04.42-.22.8-.35,1.13-.38.51,0,.93.12,1.24.36.31.24.54.49.69.74.15.26.2.46.17.61l-11,10.83,12.48,12.38c.07.11.02.31-.16.6-.18.29-.43.56-.74.8-.31.24-.72.36-1.24.36-.33-.04-.7-.16-1.1-.36-.4-.2-.84-.56-1.32-1.07l-12.04-11.99v11.5c0,.73-.17,1.23-.5,1.48-.33.26-.75.39-1.27.39h-.44Z"/>
    <path class="cls-3" d="M449.86,251.64c-2.16,0-4.02-.27-5.56-.8-1.54-.53-2.73-1.16-3.57-1.9-.59-.51-1.01-.99-1.27-1.43-.26-.44-.38-.86-.38-1.26,0-.48.13-.85.38-1.13.26-.27.54-.49.85-.63.31-.15.49-.2.52-.17.84,1.21,2.01,2.22,3.49,3.02,1.48.81,3.33,1.21,5.53,1.21s3.83-.4,5-1.21c1.17-.81,1.76-1.87,1.76-3.19,0-1.06-.31-1.87-.94-2.42-.62-.55-1.49-1-2.61-1.35-1.12-.35-2.45-.67-3.99-.96-1.03-.22-2.07-.48-3.14-.77-1.06-.29-2.06-.7-3-1.21-.94-.51-1.69-1.2-2.26-2.06-.57-.86-.85-1.95-.85-3.27,0-1.58.41-2.95,1.24-4.12.82-1.17,2-2.1,3.52-2.78,1.52-.68,3.31-1.02,5.36-1.02,2.27,0,4.15.31,5.64.93,1.48.62,2.58,1.36,3.27,2.2.26.29.46.61.6.96.15.35.22.67.22.96,0,.44-.14.82-.41,1.13-.27.31-.56.53-.85.66-.29.13-.46.17-.49.14-.51-.77-1.16-1.44-1.95-2.01-.79-.57-1.68-1.02-2.67-1.35-.99-.33-2.09-.5-3.3-.5-2.05,0-3.65.4-4.79,1.21-1.14.81-1.71,1.83-1.71,3.08,0,.99.29,1.76.88,2.31.59.55,1.42.98,2.5,1.29,1.08.31,2.37.63,3.88.96,1.06.22,2.15.49,3.27.8,1.12.31,2.16.73,3.13,1.26.97.53,1.75,1.24,2.34,2.12.59.88.88,1.98.88,3.3,0,2.38-.94,4.31-2.83,5.77-1.89,1.47-4.46,2.2-7.73,2.2Z"/>
    <path class="cls-3" d="M484.61,251.64c-1.65,0-3.03-.3-4.12-.91-1.1-.61-1.91-1.53-2.42-2.78-.51-1.25-.77-2.8-.77-4.67v-15.12h-2.64c-.62,0-1.07-.13-1.35-.39-.27-.26-.41-.62-.41-1.1v-.33c0-.51.14-.9.41-1.16.27-.26.72-.38,1.35-.38h2.64v-4.56c0-.73.16-1.24.47-1.51.31-.28.72-.41,1.24-.41h.44c.51,0,.93.13,1.24.39.31.26.47.77.47,1.54v4.56h6.82c.66,0,1.12.13,1.38.38.26.26.38.62.38,1.1v.33c0,.51-.14.9-.41,1.15-.27.26-.74.39-1.4.39h-6.82v14.68c0,1.91.31,3.31.94,4.21.62.9,1.63,1.35,3.02,1.35.92,0,1.71-.19,2.39-.58.68-.38,1.22-.89,1.62-1.51.07-.04.2,0,.39.11.18.11.37.3.55.58.18.28.27.63.27,1.07,0,.33-.08.67-.25,1.02-.17.35-.43.69-.8,1.02-.44.44-1.04.81-1.81,1.1s-1.71.44-2.8.44Z"/>
    <path class="cls-3" d="M496.33,251.2c-.51,0-.94-.13-1.27-.39-.33-.26-.49-.75-.49-1.48v-35.37c0-.07.14-.17.41-.28.28-.11.61-.16,1.02-.16s.8.1,1.18.3c.38.2.71.55.96,1.04.26.5.38,1.22.38,2.17v13.25l-.11-.66c.62-1.1,1.37-2.05,2.23-2.86.86-.81,1.88-1.44,3.05-1.9,1.17-.46,2.46-.69,3.85-.69,2.35,0,4.28.49,5.8,1.48,1.52.99,2.66,2.35,3.41,4.07.75,1.72,1.13,3.72,1.13,6v13.58c0,.73-.17,1.23-.5,1.48-.33.26-.75.39-1.26.39h-.38c-.51,0-.94-.13-1.27-.39-.33-.26-.49-.75-.49-1.48v-13.2c0-2.6-.62-4.65-1.87-6.13-1.25-1.48-3.01-2.23-5.28-2.23-1.61,0-3.05.35-4.32,1.04-1.26.7-2.25,1.68-2.94,2.94-.7,1.26-1.04,2.76-1.04,4.48v13.09c0,.73-.17,1.23-.5,1.48-.33.26-.75.39-1.27.39h-.44Z"/>
    <path class="cls-3" d="M536.42,251.64c-2.71,0-5.09-.58-7.12-1.73s-3.62-2.76-4.76-4.81c-1.14-2.05-1.71-4.4-1.71-7.04s.57-5,1.71-7.09c1.14-2.09,2.7-3.74,4.7-4.95s4.26-1.81,6.79-1.81,4.66.55,6.49,1.65c1.83,1.1,3.26,2.62,4.29,4.57s1.54,4.2,1.54,6.76v.38c0,.48-.11.8-.33.96-.22.17-.57.25-1.04.25h-20.46c0,.15,0,.29.03.41.02.13.03.27.03.41.22,1.76.77,3.3,1.65,4.62.88,1.32,2.03,2.35,3.44,3.08,1.41.73,3.02,1.1,4.81,1.1,1.69,0,3.11-.23,4.26-.69,1.16-.46,2.1-1.05,2.83-1.79.73-.73,1.32-1.52,1.76-2.37.04-.04.17-.03.38.03.22.06.47.16.74.3.28.15.51.37.72.66.2.29.3.66.3,1.1,0,.4-.18.9-.55,1.49-.37.59-.93,1.19-1.71,1.82-.88.7-2.05,1.32-3.52,1.87-1.47.55-3.23.83-5.28.83ZM544.45,235.85c-.07-1.69-.48-3.17-1.21-4.45-.73-1.28-1.71-2.27-2.92-2.97-1.21-.7-2.64-1.04-4.29-1.04s-3.13.36-4.46,1.07c-1.32.72-2.41,1.71-3.27,3-.86,1.28-1.42,2.75-1.68,4.4h17.82Z"/>
    <path class="cls-3" d="M559.03,261.7c-.37,0-.71-.07-1.02-.22-.31-.15-.57-.31-.77-.5-.2-.18-.3-.31-.3-.39l4.51-11c-.51-.04-.92-.15-1.21-.33-.29-.18-.53-.51-.71-.99l-9.74-22.55c-.04-.11.04-.26.22-.44.18-.18.43-.36.74-.52s.69-.23,1.13-.19c.51,0,.98.17,1.4.52.42.35.8.96,1.13,1.84l8.25,20.02,7.26-19.91c.33-.99.74-1.66,1.24-2.01.49-.35,1-.5,1.51-.47.33,0,.64.07.94.22.29.15.53.3.71.47.18.17.26.3.22.41l-12.98,33.66c-.33.92-.71,1.54-1.16,1.87-.44.33-.9.5-1.38.5Z"/>
    <path class="cls-3" d="M580.37,227.22c-.11.18-.3.29-.58.33-.28.04-.54,0-.8-.08-.26-.09-.45-.23-.58-.41-.13-.18-.16-.42-.08-.71l3.13-9.51c.22-.7.46-1.2.72-1.51.26-.31.73-.47,1.43-.47h.38c.48,0,.88.17,1.21.5s.5.81.5,1.43v.22c0,.37-.07.76-.22,1.18-.15.42-.38.89-.71,1.4l-4.4,7.64Z"/>
    <path class="cls-3" d="M593.24,251.2c-.51,0-.94-.13-1.27-.39-.33-.26-.5-.75-.5-1.48v-35.37c0-.07.14-.17.41-.28.27-.11.6-.16.96-.16.44,0,.85.1,1.24.3.38.2.7.55.93,1.04.24.5.36,1.22.36,2.17v32.29c0,.73-.16,1.23-.47,1.48-.31.26-.72.39-1.24.39h-.44Z"/>
    <path class="cls-3" d="M604.73,251.2c-.51,0-.94-.13-1.27-.39-.33-.26-.5-.75-.5-1.48v-35.37c0-.07.14-.17.41-.28.27-.11.6-.16.96-.16.44,0,.85.1,1.24.3.38.2.7.55.93,1.04.24.5.36,1.22.36,2.17v32.29c0,.73-.16,1.23-.47,1.48-.31.26-.72.39-1.24.39h-.44Z"/>
    <path class="cls-3" d="M625.91,251.2c-.51,0-.94-.13-1.27-.39-.33-.26-.5-.75-.5-1.48v-35.37c0-.07.14-.17.41-.28.27-.11.6-.16.96-.16.44,0,.85.1,1.24.3.38.2.7.55.93,1.04.24.5.36,1.22.36,2.17v32.29c0,.73-.16,1.23-.47,1.48-.31.26-.72.39-1.24.39h-.44Z"/>
    <path class="cls-3" d="M646.86,251.64c-2.64,0-4.98-.6-7.01-1.79s-3.63-2.82-4.79-4.9c-1.15-2.07-1.73-4.43-1.73-7.07s.58-4.99,1.73-7.04c1.16-2.05,2.76-3.67,4.81-4.87,2.05-1.19,4.4-1.79,7.04-1.79s4.97.6,6.99,1.79c2.02,1.19,3.6,2.83,4.76,4.92,1.16,2.09,1.73,4.46,1.73,7.09s-.58,4.99-1.73,7.04c-1.15,2.05-2.75,3.67-4.79,4.84-2.03,1.17-4.37,1.76-7.01,1.76ZM646.92,248.34c1.87,0,3.54-.45,5-1.35,1.47-.9,2.62-2.13,3.46-3.68s1.27-3.33,1.27-5.31-.42-3.76-1.27-5.33c-.84-1.58-2-2.83-3.46-3.77-1.47-.93-3.15-1.4-5.06-1.4s-3.55.46-5.03,1.38c-1.49.92-2.65,2.15-3.49,3.71-.84,1.56-1.26,3.33-1.26,5.31s.42,3.77,1.26,5.36c.84,1.6,2.01,2.84,3.49,3.74,1.48.9,3.18,1.35,5.09,1.35Z"/>
    <path class="cls-3" d="M674.2,251.31c-.51,0-.93-.04-1.26-.11-.33-.07-.58-.2-.74-.39-.17-.18-.32-.44-.47-.77l-9.9-24.31c0-.11.08-.26.25-.44.17-.18.4-.35.71-.5.31-.15.69-.22,1.13-.22.51,0,.98.17,1.4.52.42.35.82,1,1.18,1.95l7.7,20.46,7.87-20.46c.37-.99.77-1.65,1.21-1.98s.92-.5,1.43-.5c.37,0,.7.08.99.25.29.17.52.33.69.5s.23.3.19.41l-9.79,24.2c-.11.33-.27.6-.5.8-.22.2-.49.35-.82.44-.33.09-.75.14-1.27.14Z"/>
    <path class="cls-3" d="M701.59,251.64c-2.71,0-5.09-.58-7.12-1.73s-3.62-2.76-4.76-4.81c-1.14-2.05-1.71-4.4-1.71-7.04s.57-5,1.71-7.09c1.14-2.09,2.7-3.74,4.7-4.95s4.26-1.81,6.79-1.81,4.66.55,6.49,1.65c1.83,1.1,3.26,2.62,4.29,4.57s1.54,4.2,1.54,6.76v.38c0,.48-.11.8-.33.96-.22.17-.57.25-1.04.25h-20.46c0,.15,0,.29.03.41.02.13.03.27.03.41.22,1.76.77,3.3,1.65,4.62.88,1.32,2.03,2.35,3.44,3.08,1.41.73,3.02,1.1,4.81,1.1,1.69,0,3.11-.23,4.26-.69,1.16-.46,2.1-1.05,2.83-1.79.73-.73,1.32-1.52,1.76-2.37.04-.04.17-.03.38.03.22.06.47.16.74.3.28.15.51.37.72.66.2.29.3.66.3,1.1,0,.4-.18.9-.55,1.49-.37.59-.93,1.19-1.71,1.82-.88.7-2.05,1.32-3.52,1.87-1.47.55-3.23.83-5.28.83ZM709.62,235.85c-.07-1.69-.48-3.17-1.21-4.45-.73-1.28-1.71-2.27-2.92-2.97-1.21-.7-2.64-1.04-4.29-1.04s-3.13.36-4.46,1.07c-1.32.72-2.41,1.71-3.27,3-.86,1.28-1.42,2.75-1.68,4.4h17.82Z"/>
    <path class="cls-3" d="M719.57,251.36c-.77,0-1.37-.21-1.79-.63-.42-.42-.63-1.02-.63-1.79v-.5c0-.77.2-1.37.61-1.79.4-.42.99-.63,1.76-.63h.55c.81,0,1.42.21,1.84.63.42.42.63,1.02.63,1.79v.5c0,.77-.21,1.37-.63,1.79-.42.42-1.04.63-1.84.63h-.5Z"/>
  </g>
</svg>