<?xml version="1.0" encoding="UTF-8"?>
<svg id="Layer_1" data-name="Layer 1" xmlns="http://www.w3.org/2000/svg" viewBox="0 0 470.1 470.1">
  <defs>
    <style>
      .cls-1 {
        fill: #f8f8f8;
      }

      .cls-2 {
        fill: #00c2e8;
      }

      .cls-3 {
        fill: #161840;
      }
    </style>
  </defs>
  <circle class="cls-1" cx="235.05" cy="235.05" r="235.05"/>
  <g>
    <path class="cls-2" d="M199.69,159.45c-3.63,0-6.85.18-8.45.35-3.18.32-4.25,3.31-4.02,6.25,3.34,42.58-6.12,92.14-16.9,92.14-8.02,0-10.26-23.16-10.26-43.76,0-12.18.71-23.91.99-34.27.11-3.84-1.3-4.57-4.11-4.91-4.25-.51-7.3-.51-11.52.42-3.22.71-3.98,3.33-7.37,11.31-16.89,39.77-33.2,71.72-33.2,71.72-4.31-32.02,1.22-63.08,5.93-85.75.65-3.12-.85-4.96-3.44-4.92-4.88.09-12.37.24-15.74,2.43-3.17,2.05-4.35,4.25-5.26,8.78-5.23,25.96-8.63,58.53-3.37,83.72,1.14,5.44,2.41,6.73,4.73,8.15,2.32,1.43,12.29,2.7,16.15,2.7,4.38,0,8.4-1.17,11.75-6.84,7.07-12.01,12.74-24.01,23.45-47.12,1.1,30.11,5.39,53.74,26.76,53.74,28.32,0,46.6-70.05,46.6-103.76,0-8.92-4.46-10.38-12.74-10.38"/>
    <path class="cls-2" d="M387.96,207.92c5.13-.12,8.76-1.67,9.65-6.49.53-2.87-1.17-4.71-4.47-4.85,0,0-9.57-.5-20.59-.98,0,0,2.23-12.11,3.31-17.04.54-2.42-.75-4.82-3.84-5.56-3.06-.73-10.1-.78-12.46-.52-1.97.22-3.89,1.39-4.34,3.41-1.11,5.06-2.27,11.16-3.65,18.95-4.09-.09-8.05-.13-10.81-.08-2.58.04-3.78,1.34-4.31,3.44-.53,2.1-.96,5.09-1.13,8.18-.13,2.35,2.45,3.47,5.11,3.37,0,0,3.27-.15,8.39-.39-.95,4.43-2.85,16.33-3.57,23.72-4.62,15.37-14.21,26.73-22.47,26.73-5.06,0-8.08-2.98-8.08-12,0-12.49,2.9-28.28,7.13-44.11,5.96-14.2,9.39-29.99,9.39-37.14,0-2.69-.83-5.71-4.09-6.34-5.88-1.16-11.47-.94-15.38.27-3.49,1.08-4.21,4.72-4.64,6.67-2.02,9.33-5.33,25.88-7.64,40.38-5.15,6.17-11.06,10.5-17.45,11.57-.99-19.21-12.28-27.46-27.84-27.46-27.31,0-44.72,24.09-44.72,51.13,0,21.9,12.07,31.04,29.64,31.04,20.75,0,36.19-14.58,41.96-41.32,5.88-1.17,10.97-4.01,15.37-7.93,0,0-3.31,16.56-3.31,26.29,0,14.74,6.39,22.96,21.4,22.96,12.35,0,23.13-8.62,29.86-19.1,1.8,13.69,9.02,19.1,20.76,19.1,10.77,0,21.15-6.77,28.49-19.01,1.46-2.44,2.53-4.58,1.61-5.64-2.14-2.43-6.2-3.69-7.32-1.67-4.84,8.78-10.04,12.31-15.71,12.31-4.48,0-8.11-2.64-8.11-10.34,0-11.07,6.29-41.02,6.29-41.02,5.54-.2,11.7-.39,17.55-.52M242.22,261.89c-6.28,0-10.48-5.36-10.48-16,0-20.41,7.33-42.36,20.51-42.36,1.49,0,2.8.19,3.96.65-.21.79-.37,1.44-.43,1.81-1.98,11.58.43,18.95,6.01,23.03-2.86,17.92-10.86,32.87-19.57,32.87"/>
  </g>
  <g>
    <path class="cls-3" d="M132.11,351.25l3.98-37.08c.3-3.03,1.75-4.34,4.1-4.34h8.62c8.49,0,14.01,4.62,14.75,11.71,1.06,10.13-4.29,17.02-15.26,17.02h-7.73l-1.35,12.75c-.18,2.27-1.23,3.38-3.23,3.38h-.83c-2,0-3.3-1.24-3.05-3.45ZM147.86,332.99c6,0,9.34-4.34,8.68-10.68-.46-4.41-3.19-6.75-8.16-6.75h-5.31l-1.83,17.44h6.62Z"/>
    <path class="cls-3" d="M166.62,351.39l3.29-29.84c.04-.27.96-.69,2.14-.69,1.38,0,2.77.76,3.23,2.48.33,1.17.3,2.83.18,4.34,1.45-4.62,3.86-7.24,7.25-7.24,2.69,0,4.61,1.86,4.84,4.07.4,3.79-2.65,5.03-2.72,4.96-.67-1.1-1.8-2.07-3.53-2.07-3.59,0-5.61,3.79-6.54,11.99l-1.37,11.99c-.25,2.21-1.04,3.24-2.97,3.24h-.69c-1.93,0-3.3-1.17-3.1-3.24Z"/>
    <path class="cls-3" d="M189.3,341.32c-1.15-10.96,4.3-20.88,14.65-20.88,8.14,0,13.75,5.44,14.62,13.78,1.15,10.96-4.22,20.95-14.5,20.95-8.21,0-13.9-5.51-14.77-13.85ZM211.85,333.95c-.52-4.96-3.39-7.99-7.53-7.99-6.28,0-8.96,8.61-8.23,15.64.52,4.96,3.4,8.06,7.54,8.06,6.21,0,8.95-8.75,8.22-15.71Z"/>
    <path class="cls-3" d="M261.32,349.66c-.21-2,.21-4.62.67-8.06.83-5.93,1.02-8.06.82-9.99-.35-3.38-2.23-5.51-5.06-5.51-3.31,0-5.4,2.41-6.65,5.65l-2.06,19.23c-.35,2.62-1.14,3.65-3.27,3.65h-.69c-1.59,0-3.2-.9-2.87-3.65l1.88-17.64c.43-4.41-1.79-7.24-4.9-7.24s-5.23,2.14-6.88,5.45l-2.1,19.43c-.28,2.62-1.14,3.65-3.2,3.65h-.69c-1.66,0-3.2-.9-2.94-3.65l3.19-29.5c.05-.21.9-.62,1.87-.62,1.52,0,3.25.69,3.83,2.96.14.69.16,1.52.17,2.27,1.99-3.38,4.79-5.65,9.14-5.65s7.51,2.55,8.74,6.34c2.01-3.86,5.2-6.34,9.82-6.34,5.04,0,9.04,3.93,9.61,9.37.3,2.83,0,5.93-.87,11.44-.53,3.52-.88,6.13-.79,7.58.16,2.14,1.32,2.76,2.66,3.03.08.07-.16,3.1-3.81,3.1-3.1,0-5.25-2-5.59-5.31Z"/>
    <path class="cls-3" d="M275.35,341.32c-1.15-10.96,4.3-20.88,14.65-20.88,8.14,0,13.75,5.44,14.62,13.78,1.15,10.96-4.22,20.95-14.5,20.95-8.21,0-13.9-5.51-14.77-13.85ZM297.9,333.95c-.52-4.96-3.39-7.99-7.53-7.99-6.28,0-8.96,8.61-8.23,15.64.52,4.96,3.4,8.06,7.54,8.06,6.21,0,8.95-8.75,8.22-15.71Z"/>
    <path class="cls-3" d="M309.61,351.52c-1.37-1.24-2.14-2.69-2.3-4.13-.28-2.69,1.91-3.51,2.2-3.38,2.02,2.83,5.43,5.72,9.91,5.72,3.52,0,5.62-1.72,5.33-4.41-.27-2.55-2.7-3.38-5.88-4.76-3.62-1.58-8.29-4-8.89-9.79-.56-5.31,3.19-10.34,10.58-10.34,4.07,0,7.67,1.45,9.9,3.58,1.16,1.17,1.92,2.55,2.06,3.86.28,2.69-2.38,3.65-2.47,3.45-1.72-2.62-5.12-5.44-8.92-5.44-3.38,0-5.26,1.86-4.99,4.41.27,2.62,2.94,3.72,6.13,5.17,4.63,2.07,8.51,4.2,9.1,9.17.7,6-3.66,10.54-11.31,10.54-4.28,0-8.09-1.51-10.46-3.65Z"/>
  </g>
</svg>