<?xml version="1.0" encoding="UTF-8"?>
<svg id="Layer_1" data-name="Layer 1" xmlns="http://www.w3.org/2000/svg" viewBox="0 0 491.83 99.6">
  <defs>
    <style>
      .cls-1 {
        fill: #00c2e8;
      }

      .cls-2 {
        fill: #161840;
      }
    </style>
  </defs>
  <g>
    <path class="cls-1" d="M103.69.24c-3.16,0-5.95.16-7.34.3-2.76.28-3.69,2.88-3.49,5.43,2.91,37-5.32,80.05-14.68,80.05-6.97,0-8.91-20.12-8.91-38.02,0-10.58.61-20.77.86-29.77.09-3.34-1.13-3.97-3.57-4.26-3.7-.44-6.34-.44-10.01.36-2.8.61-3.46,2.89-6.41,9.83-14.68,34.56-28.84,62.31-28.84,62.31-3.74-27.82,1.06-54.81,5.16-74.51.57-2.71-.74-4.31-2.99-4.27-4.24.07-10.75.21-13.68,2.11-2.75,1.78-3.78,3.69-4.57,7.63C.67,39.99-2.28,68.28,2.29,90.16c.99,4.73,2.1,5.85,4.11,7.08,2.02,1.24,10.68,2.35,14.03,2.35,3.81,0,7.3-1.02,10.21-5.95,6.15-10.44,11.07-20.86,20.38-40.94.96,26.16,4.69,46.69,23.25,46.69,24.61,0,40.49-60.86,40.49-90.15,0-7.75-3.88-9.02-11.07-9.02"/>
    <path class="cls-1" d="M140.64,89.25c-5.46,0-9.11-4.66-9.11-13.9,0-17.73,6.37-36.81,17.82-36.81,1.29,0,2.43.17,3.44.57-.18.69-.32,1.25-.38,1.57-1.72,10.06.38,16.47,5.23,20.01-2.48,15.57-9.44,28.56-17,28.56M267.26,42.35c4.46-.1,7.61-1.45,8.39-5.64.46-2.5-1.02-4.09-3.88-4.22,0,0-8.31-.43-17.89-.85,0,0,1.94-10.52,2.88-14.81.47-2.1-.66-4.18-3.33-4.83-2.66-.64-8.77-.68-10.82-.45-1.71.19-3.38,1.21-3.77,2.96-.97,4.4-1.97,9.69-3.17,16.47-3.55-.08-7-.11-9.4-.07-2.24.04-3.29,1.17-3.75,2.99-.46,1.82-.83,4.41-.98,7.1-.11,2.04,2.13,3.01,4.44,2.93,0,0,2.84-.13,7.29-.34-.82,3.85-2.47,14.19-3.09,20.61-4.01,13.36-12.35,23.22-19.53,23.22-4.4,0-7.02-2.58-7.02-10.42,0-10.85,2.52-24.57,6.19-38.32,5.18-12.34,8.16-26.05,8.16-32.27,0-2.34-.72-4.96-3.55-5.51-5.11-1.01-9.96-.82-13.37.23-3.04.94-3.66,4.1-4.03,5.79-1.76,8.11-4.63,22.49-6.64,35.09-4.47,5.36-9.6,9.12-15.16,10.05-.86-16.69-10.67-23.86-24.18-23.86-23.73,0-38.85,20.93-38.85,44.43,0,19.03,10.49,26.97,25.75,26.97,18.03,0,31.44-12.67,36.45-35.9,5.1-1.02,9.53-3.48,13.35-6.89,0,0-2.88,14.39-2.88,22.84,0,12.81,5.55,19.95,18.59,19.95,10.73,0,20.09-7.49,25.94-16.59,1.57,11.89,7.84,16.59,18.04,16.59,9.36,0,18.37-5.88,24.75-16.51,1.27-2.12,2.2-3.98,1.4-4.9-1.85-2.11-5.39-3.2-6.35-1.45-4.21,7.63-8.73,10.7-13.65,10.7-3.89,0-7.04-2.29-7.04-8.98,0-9.62,5.47-35.64,5.47-35.64,4.81-.17,10.16-.34,15.25-.45"/>
  </g>
  <g>
    <path class="cls-2" d="M351.06,93.26l-4.93-25.58h-34.34l-14.63,30.75c-1.29.14-7.44.57-7.71-4.45-.09-1.72.26-3.3,1.56-5.89l38.52-79.32c1.55-3.3,3.37-4.31,8.11-4.31s6.84,1.72,7.45,5.03l16.41,85.5c.2,1.15-2.26,3.45-5.42,3.45-2.59,0-4.54-1.58-5.01-5.17ZM344.97,59.35l-8.41-45.26-21.34,45.26h29.74Z"/>
    <path class="cls-2" d="M424.83,83.34c-1.53,9.2,1.73,11.06,4.93,11.78.29,0-.23,3.88-5.26,3.88-4.74,0-8.91-2.73-9.26-9.48l-.17-3.3c-4.46,8.19-11.23,13.22-20.43,13.22-13.65,0-24.25-10.35-25.19-28.31-1.13-21.55,10.96-43.11,30.07-43.11,10.35,0,18.44,6.32,21.92,15.23l6.32-38.37c.54-3.45,1.9-4.89,4.34-4.89h1.44c2.3,0,4.67,1.29,4.14,4.89l-12.84,78.46ZM419.48,55.32c-.96-10.06-7.6-18.97-18.24-18.97-14.51,0-22.75,18.25-21.92,34.2.66,12.65,7.84,20.69,17.61,20.69,10.78,0,18.45-9.91,20.29-21.41l2.26-14.51Z"/>
    <path class="cls-2" d="M442.78,91.39c-2.43-2.44-3.86-5.17-3.98-7.47-.22-4.17,3.46-5.32,3.9-5.17,3.35,6.32,10.72,12.65,20.92,12.65,9.05,0,14.7-4.74,14.33-11.64-.34-6.47-6.34-8.62-13.84-11.78-7.94-3.45-17.39-8.19-17.97-19.4-.58-11.06,7.69-20.55,21.91-20.55,8.77,0,16.13,3.45,20.24,7.9,2.12,2.16,3.41,4.74,3.52,6.9.21,4.02-3.88,5.46-4.18,5.17-3.06-6.32-10.4-11.93-19.16-11.93s-13.52,5.17-13.19,11.5c.35,6.75,6.53,9.48,14.18,12.79,9.42,4.17,17.54,8.33,18.07,18.54.77,11.93-8.41,20.55-23.21,20.55-9.2,0-16.99-3.45-21.54-8.05Z"/>
  </g>
</svg>