<?xml version="1.0" encoding="UTF-8"?>
<svg id="Layer_1" data-name="Layer 1" xmlns="http://www.w3.org/2000/svg" viewBox="0 0 738.49 100.6">
  <defs>
    <style>
      .cls-1 {
        fill: #00c2e8;
      }

      .cls-2 {
        fill: #161840;
      }
    </style>
  </defs>
  <g>
    <path class="cls-1" d="M103.69,1.25c-3.16,0-5.95.16-7.34.3-2.76.28-3.69,2.88-3.49,5.43,2.91,37-5.32,80.05-14.68,80.05-6.97,0-8.91-20.12-8.91-38.02,0-10.58.61-20.77.86-29.77.09-3.34-1.13-3.97-3.57-4.26-3.7-.44-6.34-.44-10.01.36-2.8.61-3.46,2.89-6.41,9.83-14.68,34.56-28.84,62.31-28.84,62.31-3.74-27.82,1.06-54.81,5.16-74.51.57-2.71-.74-4.31-2.99-4.27-4.24.07-10.75.21-13.68,2.11-2.75,1.78-3.78,3.69-4.57,7.63C.67,40.99-2.28,69.29,2.29,91.17c.99,4.73,2.1,5.85,4.11,7.08,2.02,1.24,10.68,2.35,14.03,2.35,3.81,0,7.3-1.02,10.21-5.95,6.15-10.44,11.07-20.86,20.38-40.94.96,26.16,4.69,46.69,23.25,46.69,24.61,0,40.49-60.86,40.49-90.15,0-7.75-3.88-9.02-11.07-9.02"/>
    <path class="cls-1" d="M140.64,90.25c-5.46,0-9.11-4.66-9.11-13.9,0-17.73,6.37-36.81,17.82-36.81,1.29,0,2.43.17,3.44.57-.18.69-.32,1.25-.38,1.57-1.72,10.06.38,16.47,5.23,20.01-2.48,15.57-9.44,28.56-17,28.56M267.26,43.36c4.46-.1,7.61-1.45,8.39-5.64.46-2.5-1.02-4.09-3.88-4.22,0,0-8.31-.43-17.89-.85,0,0,1.94-10.52,2.88-14.81.47-2.1-.66-4.18-3.33-4.83-2.66-.64-8.77-.68-10.82-.45-1.71.19-3.38,1.21-3.77,2.96-.97,4.4-1.97,9.69-3.17,16.47-3.55-.08-7-.11-9.4-.07-2.24.04-3.29,1.17-3.75,2.99-.46,1.82-.83,4.41-.98,7.1-.11,2.04,2.13,3.01,4.44,2.93,0,0,2.84-.13,7.29-.34-.82,3.85-2.47,14.19-3.09,20.61-4.01,13.36-12.35,23.22-19.53,23.22-4.4,0-7.02-2.58-7.02-10.42,0-10.85,2.52-24.57,6.19-38.32,5.18-12.34,8.16-26.05,8.16-32.27,0-2.34-.72-4.96-3.55-5.51-5.11-1.01-9.96-.82-13.37.23-3.04.94-3.66,4.1-4.03,5.79-1.76,8.11-4.63,22.49-6.64,35.09-4.47,5.36-9.6,9.12-15.16,10.05-.86-16.69-10.67-23.86-24.18-23.86-23.73,0-38.85,20.93-38.85,44.43,0,19.03,10.49,26.97,25.75,26.97,18.03,0,31.44-12.67,36.45-35.9,5.1-1.02,9.53-3.48,13.35-6.89,0,0-2.88,14.39-2.88,22.84,0,12.81,5.55,19.95,18.59,19.95,10.73,0,20.09-7.49,25.94-16.59,1.57,11.89,7.84,16.59,18.04,16.59,9.36,0,18.37-5.88,24.75-16.51,1.27-2.12,2.2-3.98,1.4-4.9-1.85-2.11-5.39-3.2-6.35-1.45-4.21,7.63-8.73,10.7-13.65,10.7-3.89,0-7.04-2.29-7.04-8.98,0-9.62,5.47-35.64,5.47-35.64,4.81-.17,10.16-.34,15.25-.45"/>
  </g>
  <g>
    <path class="cls-2" d="M302.5,95.13l8.97-56.47h-7.62c-2.44,0-3.79-1.01-3.88-2.73-.06-1.15.41-3.16,1.08-4.02.67-1.01,1.79-1.44,3.52-1.44h8.19l1.3-8.05c1.93-12.5,7.3-22.42,19.52-22.42,4.45,0,7.97,1.29,10.23,3.3,1.64,1.15,2.46,3.02,2.54,4.6.18,3.45-2.88,5.32-3.19,5.03-1.73-2.87-5.12-4.45-8.71-4.45-7.62,0-9.95,7.47-11.39,15.81l-.97,6.18h11.78c2.16,0,3.5,1.01,3.6,2.87.04.72-.19,1.87-.58,2.73-.62,1.87-2.16,2.59-3.74,2.59h-11.93l-8.97,56.47c-.54,3.3-2.07,4.31-4.8,4.31h-1.01c-2.3,0-4.51-1.15-3.96-4.31Z"/>
    <path class="cls-2" d="M339.77,71.42c-1.16-22.13,11.44-42.25,32.13-42.25,16.67,0,27.62,11.64,28.51,28.6,1.17,22.42-11.13,42.68-31.96,42.68-16.81,0-27.78-11.93-28.68-29.03ZM390.64,57.77c-.65-12.36-7.83-20.55-18.61-20.55-14.94,0-23.35,17.82-22.48,34.34.65,12.36,7.85,20.84,18.77,20.84,14.66,0,23.21-17.82,22.33-34.63Z"/>
    <path class="cls-2" d="M409.52,94.55l10.31-63.8c.13-.29,1.26-.72,2.69-.72,2.59,0,5.1,1.29,5.07,6.18-.04,2.01-.19,4.6-.5,6.9,3.69-9.2,9.18-14.08,16.22-14.08,5.75,0,9.39,3.74,9.57,7.18.28,5.32-4.22,7.19-4.37,7.04-1.26-2.16-3.81-4.17-7.69-4.17-8.33,0-13.89,9.2-16.94,27.73l-4.58,27.73c-.4,3.3-1.76,4.89-4.49,4.89h-1.15c-2.59,0-4.54-1.58-4.14-4.89Z"/>
    <path class="cls-2" d="M569.52,10.78c.09,1.72-.38,3.74-1.65,6.9l-28.7,77.6c-1.26,3.31-3.22,4.45-7.1,4.45-4.6,0-6.28-1.87-6.61-5.46l-7.78-60.64-26.95,61.64c-1.39,3.59-3.5,4.45-6.81,4.45-4.45,0-6.41-1.72-6.61-5.46l-5.52-86.22c.11-.57,2.17-2.44,5.33-2.44,3.59,0,5.16,2.59,5.22,6.47l3.14,76.3,26.73-62.94c1.26-3.3,3.35-4.6,6.8-4.6,3.74,0,5.85,2.01,6.19,5.75l7.67,61.36,28.46-82.05c.26-.57,7.72-.72,8.16,4.89Z"/>
    <path class="cls-2" d="M567.24,71.42c-1.16-22.13,11.44-42.25,32.13-42.25,16.67,0,27.62,11.64,28.51,28.6,1.18,22.42-11.13,42.68-31.96,42.68-16.81,0-27.78-11.93-28.68-29.03ZM618.11,57.77c-.65-12.36-7.83-20.55-18.61-20.55-14.94,0-23.35,17.82-22.48,34.34.65,12.36,7.85,20.84,18.77,20.84,14.66,0,23.21-17.82,22.33-34.63Z"/>
    <path class="cls-2" d="M637,94.55l10.31-63.8c.13-.29,1.26-.72,2.69-.72,2.59,0,5.1,1.29,5.06,6.18-.04,2.01-.19,4.6-.5,6.9,3.68-9.2,9.18-14.08,16.22-14.08,5.75,0,9.39,3.74,9.57,7.18.28,5.32-4.22,7.19-4.37,7.04-1.26-2.16-3.81-4.17-7.69-4.17-8.33,0-13.89,9.2-16.94,27.73l-4.58,27.73c-.4,3.3-1.76,4.89-4.49,4.89h-1.15c-2.59,0-4.54-1.58-4.14-4.89Z"/>
    <path class="cls-2" d="M735.59,40.09l-27.49,23.85,14.58,20.55c5.14,7.62,7.06,8.62,11.24,8.77.29,0,.78,6.75-6.54,6.75-4.45,0-7.02-2.44-12.17-10.2l-17.29-25.58-4.48,29.75c-.65,4.02-1.87,5.46-4.74,5.46h-1.15c-2.44,0-4.81-1.29-4.17-5.46l14.06-88.09c.4-3.3,1.76-4.89,4.2-4.89h1.58c2.3,0,4.67,1.44,3.99,4.89l-8.73,55.47,34.54-31.9c.13-.29,5.04.29,5.41,4.6.23,1.58-.24,3.74-2.85,6.04Z"/>
  </g>
</svg>