<?xml version="1.0" encoding="UTF-8"?>
<svg id="Layer_1" data-name="Layer 1" xmlns="http://www.w3.org/2000/svg" viewBox="0 0 470.1 470.1">
  <defs>
    <style>
      .cls-1 {
        fill: #f8f8f8;
      }

      .cls-2 {
        fill: #00c2e8;
      }

      .cls-3 {
        fill: #161840;
      }
    </style>
  </defs>
  <circle class="cls-1" cx="235.05" cy="235.05" r="235.05"/>
  <g>
    <path class="cls-2" d="M199.69,159.45c-3.63,0-6.85.18-8.45.35-3.18.32-4.25,3.31-4.02,6.25,3.34,42.58-6.12,92.14-16.9,92.14-8.02,0-10.26-23.16-10.26-43.76,0-12.18.71-23.91.99-34.27.11-3.84-1.3-4.57-4.11-4.91-4.25-.51-7.3-.51-11.52.42-3.22.71-3.98,3.33-7.37,11.31-16.89,39.77-33.2,71.72-33.2,71.72-4.31-32.02,1.22-63.08,5.93-85.75.65-3.12-.85-4.96-3.44-4.92-4.88.09-12.37.24-15.74,2.43-3.17,2.05-4.35,4.25-5.26,8.78-5.23,25.96-8.63,58.53-3.37,83.72,1.14,5.44,2.41,6.73,4.73,8.15,2.32,1.43,12.29,2.7,16.15,2.7,4.38,0,8.4-1.17,11.75-6.84,7.07-12.01,12.74-24.01,23.45-47.12,1.1,30.11,5.39,53.74,26.76,53.74,28.32,0,46.6-70.05,46.6-103.76,0-8.92-4.46-10.38-12.74-10.38"/>
    <path class="cls-2" d="M387.96,207.92c5.13-.12,8.76-1.67,9.65-6.49.53-2.87-1.17-4.71-4.47-4.85,0,0-9.57-.5-20.59-.98,0,0,2.23-12.11,3.31-17.04.54-2.42-.75-4.82-3.84-5.56-3.06-.73-10.1-.78-12.46-.52-1.97.22-3.89,1.39-4.34,3.41-1.11,5.06-2.27,11.16-3.65,18.95-4.09-.09-8.05-.13-10.81-.08-2.58.04-3.78,1.34-4.31,3.44-.53,2.1-.96,5.09-1.13,8.18-.13,2.35,2.45,3.47,5.11,3.37,0,0,3.27-.15,8.39-.39-.95,4.43-2.85,16.33-3.57,23.72-4.62,15.37-14.21,26.73-22.47,26.73-5.06,0-8.08-2.98-8.08-12,0-12.49,2.9-28.28,7.13-44.11,5.96-14.2,9.39-29.99,9.39-37.14,0-2.69-.83-5.71-4.09-6.34-5.88-1.16-11.47-.94-15.38.27-3.49,1.08-4.21,4.72-4.64,6.67-2.02,9.33-5.33,25.88-7.64,40.38-5.15,6.17-11.06,10.5-17.45,11.57-.99-19.21-12.28-27.46-27.84-27.46-27.31,0-44.72,24.09-44.72,51.13,0,21.9,12.07,31.04,29.64,31.04,20.75,0,36.19-14.58,41.96-41.32,5.88-1.17,10.97-4.01,15.37-7.93,0,0-3.31,16.56-3.31,26.29,0,14.74,6.39,22.96,21.4,22.96,12.35,0,23.13-8.62,29.86-19.1,1.8,13.69,9.02,19.1,20.76,19.1,10.77,0,21.15-6.77,28.49-19.01,1.46-2.44,2.53-4.58,1.61-5.64-2.14-2.43-6.2-3.69-7.32-1.67-4.84,8.78-10.04,12.31-15.71,12.31-4.48,0-8.11-2.64-8.11-10.34,0-11.07,6.29-41.02,6.29-41.02,5.54-.2,11.7-.39,17.55-.52M242.22,261.89c-6.28,0-10.48-5.36-10.48-16,0-20.41,7.33-42.36,20.51-42.36,1.49,0,2.8.19,3.96.65-.21.79-.37,1.44-.43,1.81-1.98,11.58.43,18.95,6.01,23.03-2.86,17.92-10.86,32.87-19.57,32.87"/>
  </g>
  <g>
    <path class="cls-3" d="M128.63,349.39l3.81-35.42c.27-2.69,1.71-4.14,4.19-4.14h10.63c7.45,0,12.22,3.38,12.87,9.51.56,5.31-1.61,10.27-8.15,11.78,4.4,1.17,7.59,3.93,8.11,8.89.87,8.34-3.25,14.4-15.88,14.4h-11.45c-2.76,0-4.45-1.65-4.12-5.03ZM144.11,348.9c6.56,0,9.45-3.31,8.84-9.1-.4-3.86-3.36-5.72-7.84-5.72h-7.73l-1.55,14.82h8.28ZM145.09,329.33c6.62,0,8.4-4.82,7.99-8.68-.36-3.45-2.76-5.31-7.18-5.31h-6.49l-1.5,13.99h7.18Z"/>
    <path class="cls-3" d="M164.96,341.81c-1.17-11.16,5.01-21.36,15.77-21.36,6.9,0,10.89,3.86,11.41,8.75.61,5.86-2.66,10.82-14.87,10.82-1.72,0-3.8-.07-5.89-.28-.06.76-.06,1.45.03,2.27.48,4.62,3.15,7.65,7.63,7.65,3.59,0,6.09-1.79,7.42-4.89.76,0,3.55.27,3.82,2.89.16,1.52-.46,2.83-1.64,4.07-1.98,2.2-5.02,3.44-9.3,3.44-7.8,0-13.47-4.75-14.37-13.37ZM176.39,335.6c7.78-.14,9.9-2.96,9.59-5.93-.2-1.93-1.8-4-5.18-4-4.69,0-7.99,4.07-8.99,9.65,1.75.28,3.27.28,4.58.28Z"/>
    <path class="cls-3" d="M221.75,354.97c-3.1,0-5.32-2-5.66-5.31-.21-2,.14-4.62.67-8.06.72-4.96,1.08-7.51.85-9.65-.4-3.79-2.39-5.72-5.57-5.72-3.38,0-5.5,2.21-6.9,5.24l-2.1,19.5c-.28,2.62-1.07,3.65-3.14,3.65h-.69c-1.59,0-3.27-.9-2.94-3.65l3.19-29.5c-.02-.21.83-.62,1.94-.62,1.45,0,2.89.62,3.59,2.62.23.9.35,2,.32,3.03,1.92-4.07,5.09-6.06,9.09-6.06,5.66,0,9.53,4.07,10.13,9.79.31,2.96-.2,6.62-.91,11.03-.52,3.58-.89,6-.71,7.72.22,2.14,1.24,2.62,2.58,2.89.15.07-.09,3.1-3.75,3.1Z"/>
    <path class="cls-3" d="M230.1,341.81c-1.17-11.16,5.01-21.36,15.77-21.36,6.9,0,10.89,3.86,11.41,8.75.61,5.86-2.66,10.82-14.87,10.82-1.72,0-3.8-.07-5.89-.28-.06.76-.06,1.45.03,2.27.48,4.62,3.15,7.65,7.63,7.65,3.59,0,6.09-1.79,7.42-4.89.76,0,3.55.27,3.82,2.89.16,1.52-.46,2.83-1.64,4.07-1.98,2.2-5.02,3.44-9.3,3.44-7.8,0-13.47-4.75-14.37-13.37ZM241.52,335.6c7.78-.14,9.9-2.96,9.59-5.93-.2-1.93-1.8-4-5.18-4-4.69,0-7.99,4.07-8.99,9.65,1.75.28,3.27.28,4.58.28Z"/>
    <path class="cls-3" d="M263.09,351.8l2.68-25.08h-2.69c-1.52,0-2.35-.69-2.47-1.86-.08-.76.06-2.07.48-2.62.33-.76,1.06-1.1,2.3-1.1h2.97l.42-3.86c.6-6.13,3.36-10.75,9.5-10.75,2.14,0,3.92.55,5.19,1.45.97.69,1.64,1.79,1.75,2.89.23,2.21-1.83,3.58-1.99,3.45-.82-1.24-2.42-2-3.94-2-2.97,0-3.92,2.76-4.3,6.41l-.3,2.41h4.76c1.31,0,2.28.69,2.42,2,.04.41-.09,1.1-.25,1.58-.27,1.38-1.31,2-2.48,2h-4.62l-2.68,25.08c-.25,2.21-1.36,2.83-3.22,2.83h-.76c-1.45,0-2.98-.83-2.78-2.83ZM282.81,346.35l2.44-22.12c.3-2.41,1.09-3.38,2.75-3.38h1.24c1.45,0,3.13.9,2.84,3.38l-2.48,22.4c-.46,4.2.92,5.45,2.62,5.86.08.07-.22,2.48-3.47,2.48-4.35,0-6.56-3.31-5.94-8.61ZM286.07,311.62c-.33-3.17,1.5-4.76,3.85-4.76,2.14,0,3.92,1.24,4.19,3.72.33,3.1-1.5,4.76-3.85,4.76-2.14,0-3.93-1.31-4.19-3.72Z"/>
    <path class="cls-3" d="M300.26,344.29l1.95-17.57h-2.07c-1.59,0-2.49-.69-2.61-1.86-.08-.76.06-2.07.49-2.55.33-.76,1.12-1.17,2.36-1.17h2.42l.34-3.38c.35-3.93,2.1-4.96,4.38-4.96,1.79,0,2.83.69,2.8,1.03l-.68,7.3h5.52c1.38,0,2.35.69,2.42,2,.04.41-.1,1.03-.19,1.45-.26,1.52-1.29,2.14-2.47,2.14h-6l-1.85,16.61c-.43,4.41,1.06,6.2,3.62,6.2,1.45,0,2.49-.62,3.49-1.58.29.14,1.11.69,1.27,2.21.14,1.38-.36,2.48-1.23,3.38-1.06,1.03-2.86,1.65-5.07,1.65-5.86,0-9.6-4.07-8.87-10.89Z"/>
    <path class="cls-3" d="M321.23,351.52c-1.37-1.24-2.14-2.69-2.3-4.13-.28-2.69,1.91-3.51,2.2-3.38,2.02,2.83,5.43,5.72,9.91,5.72,3.52,0,5.62-1.72,5.33-4.41-.27-2.55-2.7-3.38-5.88-4.76-3.62-1.58-8.29-4-8.89-9.79-.56-5.31,3.19-10.34,10.58-10.34,4.07,0,7.67,1.45,9.9,3.58,1.16,1.17,1.92,2.55,2.06,3.86.28,2.69-2.38,3.65-2.47,3.45-1.72-2.62-5.12-5.44-8.92-5.44-3.38,0-5.26,1.86-4.99,4.41.27,2.62,2.94,3.72,6.13,5.17,4.63,2.07,8.51,4.2,9.1,9.17.7,6-3.66,10.54-11.31,10.54-4.28,0-8.09-1.51-10.46-3.65Z"/>
  </g>
</svg>