<?xml version="1.0" encoding="UTF-8"?>
<svg id="Layer_1" data-name="Layer 1" xmlns="http://www.w3.org/2000/svg" viewBox="0 0 470.1 470.1">
  <defs>
    <style>
      .cls-1 {
        fill: #f8f8f8;
      }

      .cls-2 {
        fill: #00c2e8;
      }

      .cls-3 {
        fill: #161840;
      }
    </style>
  </defs>
  <circle class="cls-1" cx="235.05" cy="235.05" r="235.05"/>
  <g>
    <path class="cls-2" d="M199.69,159.45c-3.63,0-6.85.18-8.45.35-3.18.32-4.25,3.31-4.02,6.25,3.34,42.58-6.12,92.14-16.9,92.14-8.02,0-10.26-23.16-10.26-43.76,0-12.18.71-23.91.99-34.27.11-3.84-1.3-4.57-4.11-4.91-4.25-.51-7.3-.51-11.52.42-3.22.71-3.98,3.33-7.37,11.31-16.89,39.77-33.2,71.72-33.2,71.72-4.31-32.02,1.22-63.08,5.93-85.75.65-3.12-.85-4.96-3.44-4.92-4.88.09-12.37.24-15.74,2.43-3.17,2.05-4.35,4.25-5.26,8.78-5.23,25.96-8.63,58.53-3.37,83.72,1.14,5.44,2.41,6.73,4.73,8.15,2.32,1.43,12.29,2.7,16.15,2.7,4.38,0,8.4-1.17,11.75-6.84,7.07-12.01,12.74-24.01,23.45-47.12,1.1,30.11,5.39,53.74,26.76,53.74,28.32,0,46.6-70.05,46.6-103.76,0-8.92-4.46-10.38-12.74-10.38"/>
    <path class="cls-2" d="M387.96,207.92c5.13-.12,8.76-1.67,9.65-6.49.53-2.87-1.17-4.71-4.47-4.85,0,0-9.57-.5-20.59-.98,0,0,2.23-12.11,3.31-17.04.54-2.42-.75-4.82-3.84-5.56-3.06-.73-10.1-.78-12.46-.52-1.97.22-3.89,1.39-4.34,3.41-1.11,5.06-2.27,11.16-3.65,18.95-4.09-.09-8.05-.13-10.81-.08-2.58.04-3.78,1.34-4.31,3.44-.53,2.1-.96,5.09-1.13,8.18-.13,2.35,2.45,3.47,5.11,3.37,0,0,3.27-.15,8.39-.39-.95,4.43-2.85,16.33-3.57,23.72-4.62,15.37-14.21,26.73-22.47,26.73-5.06,0-8.08-2.98-8.08-12,0-12.49,2.9-28.28,7.13-44.11,5.96-14.2,9.39-29.99,9.39-37.14,0-2.69-.83-5.71-4.09-6.34-5.88-1.16-11.47-.94-15.38.27-3.49,1.08-4.21,4.72-4.64,6.67-2.02,9.33-5.33,25.88-7.64,40.38-5.15,6.17-11.06,10.5-17.45,11.57-.99-19.21-12.28-27.46-27.84-27.46-27.31,0-44.72,24.09-44.72,51.13,0,21.9,12.07,31.04,29.64,31.04,20.75,0,36.19-14.58,41.96-41.32,5.88-1.17,10.97-4.01,15.37-7.93,0,0-3.31,16.56-3.31,26.29,0,14.74,6.39,22.96,21.4,22.96,12.35,0,23.13-8.62,29.86-19.1,1.8,13.69,9.02,19.1,20.76,19.1,10.77,0,21.15-6.77,28.49-19.01,1.46-2.44,2.53-4.58,1.61-5.64-2.14-2.43-6.2-3.69-7.32-1.67-4.84,8.78-10.04,12.31-15.71,12.31-4.48,0-8.11-2.64-8.11-10.34,0-11.07,6.29-41.02,6.29-41.02,5.54-.2,11.7-.39,17.55-.52M242.22,261.89c-6.28,0-10.48-5.36-10.48-16,0-20.41,7.33-42.36,20.51-42.36,1.49,0,2.8.19,3.96.65-.21.79-.37,1.44-.43,1.81-1.98,11.58.43,18.95,6.01,23.03-2.86,17.92-10.86,32.87-19.57,32.87"/>
  </g>
  <g>
    <path class="cls-3" d="M101.77,349.46c-1.55-1.46-2.75-3.33-2.87-5.06-.21-2.67,2.25-4,2.68-3.73,1.81,3.26,5.68,7.06,11.62,7.06,4.94,0,7.47-2.53,7.05-6.6-.42-4-3.75-5.26-8.05-7.4-4.29-2.07-9.14-5.06-9.81-11.46-.71-6.73,3.54-13.33,12.75-13.33,4.74,0,8.59,1.73,10.74,3.8,1.55,1.4,2.53,3.13,2.68,4.6.29,2.8-2.42,4.33-2.78,4.06-1.65-3-5.22-6.53-10.43-6.53-4.34,0-6.87,2.6-6.48,6.33.42,4,3.56,5.33,7.85,7.4,4.92,2.4,9.63,5.26,10.3,11.66.73,6.93-3.41,13.33-13.22,13.33-5.21,0-9.46-1.73-12.04-4.13Z"/>
    <path class="cls-3" d="M134.33,343.06l1.89-16.99h-2c-1.53,0-2.41-.67-2.52-1.8-.08-.73.06-2,.48-2.47.32-.73,1.08-1.13,2.28-1.13h2.34l.33-3.27c.34-3.8,2.03-4.8,4.23-4.8,1.73,0,2.74.67,2.71,1l-.66,7.06h5.34c1.33,0,2.27.67,2.34,1.93.04.4-.1,1-.19,1.4-.25,1.47-1.25,2.07-2.39,2.07h-5.81l-1.79,16.06c-.42,4.26,1.03,6,3.5,6,1.4,0,2.41-.6,3.38-1.53.28.13,1.07.67,1.22,2.13.14,1.33-.35,2.4-1.19,3.27-1.03,1-2.77,1.6-4.9,1.6-5.67,0-9.29-3.93-8.58-10.53Z"/>
    <path class="cls-3" d="M153.52,340.2c-1.11-10.59,4.16-20.19,14.17-20.19,7.87,0,13.3,5.26,14.14,13.33,1.11,10.59-4.08,20.26-14.02,20.26-7.94,0-13.44-5.33-14.28-13.39ZM175.32,333.07c-.5-4.8-3.28-7.73-7.28-7.73-6.07,0-8.67,8.33-7.96,15.13.5,4.8,3.29,7.8,7.29,7.8,6.01,0,8.66-8.46,7.95-15.19Z"/>
    <path class="cls-3" d="M186.37,349.93l3.18-28.85c.04-.27.93-.67,2.07-.67,1.33,0,2.68.73,3.12,2.4.32,1.13.29,2.73.17,4.2,1.4-4.46,3.74-7,7.01-7,2.6,0,4.46,1.8,4.68,3.93.38,3.66-2.56,4.86-2.63,4.8-.65-1.07-1.74-2-3.41-2-3.47,0-5.42,3.67-6.32,11.59l-1.32,11.59c-.24,2.13-1.01,3.13-2.87,3.13h-.67c-1.87,0-3.19-1.13-3-3.13Z"/>
    <path class="cls-3" d="M208.28,340.66c-1.13-10.79,4.84-20.66,15.25-20.66,6.67,0,10.53,3.73,11.03,8.46.59,5.66-2.57,10.46-14.38,10.46-1.67,0-3.68-.07-5.7-.27-.06.73-.05,1.4.03,2.2.47,4.46,3.04,7.4,7.38,7.4,3.47,0,5.89-1.73,7.18-4.73.73,0,3.43.27,3.7,2.8.15,1.47-.45,2.73-1.59,3.93-1.91,2.13-4.86,3.33-8.99,3.33-7.54,0-13.03-4.6-13.9-12.93ZM219.33,334.67c7.53-.13,9.58-2.87,9.27-5.73-.2-1.87-1.74-3.87-5.01-3.87-4.54,0-7.73,3.93-8.7,9.33,1.7.27,3.16.27,4.43.27Z"/>
    <path class="cls-3" d="M240.19,350.33l2.6-24.26h-2.6c-1.47,0-2.27-.67-2.39-1.8-.08-.73.06-2,.47-2.53.32-.73,1.02-1.07,2.22-1.07h2.87l.41-3.73c.58-5.93,3.25-10.4,9.19-10.4,2.07,0,3.79.53,5.02,1.4.94.67,1.58,1.73,1.69,2.8.22,2.13-1.77,3.46-1.92,3.33-.79-1.2-2.34-1.93-3.81-1.93-2.87,0-3.79,2.67-4.15,6.2l-.29,2.33h4.6c1.27,0,2.21.67,2.34,1.93.04.4-.09,1.07-.24,1.53-.26,1.33-1.27,1.93-2.4,1.93h-4.47l-2.6,24.26c-.24,2.13-1.32,2.73-3.12,2.73h-.73c-1.4,0-2.89-.8-2.69-2.73Z"/>
    <path class="cls-3" d="M258.1,349.93l3.18-28.85c.04-.27.93-.67,2.07-.67,1.33,0,2.68.73,3.12,2.4.32,1.13.29,2.73.17,4.2,1.4-4.46,3.74-7,7.01-7,2.6,0,4.46,1.8,4.68,3.93.38,3.66-2.56,4.86-2.63,4.8-.65-1.07-1.74-2-3.41-2-3.47,0-5.42,3.67-6.32,11.59l-1.32,11.59c-.24,2.13-1.01,3.13-2.87,3.13h-.67c-1.87,0-3.19-1.13-3-3.13Z"/>
    <path class="cls-3" d="M280.03,340.2c-1.11-10.59,4.16-20.19,14.17-20.19,7.87,0,13.3,5.26,14.14,13.33,1.11,10.59-4.08,20.26-14.02,20.26-7.94,0-13.44-5.33-14.28-13.39ZM301.84,333.07c-.5-4.8-3.28-7.73-7.28-7.73-6.07,0-8.67,8.33-7.96,15.13.5,4.8,3.29,7.8,7.29,7.8,6.01,0,8.66-8.46,7.95-15.19Z"/>
    <path class="cls-3" d="M337.66,353.39c-3,0-5.14-1.93-5.48-5.13-.2-1.93.13-4.46.65-7.8.7-4.8,1.04-7.26.82-9.33-.38-3.66-2.31-5.53-5.38-5.53-3.27,0-5.31,2.13-6.68,5.06l-2.03,18.86c-.27,2.53-1.03,3.53-3.03,3.53h-.67c-1.54,0-3.16-.87-2.84-3.53l3.08-28.52c-.02-.2.8-.6,1.87-.6,1.4,0,2.8.6,3.47,2.53.22.87.34,1.93.31,2.93,1.86-3.93,4.92-5.86,8.79-5.86,5.47,0,9.22,3.93,9.8,9.46.3,2.86-.2,6.4-.88,10.66-.5,3.46-.86,5.8-.69,7.46.22,2.07,1.2,2.53,2.5,2.8.14.07-.09,3-3.62,3Z"/>
    <path class="cls-3" d="M348.26,343.06l1.89-16.99h-2c-1.53,0-2.41-.67-2.52-1.8-.08-.73.06-2,.48-2.47.32-.73,1.08-1.13,2.28-1.13h2.34l.33-3.27c.34-3.8,2.03-4.8,4.23-4.8,1.74,0,2.74.67,2.71,1l-.66,7.06h5.34c1.33,0,2.27.67,2.34,1.93.04.4-.1,1-.19,1.4-.25,1.47-1.25,2.07-2.39,2.07h-5.81l-1.79,16.06c-.42,4.26,1.03,6,3.5,6,1.4,0,2.41-.6,3.38-1.53.28.13,1.07.67,1.22,2.13.14,1.33-.35,2.4-1.19,3.27-1.03,1-2.77,1.6-4.9,1.6-5.67,0-9.29-3.93-8.58-10.53Z"/>
  </g>
</svg>